<?xml version="1.0" encoding="utf-8" standalone="no"?>
<!DOCTYPE svg PUBLIC "-//W3C//DTD SVG 1.1//EN"
  "http://www.w3.org/Graphics/SVG/1.1/DTD/svg11.dtd">
<svg xmlns:xlink="http://www.w3.org/1999/xlink" width="648pt" height="504pt" viewBox="0 0 648 504" xmlns="http://www.w3.org/2000/svg" version="1.1">
 <metadata>
  <rdf:RDF xmlns:dc="http://purl.org/dc/elements/1.1/" xmlns:cc="http://creativecommons.org/ns#" xmlns:rdf="http://www.w3.org/1999/02/22-rdf-syntax-ns#">
   <cc:Work>
    <dc:type rdf:resource="http://purl.org/dc/dcmitype/StillImage"/>
    <dc:date>2026-01-18T13:33:17.300779</dc:date>
    <dc:format>image/svg+xml</dc:format>
    <dc:creator>
     <cc:Agent>
      <dc:title>Matplotlib v3.10.8, https://matplotlib.org/</dc:title>
     </cc:Agent>
    </dc:creator>
   </cc:Work>
  </rdf:RDF>
 </metadata>
 <defs>
  <style type="text/css">*{stroke-linejoin: round; stroke-linecap: butt}</style>
 </defs>
 <g id="figure_1">
  <g id="patch_1">
   <path d="M 0 504 
L 648 504 
L 648 0 
L 0 0 
z
" style="fill: #ffffff"/>
  </g>
  <g id="axes_1">
   <g id="patch_2">
    <path d="M 56.357054 221.272 
L 628.183658 221.272 
L 628.183658 41.856 
L 56.357054 41.856 
z
" style="fill: #ffffff"/>
   </g>
   <g id="matplotlib.axis_1">
    <g id="xtick_1">
     <g id="line2d_1">
      <path d="M 82.349172 221.272 
L 82.349172 41.856 
" clip-path="url(#pca40eb2e16)" style="fill: none; stroke: #b0b0b0; stroke-opacity: 0.25; stroke-width: 0.8; stroke-linecap: square"/>
     </g>
     <g id="line2d_2">
      <defs>
       <path id="mbd506fdae8" d="M 0 0 
L 0 3.5 
" style="stroke: #000000; stroke-width: 0.8"/>
      </defs>
      <g>
       <use xlink:href="#mbd506fdae8" x="82.349172" y="221.272" style="stroke: #000000; stroke-width: 0.8"/>
      </g>
     </g>
     <g id="text_1">
      <!-- 0 -->
      <g transform="translate(79.167922 235.870437) scale(0.1 -0.1)">
       <defs>
        <path id="DejaVuSans-30" d="M 2034 4250 
Q 1547 4250 1301 3770 
Q 1056 3291 1056 2328 
Q 1056 1369 1301 889 
Q 1547 409 2034 409 
Q 2525 409 2770 889 
Q 3016 1369 3016 2328 
Q 3016 3291 2770 3770 
Q 2525 4250 2034 4250 
z
M 2034 4750 
Q 2819 4750 3233 4129 
Q 3647 3509 3647 2328 
Q 3647 1150 3233 529 
Q 2819 -91 2034 -91 
Q 1250 -91 836 529 
Q 422 1150 422 2328 
Q 422 3509 836 4129 
Q 1250 4750 2034 4750 
z
" transform="scale(0.015625)"/>
       </defs>
       <use xlink:href="#DejaVuSans-30"/>
      </g>
     </g>
    </g>
    <g id="xtick_2">
     <g id="line2d_3">
      <path d="M 186.343035 221.272 
L 186.343035 41.856 
" clip-path="url(#pca40eb2e16)" style="fill: none; stroke: #b0b0b0; stroke-opacity: 0.25; stroke-width: 0.8; stroke-linecap: square"/>
     </g>
     <g id="line2d_4">
      <g>
       <use xlink:href="#mbd506fdae8" x="186.343035" y="221.272" style="stroke: #000000; stroke-width: 0.8"/>
      </g>
     </g>
     <g id="text_2">
      <!-- 2 -->
      <g transform="translate(183.161785 235.870437) scale(0.1 -0.1)">
       <defs>
        <path id="DejaVuSans-32" d="M 1228 531 
L 3431 531 
L 3431 0 
L 469 0 
L 469 531 
Q 828 903 1448 1529 
Q 2069 2156 2228 2338 
Q 2531 2678 2651 2914 
Q 2772 3150 2772 3378 
Q 2772 3750 2511 3984 
Q 2250 4219 1831 4219 
Q 1534 4219 1204 4116 
Q 875 4013 500 3803 
L 500 4441 
Q 881 4594 1212 4672 
Q 1544 4750 1819 4750 
Q 2544 4750 2975 4387 
Q 3406 4025 3406 3419 
Q 3406 3131 3298 2873 
Q 3191 2616 2906 2266 
Q 2828 2175 2409 1742 
Q 1991 1309 1228 531 
z
" transform="scale(0.015625)"/>
       </defs>
       <use xlink:href="#DejaVuSans-32"/>
      </g>
     </g>
    </g>
    <g id="xtick_3">
     <g id="line2d_5">
      <path d="M 290.336897 221.272 
L 290.336897 41.856 
" clip-path="url(#pca40eb2e16)" style="fill: none; stroke: #b0b0b0; stroke-opacity: 0.25; stroke-width: 0.8; stroke-linecap: square"/>
     </g>
     <g id="line2d_6">
      <g>
       <use xlink:href="#mbd506fdae8" x="290.336897" y="221.272" style="stroke: #000000; stroke-width: 0.8"/>
      </g>
     </g>
     <g id="text_3">
      <!-- 4 -->
      <g transform="translate(287.155647 235.870437) scale(0.1 -0.1)">
       <defs>
        <path id="DejaVuSans-34" d="M 2419 4116 
L 825 1625 
L 2419 1625 
L 2419 4116 
z
M 2253 4666 
L 3047 4666 
L 3047 1625 
L 3713 1625 
L 3713 1100 
L 3047 1100 
L 3047 0 
L 2419 0 
L 2419 1100 
L 313 1100 
L 313 1709 
L 2253 4666 
z
" transform="scale(0.015625)"/>
       </defs>
       <use xlink:href="#DejaVuSans-34"/>
      </g>
     </g>
    </g>
    <g id="xtick_4">
     <g id="line2d_7">
      <path d="M 394.33076 221.272 
L 394.33076 41.856 
" clip-path="url(#pca40eb2e16)" style="fill: none; stroke: #b0b0b0; stroke-opacity: 0.25; stroke-width: 0.8; stroke-linecap: square"/>
     </g>
     <g id="line2d_8">
      <g>
       <use xlink:href="#mbd506fdae8" x="394.33076" y="221.272" style="stroke: #000000; stroke-width: 0.8"/>
      </g>
     </g>
     <g id="text_4">
      <!-- 6 -->
      <g transform="translate(391.14951 235.870437) scale(0.1 -0.1)">
       <defs>
        <path id="DejaVuSans-36" d="M 2113 2584 
Q 1688 2584 1439 2293 
Q 1191 2003 1191 1497 
Q 1191 994 1439 701 
Q 1688 409 2113 409 
Q 2538 409 2786 701 
Q 3034 994 3034 1497 
Q 3034 2003 2786 2293 
Q 2538 2584 2113 2584 
z
M 3366 4563 
L 3366 3988 
Q 3128 4100 2886 4159 
Q 2644 4219 2406 4219 
Q 1781 4219 1451 3797 
Q 1122 3375 1075 2522 
Q 1259 2794 1537 2939 
Q 1816 3084 2150 3084 
Q 2853 3084 3261 2657 
Q 3669 2231 3669 1497 
Q 3669 778 3244 343 
Q 2819 -91 2113 -91 
Q 1303 -91 875 529 
Q 447 1150 447 2328 
Q 447 3434 972 4092 
Q 1497 4750 2381 4750 
Q 2619 4750 2861 4703 
Q 3103 4656 3366 4563 
z
" transform="scale(0.015625)"/>
       </defs>
       <use xlink:href="#DejaVuSans-36"/>
      </g>
     </g>
    </g>
    <g id="xtick_5">
     <g id="line2d_9">
      <path d="M 498.324622 221.272 
L 498.324622 41.856 
" clip-path="url(#pca40eb2e16)" style="fill: none; stroke: #b0b0b0; stroke-opacity: 0.25; stroke-width: 0.8; stroke-linecap: square"/>
     </g>
     <g id="line2d_10">
      <g>
       <use xlink:href="#mbd506fdae8" x="498.324622" y="221.272" style="stroke: #000000; stroke-width: 0.8"/>
      </g>
     </g>
     <g id="text_5">
      <!-- 8 -->
      <g transform="translate(495.143372 235.870437) scale(0.1 -0.1)">
       <defs>
        <path id="DejaVuSans-38" d="M 2034 2216 
Q 1584 2216 1326 1975 
Q 1069 1734 1069 1313 
Q 1069 891 1326 650 
Q 1584 409 2034 409 
Q 2484 409 2743 651 
Q 3003 894 3003 1313 
Q 3003 1734 2745 1975 
Q 2488 2216 2034 2216 
z
M 1403 2484 
Q 997 2584 770 2862 
Q 544 3141 544 3541 
Q 544 4100 942 4425 
Q 1341 4750 2034 4750 
Q 2731 4750 3128 4425 
Q 3525 4100 3525 3541 
Q 3525 3141 3298 2862 
Q 3072 2584 2669 2484 
Q 3125 2378 3379 2068 
Q 3634 1759 3634 1313 
Q 3634 634 3220 271 
Q 2806 -91 2034 -91 
Q 1263 -91 848 271 
Q 434 634 434 1313 
Q 434 1759 690 2068 
Q 947 2378 1403 2484 
z
M 1172 3481 
Q 1172 3119 1398 2916 
Q 1625 2713 2034 2713 
Q 2441 2713 2670 2916 
Q 2900 3119 2900 3481 
Q 2900 3844 2670 4047 
Q 2441 4250 2034 4250 
Q 1625 4250 1398 4047 
Q 1172 3844 1172 3481 
z
" transform="scale(0.015625)"/>
       </defs>
       <use xlink:href="#DejaVuSans-38"/>
      </g>
     </g>
    </g>
    <g id="xtick_6">
     <g id="line2d_11">
      <path d="M 602.318485 221.272 
L 602.318485 41.856 
" clip-path="url(#pca40eb2e16)" style="fill: none; stroke: #b0b0b0; stroke-opacity: 0.25; stroke-width: 0.8; stroke-linecap: square"/>
     </g>
     <g id="line2d_12">
      <g>
       <use xlink:href="#mbd506fdae8" x="602.318485" y="221.272" style="stroke: #000000; stroke-width: 0.8"/>
      </g>
     </g>
     <g id="text_6">
      <!-- 10 -->
      <g transform="translate(595.955985 235.870437) scale(0.1 -0.1)">
       <defs>
        <path id="DejaVuSans-31" d="M 794 531 
L 1825 531 
L 1825 4091 
L 703 3866 
L 703 4441 
L 1819 4666 
L 2450 4666 
L 2450 531 
L 3481 531 
L 3481 0 
L 794 0 
L 794 531 
z
" transform="scale(0.015625)"/>
       </defs>
       <use xlink:href="#DejaVuSans-31"/>
       <use xlink:href="#DejaVuSans-30" transform="translate(63.623047 0)"/>
      </g>
     </g>
    </g>
    <g id="text_7">
     <!-- t [arb.] -->
     <g transform="translate(324.936762 249.548563) scale(0.1 -0.1)">
      <defs>
       <path id="DejaVuSans-74" d="M 1172 4494 
L 1172 3500 
L 2356 3500 
L 2356 3053 
L 1172 3053 
L 1172 1153 
Q 1172 725 1289 603 
Q 1406 481 1766 481 
L 2356 481 
L 2356 0 
L 1766 0 
Q 1100 0 847 248 
Q 594 497 594 1153 
L 594 3053 
L 172 3053 
L 172 3500 
L 594 3500 
L 594 4494 
L 1172 4494 
z
" transform="scale(0.015625)"/>
       <path id="DejaVuSans-20" transform="scale(0.015625)"/>
       <path id="DejaVuSans-5b" d="M 550 4863 
L 1875 4863 
L 1875 4416 
L 1125 4416 
L 1125 -397 
L 1875 -397 
L 1875 -844 
L 550 -844 
L 550 4863 
z
" transform="scale(0.015625)"/>
       <path id="DejaVuSans-61" d="M 2194 1759 
Q 1497 1759 1228 1600 
Q 959 1441 959 1056 
Q 959 750 1161 570 
Q 1363 391 1709 391 
Q 2188 391 2477 730 
Q 2766 1069 2766 1631 
L 2766 1759 
L 2194 1759 
z
M 3341 1997 
L 3341 0 
L 2766 0 
L 2766 531 
Q 2569 213 2275 61 
Q 1981 -91 1556 -91 
Q 1019 -91 701 211 
Q 384 513 384 1019 
Q 384 1609 779 1909 
Q 1175 2209 1959 2209 
L 2766 2209 
L 2766 2266 
Q 2766 2663 2505 2880 
Q 2244 3097 1772 3097 
Q 1472 3097 1187 3025 
Q 903 2953 641 2809 
L 641 3341 
Q 956 3463 1253 3523 
Q 1550 3584 1831 3584 
Q 2591 3584 2966 3190 
Q 3341 2797 3341 1997 
z
" transform="scale(0.015625)"/>
       <path id="DejaVuSans-72" d="M 2631 2963 
Q 2534 3019 2420 3045 
Q 2306 3072 2169 3072 
Q 1681 3072 1420 2755 
Q 1159 2438 1159 1844 
L 1159 0 
L 581 0 
L 581 3500 
L 1159 3500 
L 1159 2956 
Q 1341 3275 1631 3429 
Q 1922 3584 2338 3584 
Q 2397 3584 2469 3576 
Q 2541 3569 2628 3553 
L 2631 2963 
z
" transform="scale(0.015625)"/>
       <path id="DejaVuSans-62" d="M 3116 1747 
Q 3116 2381 2855 2742 
Q 2594 3103 2138 3103 
Q 1681 3103 1420 2742 
Q 1159 2381 1159 1747 
Q 1159 1113 1420 752 
Q 1681 391 2138 391 
Q 2594 391 2855 752 
Q 3116 1113 3116 1747 
z
M 1159 2969 
Q 1341 3281 1617 3432 
Q 1894 3584 2278 3584 
Q 2916 3584 3314 3078 
Q 3713 2572 3713 1747 
Q 3713 922 3314 415 
Q 2916 -91 2278 -91 
Q 1894 -91 1617 61 
Q 1341 213 1159 525 
L 1159 0 
L 581 0 
L 581 4863 
L 1159 4863 
L 1159 2969 
z
" transform="scale(0.015625)"/>
       <path id="DejaVuSans-2e" d="M 684 794 
L 1344 794 
L 1344 0 
L 684 0 
L 684 794 
z
" transform="scale(0.015625)"/>
       <path id="DejaVuSans-5d" d="M 1947 4863 
L 1947 -844 
L 622 -844 
L 622 -397 
L 1369 -397 
L 1369 4416 
L 622 4416 
L 622 4863 
L 1947 4863 
z
" transform="scale(0.015625)"/>
      </defs>
      <use xlink:href="#DejaVuSans-74"/>
      <use xlink:href="#DejaVuSans-20" transform="translate(39.208984 0)"/>
      <use xlink:href="#DejaVuSans-5b" transform="translate(70.996094 0)"/>
      <use xlink:href="#DejaVuSans-61" transform="translate(110.009766 0)"/>
      <use xlink:href="#DejaVuSans-72" transform="translate(171.289062 0)"/>
      <use xlink:href="#DejaVuSans-62" transform="translate(212.402344 0)"/>
      <use xlink:href="#DejaVuSans-2e" transform="translate(275.878906 0)"/>
      <use xlink:href="#DejaVuSans-5d" transform="translate(307.666016 0)"/>
     </g>
    </g>
   </g>
   <g id="matplotlib.axis_2">
    <g id="ytick_1">
     <g id="line2d_13">
      <path d="M 56.357054 208.61752 
L 628.183658 208.61752 
" clip-path="url(#pca40eb2e16)" style="fill: none; stroke: #b0b0b0; stroke-opacity: 0.25; stroke-width: 0.8; stroke-linecap: square"/>
     </g>
     <g id="line2d_14">
      <defs>
       <path id="m076234c499" d="M 0 0 
L -3.5 0 
" style="stroke: #000000; stroke-width: 0.8"/>
      </defs>
      <g>
       <use xlink:href="#m076234c499" x="56.357054" y="208.61752" style="stroke: #000000; stroke-width: 0.8"/>
      </g>
     </g>
     <g id="text_8">
      <!-- −1.5 -->
      <g transform="translate(25.074241 212.416739) scale(0.1 -0.1)">
       <defs>
        <path id="DejaVuSans-2212" d="M 678 2272 
L 4684 2272 
L 4684 1741 
L 678 1741 
L 678 2272 
z
" transform="scale(0.015625)"/>
        <path id="DejaVuSans-35" d="M 691 4666 
L 3169 4666 
L 3169 4134 
L 1269 4134 
L 1269 2991 
Q 1406 3038 1543 3061 
Q 1681 3084 1819 3084 
Q 2600 3084 3056 2656 
Q 3513 2228 3513 1497 
Q 3513 744 3044 326 
Q 2575 -91 1722 -91 
Q 1428 -91 1123 -41 
Q 819 9 494 109 
L 494 744 
Q 775 591 1075 516 
Q 1375 441 1709 441 
Q 2250 441 2565 725 
Q 2881 1009 2881 1497 
Q 2881 1984 2565 2268 
Q 2250 2553 1709 2553 
Q 1456 2553 1204 2497 
Q 953 2441 691 2322 
L 691 4666 
z
" transform="scale(0.015625)"/>
       </defs>
       <use xlink:href="#DejaVuSans-2212"/>
       <use xlink:href="#DejaVuSans-31" transform="translate(83.789062 0)"/>
       <use xlink:href="#DejaVuSans-2e" transform="translate(147.412109 0)"/>
       <use xlink:href="#DejaVuSans-35" transform="translate(179.199219 0)"/>
      </g>
     </g>
    </g>
    <g id="ytick_2">
     <g id="line2d_15">
      <path d="M 56.357054 182.136274 
L 628.183658 182.136274 
" clip-path="url(#pca40eb2e16)" style="fill: none; stroke: #b0b0b0; stroke-opacity: 0.25; stroke-width: 0.8; stroke-linecap: square"/>
     </g>
     <g id="line2d_16">
      <g>
       <use xlink:href="#m076234c499" x="56.357054" y="182.136274" style="stroke: #000000; stroke-width: 0.8"/>
      </g>
     </g>
     <g id="text_9">
      <!-- −1.0 -->
      <g transform="translate(25.074241 185.935493) scale(0.1 -0.1)">
       <use xlink:href="#DejaVuSans-2212"/>
       <use xlink:href="#DejaVuSans-31" transform="translate(83.789062 0)"/>
       <use xlink:href="#DejaVuSans-2e" transform="translate(147.412109 0)"/>
       <use xlink:href="#DejaVuSans-30" transform="translate(179.199219 0)"/>
      </g>
     </g>
    </g>
    <g id="ytick_3">
     <g id="line2d_17">
      <path d="M 56.357054 155.655029 
L 628.183658 155.655029 
" clip-path="url(#pca40eb2e16)" style="fill: none; stroke: #b0b0b0; stroke-opacity: 0.25; stroke-width: 0.8; stroke-linecap: square"/>
     </g>
     <g id="line2d_18">
      <g>
       <use xlink:href="#m076234c499" x="56.357054" y="155.655029" style="stroke: #000000; stroke-width: 0.8"/>
      </g>
     </g>
     <g id="text_10">
      <!-- −0.5 -->
      <g transform="translate(25.074241 159.454247) scale(0.1 -0.1)">
       <use xlink:href="#DejaVuSans-2212"/>
       <use xlink:href="#DejaVuSans-30" transform="translate(83.789062 0)"/>
       <use xlink:href="#DejaVuSans-2e" transform="translate(147.412109 0)"/>
       <use xlink:href="#DejaVuSans-35" transform="translate(179.199219 0)"/>
      </g>
     </g>
    </g>
    <g id="ytick_4">
     <g id="line2d_19">
      <path d="M 56.357054 129.173783 
L 628.183658 129.173783 
" clip-path="url(#pca40eb2e16)" style="fill: none; stroke: #b0b0b0; stroke-opacity: 0.25; stroke-width: 0.8; stroke-linecap: square"/>
     </g>
     <g id="line2d_20">
      <g>
       <use xlink:href="#m076234c499" x="56.357054" y="129.173783" style="stroke: #000000; stroke-width: 0.8"/>
      </g>
     </g>
     <g id="text_11">
      <!-- 0.0 -->
      <g transform="translate(33.453929 132.973002) scale(0.1 -0.1)">
       <use xlink:href="#DejaVuSans-30"/>
       <use xlink:href="#DejaVuSans-2e" transform="translate(63.623047 0)"/>
       <use xlink:href="#DejaVuSans-30" transform="translate(95.410156 0)"/>
      </g>
     </g>
    </g>
    <g id="ytick_5">
     <g id="line2d_21">
      <path d="M 56.357054 102.692538 
L 628.183658 102.692538 
" clip-path="url(#pca40eb2e16)" style="fill: none; stroke: #b0b0b0; stroke-opacity: 0.25; stroke-width: 0.8; stroke-linecap: square"/>
     </g>
     <g id="line2d_22">
      <g>
       <use xlink:href="#m076234c499" x="56.357054" y="102.692538" style="stroke: #000000; stroke-width: 0.8"/>
      </g>
     </g>
     <g id="text_12">
      <!-- 0.5 -->
      <g transform="translate(33.453929 106.491756) scale(0.1 -0.1)">
       <use xlink:href="#DejaVuSans-30"/>
       <use xlink:href="#DejaVuSans-2e" transform="translate(63.623047 0)"/>
       <use xlink:href="#DejaVuSans-35" transform="translate(95.410156 0)"/>
      </g>
     </g>
    </g>
    <g id="ytick_6">
     <g id="line2d_23">
      <path d="M 56.357054 76.211292 
L 628.183658 76.211292 
" clip-path="url(#pca40eb2e16)" style="fill: none; stroke: #b0b0b0; stroke-opacity: 0.25; stroke-width: 0.8; stroke-linecap: square"/>
     </g>
     <g id="line2d_24">
      <g>
       <use xlink:href="#m076234c499" x="56.357054" y="76.211292" style="stroke: #000000; stroke-width: 0.8"/>
      </g>
     </g>
     <g id="text_13">
      <!-- 1.0 -->
      <g transform="translate(33.453929 80.010511) scale(0.1 -0.1)">
       <use xlink:href="#DejaVuSans-31"/>
       <use xlink:href="#DejaVuSans-2e" transform="translate(63.623047 0)"/>
       <use xlink:href="#DejaVuSans-30" transform="translate(95.410156 0)"/>
      </g>
     </g>
    </g>
    <g id="ytick_7">
     <g id="line2d_25">
      <path d="M 56.357054 49.730047 
L 628.183658 49.730047 
" clip-path="url(#pca40eb2e16)" style="fill: none; stroke: #b0b0b0; stroke-opacity: 0.25; stroke-width: 0.8; stroke-linecap: square"/>
     </g>
     <g id="line2d_26">
      <g>
       <use xlink:href="#m076234c499" x="56.357054" y="49.730047" style="stroke: #000000; stroke-width: 0.8"/>
      </g>
     </g>
     <g id="text_14">
      <!-- 1.5 -->
      <g transform="translate(33.453929 53.529265) scale(0.1 -0.1)">
       <use xlink:href="#DejaVuSans-31"/>
       <use xlink:href="#DejaVuSans-2e" transform="translate(63.623047 0)"/>
       <use xlink:href="#DejaVuSans-35" transform="translate(95.410156 0)"/>
      </g>
     </g>
    </g>
    <g id="text_15">
     <!-- [arb.] -->
     <g transform="translate(18.994554 145.348375) rotate(-90) scale(0.1 -0.1)">
      <use xlink:href="#DejaVuSans-5b"/>
      <use xlink:href="#DejaVuSans-61" transform="translate(39.013672 0)"/>
      <use xlink:href="#DejaVuSans-72" transform="translate(100.292969 0)"/>
      <use xlink:href="#DejaVuSans-62" transform="translate(141.40625 0)"/>
      <use xlink:href="#DejaVuSans-2e" transform="translate(204.882812 0)"/>
      <use xlink:href="#DejaVuSans-5d" transform="translate(236.669922 0)"/>
     </g>
    </g>
   </g>
   <g id="line2d_27">
    <path d="M 82.349172 129.173783 
L 86.157541 97.289009 
L 88.188671 82.175571 
L 89.838965 71.550122 
L 91.235367 63.995778 
L 92.377877 58.926101 
L 93.393442 55.328592 
L 94.282062 52.919052 
L 95.043736 51.42047 
L 95.678464 50.579371 
L 96.313192 50.113301 
L 96.820974 50.012022 
L 97.328757 50.152528 
L 97.836539 50.534392 
L 98.471268 51.349282 
L 99.105996 52.535529 
L 99.86767 54.441121 
L 100.756289 57.312097 
L 101.771854 61.414011 
L 102.914365 67.014548 
L 104.183821 74.359195 
L 105.707169 84.5384 
L 107.611353 98.948293 
L 110.150266 120.059104 
L 115.355037 163.688988 
L 117.259221 177.611288 
L 118.782569 187.281982 
L 120.178971 194.752149 
L 121.321482 199.745992 
L 122.337047 203.271846 
L 123.225666 205.616125 
L 123.98734 207.05735 
L 124.622068 207.84995 
L 125.129851 208.21385 
L 125.637633 208.336336 
L 126.145416 208.217033 
L 126.653198 207.856305 
L 127.287926 207.067642 
L 127.922654 205.907293 
L 128.684328 204.032166 
L 129.572948 201.195626 
L 130.588513 197.131217 
L 131.731023 191.569967 
L 133.00048 184.264654 
L 134.523827 174.12564 
L 136.301066 160.759694 
L 138.839979 139.754682 
L 144.298641 94.020963 
L 146.202826 80.176611 
L 147.726173 70.585721 
L 149.122575 63.200333 
L 150.265086 58.282726 
L 151.280651 54.82881 
L 152.16927 52.54998 
L 152.930944 51.166229 
L 153.565672 50.422191 
L 154.073455 50.097411 
L 154.581237 50.014157 
L 155.08902 50.172682 
L 155.596802 50.572502 
L 156.231531 51.409669 
L 156.866259 52.617904 
L 157.627933 54.549354 
L 158.516552 57.449546 
L 159.532117 61.58326 
L 160.674628 67.217083 
L 161.944084 74.595027 
L 163.467432 84.808201 
L 165.371616 99.250059 
L 168.037475 121.471164 
L 172.861409 162.004306 
L 174.765593 176.125628 
L 176.415886 186.757931 
L 177.812288 194.319077 
L 178.954799 199.394889 
L 179.970364 202.998198 
L 180.858983 205.413025 
L 181.620657 206.916255 
L 182.255385 207.761285 
L 182.890114 208.23132 
L 183.397896 208.335782 
L 183.905679 208.198458 
L 184.413461 207.819766 
L 185.048189 207.00881 
L 185.682917 205.826449 
L 186.444591 203.925426 
L 187.333211 201.059613 
L 188.348776 196.963322 
L 189.491286 191.368674 
L 190.760743 184.029919 
L 192.28409 173.856731 
L 194.188275 159.452507 
L 196.727188 138.345683 
L 201.931959 94.71043 
L 203.836143 80.781855 
L 205.359491 71.10472 
L 206.755893 63.627702 
L 207.898403 58.627691 
L 208.913968 55.096014 
L 209.802588 52.746433 
L 210.564262 51.300551 
L 211.19899 50.504013 
L 211.706772 50.136941 
L 212.214555 50.011273 
L 212.722337 50.127393 
L 213.23012 50.484947 
L 213.864848 51.269673 
L 214.499576 52.426133 
L 215.26125 54.296684 
L 216.149869 57.12805 
L 217.165434 61.186822 
L 218.307945 66.742164 
L 219.577401 74.041559 
L 221.100749 84.174521 
L 222.877988 97.535059 
L 225.416901 118.535798 
L 230.875563 164.274979 
L 232.779747 178.125696 
L 234.303095 187.72309 
L 235.699497 195.115378 
L 236.842008 200.039185 
L 237.857573 203.498948 
L 238.746192 205.783094 
L 239.507866 207.171512 
L 240.142594 207.919492 
L 240.650377 208.247447 
L 241.158159 208.333884 
L 241.665942 208.178541 
L 242.173724 207.781891 
L 242.808452 206.948656 
L 243.44318 205.744303 
L 244.204854 203.817417 
L 245.093474 200.92238 
L 246.109039 196.794277 
L 247.251549 191.166324 
L 248.521006 183.794251 
L 250.044353 173.587063 
L 251.948538 159.150832 
L 254.487451 138.021578 
L 259.565276 95.403137 
L 261.46946 81.39165 
L 262.992808 71.62918 
L 264.38921 64.061235 
L 265.531721 58.979291 
L 266.547286 55.370183 
L 267.435905 52.950072 
L 268.197579 51.442195 
L 268.832307 50.593233 
L 269.467035 50.119234 
L 269.974818 50.011589 
L 270.4826 50.145731 
L 270.990383 50.521251 
L 271.625111 51.328271 
L 272.259839 52.506747 
L 273.021513 54.403199 
L 273.910132 57.263847 
L 274.925697 61.354513 
L 276.068208 66.943271 
L 277.337664 74.27613 
L 278.861012 84.443295 
L 280.765197 98.841841 
L 283.304109 119.944668 
L 288.50888 163.585267 
L 290.413065 177.520109 
L 291.936412 187.203679 
L 293.332814 194.687545 
L 294.475325 199.69372 
L 295.49089 203.23122 
L 296.379509 205.586102 
L 297.141183 207.036641 
L 297.775911 207.837115 
L 298.283694 208.20736 
L 298.791476 208.33621 
L 299.299259 208.223272 
L 299.807042 207.868891 
L 300.44177 207.088104 
L 301.076498 205.935533 
L 301.838172 204.069559 
L 302.726791 201.243369 
L 303.742356 197.190236 
L 304.884867 191.640804 
L 306.154323 184.347332 
L 307.677671 174.220428 
L 309.45491 160.865305 
L 311.866877 140.951652 
L 317.57943 93.146781 
L 319.483615 79.411688 
L 321.006962 69.932057 
L 322.276419 63.264079 
L 323.418929 58.334074 
L 324.434494 54.868467 
L 325.323114 52.579005 
L 326.084788 51.185921 
L 326.719516 50.433999 
L 327.227298 50.10287 
L 327.735081 50.013249 
L 328.242863 50.165411 
L 328.750646 50.55889 
L 329.385374 51.388192 
L 330.020102 52.588663 
L 330.781776 54.510984 
L 331.670395 57.400864 
L 332.68596 61.523355 
L 333.828471 67.145434 
L 335.097927 74.511633 
L 336.621275 84.71283 
L 338.52546 99.143427 
L 341.064372 120.268746 
L 346.142198 162.892319 
L 348.046382 176.909975 
L 349.56973 186.678811 
L 350.966132 194.253551 
L 352.108642 199.341624 
L 353.124207 202.956529 
L 354.012827 205.381924 
L 354.774501 206.894448 
L 355.409229 207.74734 
L 356.043957 208.225303 
L 356.551739 208.336131 
L 357.059522 208.205171 
L 357.567305 207.832823 
L 358.202033 207.029739 
L 358.836761 205.855149 
L 359.598435 203.963268 
L 360.487054 201.107788 
L 361.502619 197.022749 
L 362.64513 191.439885 
L 363.914586 184.112926 
L 365.437934 173.951788 
L 367.342118 159.558927 
L 369.881031 138.46011 
L 375.085802 94.814188 
L 376.989986 80.873085 
L 378.513334 71.183085 
L 379.909736 63.692376 
L 381.052247 58.680038 
L 382.067812 55.136718 
L 382.956431 52.776537 
L 383.718105 51.321342 
L 384.352833 50.516932 
L 384.860616 50.143515 
L 385.368398 50.011482 
L 385.876181 50.121238 
L 386.383963 50.472445 
L 387.018691 51.249294 
L 387.65342 52.397975 
L 388.415093 54.25937 
L 389.303713 57.080383 
L 390.319278 61.127875 
L 391.461789 66.671393 
L 392.731245 73.95894 
L 394.254592 84.07978 
L 396.031831 97.429482 
L 398.443798 117.338952 
L 404.156352 165.149482 
L 406.060536 178.891063 
L 407.583884 188.377284 
L 408.85334 195.051562 
L 409.995851 199.987761 
L 411.011416 203.459212 
L 411.900035 205.753988 
L 412.661709 207.151738 
L 413.296437 207.907601 
L 413.80422 208.241905 
L 414.312002 208.334708 
L 414.819785 208.185728 
L 415.327568 207.79542 
L 415.962296 206.970052 
L 416.597024 205.773463 
L 417.358698 203.855707 
L 418.247317 200.970986 
L 419.262882 196.854109 
L 420.405393 191.237908 
L 421.674849 183.877587 
L 423.198197 173.682387 
L 425.102381 159.257432 
L 427.641294 138.136059 
L 432.719119 95.507376 
L 434.623304 81.483558 
L 436.146651 71.70836 
L 437.543053 64.12683 
L 438.685564 59.03263 
L 439.701129 55.411931 
L 440.589748 52.981254 
L 441.351422 51.464084 
L 441.98615 50.607261 
L 442.620879 50.125334 
L 443.128661 50.011324 
L 443.636444 50.139101 
L 444.144226 50.508277 
L 444.778954 51.307425 
L 445.413683 52.478128 
L 446.175356 54.365436 
L 447.063976 57.215748 
L 448.079541 61.295158 
L 449.222052 66.872126 
L 450.491508 74.19318 
L 452.014855 84.348286 
L 453.91904 98.735454 
L 456.457953 119.830251 
L 461.662724 163.481473 
L 463.566908 177.428827 
L 465.090256 187.125253 
L 466.486658 194.622802 
L 467.629168 199.641299 
L 468.644733 203.190438 
L 469.533353 205.555916 
L 470.295027 207.015767 
L 470.929755 207.824113 
L 471.564483 208.257163 
L 472.072265 208.331941 
L 472.580048 208.164943 
L 473.087831 207.756681 
L 473.722559 206.909043 
L 474.357287 205.690476 
L 475.118961 203.746878 
L 476.00758 200.832964 
L 477.023145 196.684321 
L 478.165656 191.034877 
L 479.435112 183.64132 
L 480.95846 173.412231 
L 482.862644 158.955427 
L 485.528503 136.723709 
L 490.352437 96.203729 
L 492.256621 82.098515 
L 493.906914 71.484477 
L 495.303316 63.941455 
L 496.445827 58.881985 
L 497.461392 55.294128 
L 498.350011 52.893381 
L 499.111685 51.402531 
L 499.746413 50.567971 
L 500.381142 50.108496 
L 500.888924 50.012509 
L 501.396707 50.158307 
L 501.904489 50.545445 
L 502.539217 51.366879 
L 503.173946 52.559584 
L 503.935619 54.472773 
L 504.824239 57.352335 
L 505.839804 61.463594 
L 506.982315 67.073916 
L 508.251771 74.428354 
L 509.775118 84.617552 
L 511.679303 99.036858 
L 514.218216 120.154274 
L 519.296041 162.788045 
L 521.200225 176.818016 
L 522.850519 187.346999 
L 524.246921 194.805762 
L 525.389431 199.789343 
L 526.404996 203.305508 
L 527.293616 205.640967 
L 528.05529 207.074444 
L 528.690018 207.860496 
L 529.1978 208.21912 
L 529.705583 208.336313 
L 530.213365 208.211717 
L 530.721148 207.845714 
L 531.355876 207.050503 
L 531.990604 205.883687 
L 532.752278 204.000952 
L 533.640897 201.155811 
L 534.656463 197.082032 
L 535.798973 191.510964 
L 537.06843 184.195817 
L 538.591777 174.04675 
L 540.495962 159.665282 
L 543.034874 138.574517 
L 548.239645 94.918018 
L 550.14383 80.964418 
L 551.667177 71.261573 
L 553.063579 63.757188 
L 554.20609 58.732534 
L 555.221655 55.177579 
L 556.110274 52.806804 
L 556.871948 51.342298 
L 557.506676 50.530017 
L 558.141405 50.093 
L 558.649187 50.015039 
L 559.15697 50.178855 
L 559.664752 50.583948 
L 560.29948 51.427654 
L 560.934209 52.642342 
L 561.695882 54.581379 
L 562.584502 57.490141 
L 563.600067 61.63318 
L 564.742578 67.276761 
L 566.012034 74.664458 
L 567.535381 84.887576 
L 569.439566 99.338774 
L 572.105424 121.566516 
L 576.929358 162.091456 
L 578.833543 176.202725 
L 580.483836 186.823627 
L 581.880238 194.373458 
L 583.022749 199.439066 
L 584.038314 203.032728 
L 584.926933 205.438763 
L 585.688607 206.934262 
L 586.323335 207.772754 
L 586.958063 208.236195 
L 587.465846 208.335364 
L 587.973628 208.192748 
L 588.481411 207.808782 
L 589.116139 206.991282 
L 589.750867 205.802461 
L 590.512541 203.893839 
L 591.40116 201.019439 
L 592.416726 196.913799 
L 593.559236 191.30936 
L 594.828693 183.960808 
L 596.35204 173.777617 
L 598.256225 159.363969 
L 600.795137 138.250521 
L 602.191539 126.238428 
L 602.191539 126.238428 
" clip-path="url(#pca40eb2e16)" style="fill: none; stroke: #1f77b4; stroke-width: 1.5; stroke-linecap: square"/>
   </g>
   <g id="line2d_28">
    <path d="M 82.349172 129.173783 
L 85.015031 107.124951 
L 86.919215 93.088246 
L 88.442563 83.340444 
L 89.838965 75.803414 
L 90.981475 70.753206 
L 91.99704 67.173213 
L 92.88566 64.776687 
L 93.647334 63.285981 
L 94.282062 62.448217 
L 94.91679 61.981837 
L 95.424572 61.877252 
L 95.932355 62.011393 
L 96.440138 62.383528 
L 97.074866 63.181089 
L 97.709594 64.343764 
L 98.471268 66.212138 
L 99.359887 69.026394 
L 100.375452 73.044624 
L 101.517963 78.52537 
L 102.787419 85.703383 
L 104.310767 95.634387 
L 106.214951 109.659325 
L 108.88081 131.184545 
L 113.577798 169.243182 
L 115.481982 182.824565 
L 117.00533 192.289517 
L 118.401732 199.62332 
L 119.544243 204.541911 
L 120.559808 208.027319 
L 121.448427 210.35572 
L 122.210101 211.797111 
L 122.844829 212.599066 
L 123.479557 213.033532 
L 123.98734 213.114812 
L 124.495122 212.958864 
L 125.002905 212.56598 
L 125.637633 211.743297 
L 126.272361 210.555611 
L 127.034035 208.656186 
L 127.922654 205.802474 
L 128.93822 201.73222 
L 130.08073 196.180396 
L 131.350187 188.902998 
L 132.873534 178.817467 
L 134.777719 164.534598 
L 137.316631 143.588298 
L 142.648348 99.180139 
L 144.552532 85.369956 
L 146.07588 75.776837 
L 147.472282 68.363211 
L 148.614793 63.40249 
L 149.630358 59.894524 
L 150.518977 57.556031 
L 151.280651 56.111908 
L 151.915379 55.311074 
L 152.550107 54.880182 
L 153.05789 54.803125 
L 153.565672 54.964173 
L 154.073455 55.362727 
L 154.708183 56.19283 
L 155.342911 57.387752 
L 156.104585 59.294789 
L 156.993204 62.154651 
L 158.00877 66.226466 
L 159.15128 71.770479 
L 160.420737 79.023947 
L 161.944084 89.054742 
L 163.848269 103.221806 
L 166.514127 124.984141 
L 171.338061 164.550776 
L 173.242245 178.277323 
L 174.765593 187.845749 
L 176.161995 195.26551 
L 177.304506 200.248792 
L 178.320071 203.787936 
L 179.20869 206.160797 
L 179.970364 207.63863 
L 180.605092 208.469926 
L 181.23982 208.932916 
L 181.747603 209.036504 
L 182.255385 208.902472 
L 182.763168 208.531169 
L 183.397896 207.735082 
L 184.032624 206.57367 
L 184.794298 204.705509 
L 185.682917 201.88814 
L 186.698483 197.8596 
L 187.840993 192.355422 
L 189.11045 185.132498 
L 190.633797 175.115386 
L 192.537982 160.92416 
L 195.076894 140.113008 
L 200.281665 97.014059 
L 202.18585 83.224001 
L 203.709197 73.625704 
L 205.105599 66.192891 
L 206.24811 61.207717 
L 207.263675 57.672503 
L 208.152295 55.306691 
L 208.913968 53.837093 
L 209.548696 53.013905 
L 210.183425 52.559903 
L 210.691207 52.463983 
L 211.19899 52.605975 
L 211.706772 52.985411 
L 212.3415 53.791724 
L 212.976229 54.963209 
L 213.737902 56.842933 
L 214.626522 59.672577 
L 215.642087 63.712812 
L 216.784598 69.226149 
L 218.054054 76.452968 
L 219.577401 86.464128 
L 221.481586 100.628681 
L 224.020499 121.366285 
L 229.098324 163.200287 
L 231.002508 176.951573 
L 232.525856 186.530275 
L 233.922258 193.952949 
L 235.064769 198.934628 
L 236.080334 202.469807 
L 236.968953 204.837567 
L 237.730627 206.31004 
L 238.365355 207.136311 
L 239.000083 207.593884 
L 239.507866 207.692927 
L 240.015648 207.554224 
L 240.523431 207.178178 
L 241.158159 206.376145 
L 241.792887 205.208869 
L 242.554561 203.333926 
L 243.44318 200.509224 
L 244.458746 196.473402 
L 245.601256 190.962902 
L 246.870713 183.735881 
L 248.39406 173.718792 
L 250.298245 159.536521 
L 252.837157 138.754917 
L 258.041928 95.784343 
L 259.946113 82.06288 
L 261.46946 72.526512 
L 262.865862 65.1551 
L 264.008373 60.222843 
L 265.023938 56.736242 
L 265.912558 54.413864 
L 266.674231 52.981946 
L 267.308959 52.190342 
L 267.943688 51.767981 
L 268.45147 51.697346 
L 268.959253 51.86454 
L 269.467035 52.269041 
L 270.101763 53.106411 
L 270.736492 54.308554 
L 271.498165 56.224398 
L 272.386785 59.095038 
L 273.40235 63.180296 
L 274.544861 68.741505 
L 275.814317 76.017483 
L 277.337664 86.081202 
L 279.241849 100.300324 
L 281.907707 122.159138 
L 286.731641 161.976191 
L 288.635826 175.827147 
L 290.286119 186.244247 
L 291.682521 193.642404 
L 292.825032 198.600596 
L 293.840597 202.112768 
L 294.729216 204.459081 
L 295.49089 205.912412 
L 296.125618 206.722333 
L 296.760346 207.163307 
L 297.268129 207.248963 
L 297.775911 207.096835 
L 298.283694 206.707381 
L 298.918422 205.888697 
L 299.55315 204.704987 
L 300.314824 202.810756 
L 301.203443 199.964372 
L 302.219009 195.905181 
L 303.361519 190.37065 
L 304.630976 183.120328 
L 306.154323 173.080856 
L 308.058508 158.880472 
L 310.59742 138.09388 
L 315.675246 96.15655 
L 317.57943 82.364747 
L 319.102778 72.753117 
L 320.49918 65.299993 
L 321.64169 60.293309 
L 322.657255 56.735908 
L 323.545875 54.348758 
L 324.307549 52.85974 
L 324.942277 52.019758 
L 325.577005 51.548559 
L 326.084788 51.43869 
L 326.59257 51.566643 
L 327.100353 51.932022 
L 327.735081 52.720853 
L 328.369809 53.87509 
L 329.131483 55.734623 
L 330.020102 58.541711 
L 331.035667 62.557937 
L 332.178178 68.047145 
L 333.447634 75.251541 
L 334.970982 85.24305 
L 336.875166 99.395962 
L 339.414079 120.143256 
L 344.61885 163.061262 
L 346.523034 176.769139 
L 348.046382 186.296549 
L 349.442784 193.661072 
L 350.585295 198.588514 
L 351.60086 202.071371 
L 352.489479 204.390826 
L 353.251153 205.820461 
L 353.885881 206.610294 
L 354.520609 207.030982 
L 355.028392 207.100337 
L 355.536174 206.931904 
L 356.043957 206.526196 
L 356.678685 205.687344 
L 357.313413 204.483732 
L 358.075087 202.566118 
L 358.963706 199.693358 
L 359.979272 195.605549 
L 361.121782 190.041219 
L 362.391239 182.761355 
L 363.914586 172.692235 
L 365.818771 158.464988 
L 368.484629 136.591806 
L 373.308563 96.739088 
L 375.212748 82.87079 
L 376.863041 72.437405 
L 378.259443 65.024717 
L 379.401953 60.054232 
L 380.417518 56.530908 
L 381.306138 54.174718 
L 382.067812 52.712869 
L 382.70254 51.895837 
L 383.337268 51.44776 
L 383.845051 51.35644 
L 384.352833 51.502929 
L 384.860616 51.886779 
L 385.495344 52.698522 
L 386.130072 53.875378 
L 386.891746 55.761525 
L 387.780365 58.598709 
L 388.79593 62.647747 
L 389.938441 68.171396 
L 391.207897 75.410398 
L 392.731245 85.437502 
L 394.635429 99.624511 
L 397.174342 120.397223 
L 402.252167 162.320989 
L 404.156352 176.112336 
L 405.679699 185.725179 
L 407.076101 193.180486 
L 408.218612 198.189606 
L 409.234177 201.749581 
L 410.122797 204.139242 
L 410.88447 205.630564 
L 411.519199 206.472549 
L 412.153927 206.945806 
L 412.661709 207.05735 
L 413.169492 206.931085 
L 413.677274 206.567398 
L 414.312002 205.780673 
L 414.946731 204.628516 
L 415.708404 202.771415 
L 416.597024 199.967039 
L 417.612589 195.95369 
L 418.7551 190.467349 
L 420.024556 183.265577 
L 421.547904 173.276283 
L 423.452088 159.124473 
L 425.991001 138.375387 
L 431.195772 95.44123 
L 433.099956 81.723467 
L 434.623304 72.186845 
L 436.019706 64.813018 
L 437.162216 59.87746 
L 438.177781 56.387089 
L 439.066401 54.060884 
L 439.828075 52.625372 
L 440.462803 51.830601 
L 441.097531 51.404956 
L 441.605314 51.331635 
L 442.113096 51.496113 
L 442.620879 51.897886 
L 443.255607 52.73186 
L 443.890335 53.930657 
L 444.652009 55.842603 
L 445.540628 58.708939 
L 446.556193 62.789715 
L 447.698704 68.346601 
L 448.96816 75.618881 
L 450.491508 85.680003 
L 452.395692 99.899168 
L 455.061551 121.764999 
L 459.885485 161.616804 
L 461.789669 175.488914 
L 463.439962 185.927254 
L 464.836364 193.345163 
L 465.978875 198.320506 
L 466.99444 201.848512 
L 467.88306 204.20902 
L 468.644733 205.674697 
L 469.279462 206.494984 
L 469.91419 206.946355 
L 470.421972 207.040326 
L 470.929755 206.896492 
L 471.437537 206.515291 
L 472.072265 205.706836 
L 472.706994 204.533224 
L 473.468667 202.65089 
L 474.357287 199.817999 
L 475.372852 195.77361 
L 476.515363 190.254778 
L 477.784819 183.020514 
L 479.308167 172.998088 
L 481.212351 158.815154 
L 483.751264 138.044441 
L 488.829089 96.112151 
L 490.733274 82.313518 
L 492.383567 71.95839 
L 493.779969 64.622989 
L 494.922479 59.721994 
L 495.938044 56.264246 
L 496.826664 53.967731 
L 497.588338 52.558298 
L 498.223066 51.785568 
L 498.730848 51.43316 
L 499.238631 51.318211 
L 499.746413 51.441072 
L 500.254196 51.801369 
L 500.888924 52.583888 
L 501.523652 53.731892 
L 502.285326 55.584104 
L 503.173946 58.382947 
L 504.189511 62.390255 
L 505.332021 67.870238 
L 506.601478 75.065598 
L 508.124825 85.04825 
L 510.02901 99.193604 
L 512.567922 119.93764 
L 517.772693 162.87492 
L 519.676878 176.59812 
L 521.200225 186.140509 
L 522.596627 193.520573 
L 523.739138 198.461797 
L 524.754703 201.95755 
L 525.643323 204.288674 
L 526.404996 205.728518 
L 527.039725 206.526959 
L 527.674453 206.956305 
L 528.182235 207.032599 
L 528.690018 206.871094 
L 529.1978 206.472283 
L 529.832528 205.641985 
L 530.467257 204.446814 
L 531.22893 202.53913 
L 532.11755 199.677603 
L 533.133115 195.602052 
L 534.275626 190.050614 
L 535.545082 182.783752 
L 537.06843 172.728099 
L 538.972614 158.51396 
L 541.638472 136.651384 
L 546.462406 96.793598 
L 548.366591 82.915125 
L 550.016884 72.469693 
L 551.413286 65.044806 
L 552.555797 60.063201 
L 553.571362 56.529292 
L 554.459981 54.163415 
L 555.221655 52.693024 
L 555.856383 51.868754 
L 556.491111 51.413368 
L 556.998894 51.316175 
L 557.506676 51.45679 
L 558.014459 51.834783 
L 558.649187 52.639259 
L 559.283915 53.808942 
L 560.045589 55.686655 
L 560.934209 58.514322 
L 561.949774 62.553019 
L 563.092284 68.065882 
L 564.361741 75.29416 
L 565.885088 85.310445 
L 567.789273 99.487536 
L 570.328185 120.25399 
L 575.406011 162.190599 
L 577.310195 175.995045 
L 578.960488 186.356795 
L 580.35689 193.698782 
L 581.499401 198.60572 
L 582.514966 202.069087 
L 583.403586 204.370723 
L 584.165259 205.784657 
L 584.799988 206.561194 
L 585.30777 206.916671 
L 585.815553 207.034698 
L 586.323335 206.914915 
L 586.831118 206.557687 
L 587.465846 205.778977 
L 588.100574 204.634734 
L 588.862248 202.786948 
L 589.750867 199.993107 
L 590.766432 195.991244 
L 591.908943 190.516961 
L 593.178399 183.327301 
L 594.701747 173.350459 
L 596.478986 160.200271 
L 599.017898 139.537566 
L 602.191539 112.794411 
L 602.191539 112.794411 
" clip-path="url(#pca40eb2e16)" style="fill: none; stroke: #ff7f0e; stroke-width: 1.5; stroke-linecap: square"/>
   </g>
   <g id="patch_3">
    <path d="M 56.357054 221.272 
L 56.357054 41.856 
" style="fill: none; stroke: #000000; stroke-width: 0.8; stroke-linejoin: miter; stroke-linecap: square"/>
   </g>
   <g id="patch_4">
    <path d="M 628.183658 221.272 
L 628.183658 41.856 
" style="fill: none; stroke: #000000; stroke-width: 0.8; stroke-linejoin: miter; stroke-linecap: square"/>
   </g>
   <g id="patch_5">
    <path d="M 56.357054 221.272 
L 628.183658 221.272 
" style="fill: none; stroke: #000000; stroke-width: 0.8; stroke-linejoin: miter; stroke-linecap: square"/>
   </g>
   <g id="patch_6">
    <path d="M 56.357054 41.856 
L 628.183658 41.856 
" style="fill: none; stroke: #000000; stroke-width: 0.8; stroke-linejoin: miter; stroke-linecap: square"/>
   </g>
   <g id="text_16">
    <!-- Daily Useless RL (2026-01-18) | verdict: feral -->
    <g transform="translate(207.376293 22.021875) scale(0.12 -0.12)">
     <defs>
      <path id="DejaVuSans-44" d="M 1259 4147 
L 1259 519 
L 2022 519 
Q 2988 519 3436 956 
Q 3884 1394 3884 2338 
Q 3884 3275 3436 3711 
Q 2988 4147 2022 4147 
L 1259 4147 
z
M 628 4666 
L 1925 4666 
Q 3281 4666 3915 4102 
Q 4550 3538 4550 2338 
Q 4550 1131 3912 565 
Q 3275 0 1925 0 
L 628 0 
L 628 4666 
z
" transform="scale(0.015625)"/>
      <path id="DejaVuSans-69" d="M 603 3500 
L 1178 3500 
L 1178 0 
L 603 0 
L 603 3500 
z
M 603 4863 
L 1178 4863 
L 1178 4134 
L 603 4134 
L 603 4863 
z
" transform="scale(0.015625)"/>
      <path id="DejaVuSans-6c" d="M 603 4863 
L 1178 4863 
L 1178 0 
L 603 0 
L 603 4863 
z
" transform="scale(0.015625)"/>
      <path id="DejaVuSans-79" d="M 2059 -325 
Q 1816 -950 1584 -1140 
Q 1353 -1331 966 -1331 
L 506 -1331 
L 506 -850 
L 844 -850 
Q 1081 -850 1212 -737 
Q 1344 -625 1503 -206 
L 1606 56 
L 191 3500 
L 800 3500 
L 1894 763 
L 2988 3500 
L 3597 3500 
L 2059 -325 
z
" transform="scale(0.015625)"/>
      <path id="DejaVuSans-55" d="M 556 4666 
L 1191 4666 
L 1191 1831 
Q 1191 1081 1462 751 
Q 1734 422 2344 422 
Q 2950 422 3222 751 
Q 3494 1081 3494 1831 
L 3494 4666 
L 4128 4666 
L 4128 1753 
Q 4128 841 3676 375 
Q 3225 -91 2344 -91 
Q 1459 -91 1007 375 
Q 556 841 556 1753 
L 556 4666 
z
" transform="scale(0.015625)"/>
      <path id="DejaVuSans-73" d="M 2834 3397 
L 2834 2853 
Q 2591 2978 2328 3040 
Q 2066 3103 1784 3103 
Q 1356 3103 1142 2972 
Q 928 2841 928 2578 
Q 928 2378 1081 2264 
Q 1234 2150 1697 2047 
L 1894 2003 
Q 2506 1872 2764 1633 
Q 3022 1394 3022 966 
Q 3022 478 2636 193 
Q 2250 -91 1575 -91 
Q 1294 -91 989 -36 
Q 684 19 347 128 
L 347 722 
Q 666 556 975 473 
Q 1284 391 1588 391 
Q 1994 391 2212 530 
Q 2431 669 2431 922 
Q 2431 1156 2273 1281 
Q 2116 1406 1581 1522 
L 1381 1569 
Q 847 1681 609 1914 
Q 372 2147 372 2553 
Q 372 3047 722 3315 
Q 1072 3584 1716 3584 
Q 2034 3584 2315 3537 
Q 2597 3491 2834 3397 
z
" transform="scale(0.015625)"/>
      <path id="DejaVuSans-65" d="M 3597 1894 
L 3597 1613 
L 953 1613 
Q 991 1019 1311 708 
Q 1631 397 2203 397 
Q 2534 397 2845 478 
Q 3156 559 3463 722 
L 3463 178 
Q 3153 47 2828 -22 
Q 2503 -91 2169 -91 
Q 1331 -91 842 396 
Q 353 884 353 1716 
Q 353 2575 817 3079 
Q 1281 3584 2069 3584 
Q 2775 3584 3186 3129 
Q 3597 2675 3597 1894 
z
M 3022 2063 
Q 3016 2534 2758 2815 
Q 2500 3097 2075 3097 
Q 1594 3097 1305 2825 
Q 1016 2553 972 2059 
L 3022 2063 
z
" transform="scale(0.015625)"/>
      <path id="DejaVuSans-52" d="M 2841 2188 
Q 3044 2119 3236 1894 
Q 3428 1669 3622 1275 
L 4263 0 
L 3584 0 
L 2988 1197 
Q 2756 1666 2539 1819 
Q 2322 1972 1947 1972 
L 1259 1972 
L 1259 0 
L 628 0 
L 628 4666 
L 2053 4666 
Q 2853 4666 3247 4331 
Q 3641 3997 3641 3322 
Q 3641 2881 3436 2590 
Q 3231 2300 2841 2188 
z
M 1259 4147 
L 1259 2491 
L 2053 2491 
Q 2509 2491 2742 2702 
Q 2975 2913 2975 3322 
Q 2975 3731 2742 3939 
Q 2509 4147 2053 4147 
L 1259 4147 
z
" transform="scale(0.015625)"/>
      <path id="DejaVuSans-4c" d="M 628 4666 
L 1259 4666 
L 1259 531 
L 3531 531 
L 3531 0 
L 628 0 
L 628 4666 
z
" transform="scale(0.015625)"/>
      <path id="DejaVuSans-28" d="M 1984 4856 
Q 1566 4138 1362 3434 
Q 1159 2731 1159 2009 
Q 1159 1288 1364 580 
Q 1569 -128 1984 -844 
L 1484 -844 
Q 1016 -109 783 600 
Q 550 1309 550 2009 
Q 550 2706 781 3412 
Q 1013 4119 1484 4856 
L 1984 4856 
z
" transform="scale(0.015625)"/>
      <path id="DejaVuSans-2d" d="M 313 2009 
L 1997 2009 
L 1997 1497 
L 313 1497 
L 313 2009 
z
" transform="scale(0.015625)"/>
      <path id="DejaVuSans-29" d="M 513 4856 
L 1013 4856 
Q 1481 4119 1714 3412 
Q 1947 2706 1947 2009 
Q 1947 1309 1714 600 
Q 1481 -109 1013 -844 
L 513 -844 
Q 928 -128 1133 580 
Q 1338 1288 1338 2009 
Q 1338 2731 1133 3434 
Q 928 4138 513 4856 
z
" transform="scale(0.015625)"/>
      <path id="DejaVuSans-7c" d="M 1344 4891 
L 1344 -1509 
L 813 -1509 
L 813 4891 
L 1344 4891 
z
" transform="scale(0.015625)"/>
      <path id="DejaVuSans-76" d="M 191 3500 
L 800 3500 
L 1894 563 
L 2988 3500 
L 3597 3500 
L 2284 0 
L 1503 0 
L 191 3500 
z
" transform="scale(0.015625)"/>
      <path id="DejaVuSans-64" d="M 2906 2969 
L 2906 4863 
L 3481 4863 
L 3481 0 
L 2906 0 
L 2906 525 
Q 2725 213 2448 61 
Q 2172 -91 1784 -91 
Q 1150 -91 751 415 
Q 353 922 353 1747 
Q 353 2572 751 3078 
Q 1150 3584 1784 3584 
Q 2172 3584 2448 3432 
Q 2725 3281 2906 2969 
z
M 947 1747 
Q 947 1113 1208 752 
Q 1469 391 1925 391 
Q 2381 391 2643 752 
Q 2906 1113 2906 1747 
Q 2906 2381 2643 2742 
Q 2381 3103 1925 3103 
Q 1469 3103 1208 2742 
Q 947 2381 947 1747 
z
" transform="scale(0.015625)"/>
      <path id="DejaVuSans-63" d="M 3122 3366 
L 3122 2828 
Q 2878 2963 2633 3030 
Q 2388 3097 2138 3097 
Q 1578 3097 1268 2742 
Q 959 2388 959 1747 
Q 959 1106 1268 751 
Q 1578 397 2138 397 
Q 2388 397 2633 464 
Q 2878 531 3122 666 
L 3122 134 
Q 2881 22 2623 -34 
Q 2366 -91 2075 -91 
Q 1284 -91 818 406 
Q 353 903 353 1747 
Q 353 2603 823 3093 
Q 1294 3584 2113 3584 
Q 2378 3584 2631 3529 
Q 2884 3475 3122 3366 
z
" transform="scale(0.015625)"/>
      <path id="DejaVuSans-3a" d="M 750 794 
L 1409 794 
L 1409 0 
L 750 0 
L 750 794 
z
M 750 3309 
L 1409 3309 
L 1409 2516 
L 750 2516 
L 750 3309 
z
" transform="scale(0.015625)"/>
      <path id="DejaVuSans-66" d="M 2375 4863 
L 2375 4384 
L 1825 4384 
Q 1516 4384 1395 4259 
Q 1275 4134 1275 3809 
L 1275 3500 
L 2222 3500 
L 2222 3053 
L 1275 3053 
L 1275 0 
L 697 0 
L 697 3053 
L 147 3053 
L 147 3500 
L 697 3500 
L 697 3744 
Q 697 4328 969 4595 
Q 1241 4863 1831 4863 
L 2375 4863 
z
" transform="scale(0.015625)"/>
     </defs>
     <use xlink:href="#DejaVuSans-44"/>
     <use xlink:href="#DejaVuSans-61" transform="translate(77.001953 0)"/>
     <use xlink:href="#DejaVuSans-69" transform="translate(138.28125 0)"/>
     <use xlink:href="#DejaVuSans-6c" transform="translate(166.064453 0)"/>
     <use xlink:href="#DejaVuSans-79" transform="translate(193.847656 0)"/>
     <use xlink:href="#DejaVuSans-20" transform="translate(253.027344 0)"/>
     <use xlink:href="#DejaVuSans-55" transform="translate(284.814453 0)"/>
     <use xlink:href="#DejaVuSans-73" transform="translate(358.007812 0)"/>
     <use xlink:href="#DejaVuSans-65" transform="translate(410.107422 0)"/>
     <use xlink:href="#DejaVuSans-6c" transform="translate(471.630859 0)"/>
     <use xlink:href="#DejaVuSans-65" transform="translate(499.414062 0)"/>
     <use xlink:href="#DejaVuSans-73" transform="translate(560.9375 0)"/>
     <use xlink:href="#DejaVuSans-73" transform="translate(613.037109 0)"/>
     <use xlink:href="#DejaVuSans-20" transform="translate(665.136719 0)"/>
     <use xlink:href="#DejaVuSans-52" transform="translate(696.923828 0)"/>
     <use xlink:href="#DejaVuSans-4c" transform="translate(766.40625 0)"/>
     <use xlink:href="#DejaVuSans-20" transform="translate(822.119141 0)"/>
     <use xlink:href="#DejaVuSans-28" transform="translate(853.90625 0)"/>
     <use xlink:href="#DejaVuSans-32" transform="translate(892.919922 0)"/>
     <use xlink:href="#DejaVuSans-30" transform="translate(956.542969 0)"/>
     <use xlink:href="#DejaVuSans-32" transform="translate(1020.166016 0)"/>
     <use xlink:href="#DejaVuSans-36" transform="translate(1083.789062 0)"/>
     <use xlink:href="#DejaVuSans-2d" transform="translate(1147.412109 0)"/>
     <use xlink:href="#DejaVuSans-30" transform="translate(1183.496094 0)"/>
     <use xlink:href="#DejaVuSans-31" transform="translate(1247.119141 0)"/>
     <use xlink:href="#DejaVuSans-2d" transform="translate(1310.742188 0)"/>
     <use xlink:href="#DejaVuSans-31" transform="translate(1346.826172 0)"/>
     <use xlink:href="#DejaVuSans-38" transform="translate(1410.449219 0)"/>
     <use xlink:href="#DejaVuSans-29" transform="translate(1474.072266 0)"/>
     <use xlink:href="#DejaVuSans-20" transform="translate(1513.085938 0)"/>
     <use xlink:href="#DejaVuSans-7c" transform="translate(1544.873047 0)"/>
     <use xlink:href="#DejaVuSans-20" transform="translate(1578.564453 0)"/>
     <use xlink:href="#DejaVuSans-76" transform="translate(1610.351562 0)"/>
     <use xlink:href="#DejaVuSans-65" transform="translate(1669.53125 0)"/>
     <use xlink:href="#DejaVuSans-72" transform="translate(1731.054688 0)"/>
     <use xlink:href="#DejaVuSans-64" transform="translate(1770.417969 0)"/>
     <use xlink:href="#DejaVuSans-69" transform="translate(1833.894531 0)"/>
     <use xlink:href="#DejaVuSans-63" transform="translate(1861.677734 0)"/>
     <use xlink:href="#DejaVuSans-74" transform="translate(1916.658203 0)"/>
     <use xlink:href="#DejaVuSans-3a" transform="translate(1955.867188 0)"/>
     <use xlink:href="#DejaVuSans-20" transform="translate(1989.558594 0)"/>
     <use xlink:href="#DejaVuSans-66" transform="translate(2021.345703 0)"/>
     <use xlink:href="#DejaVuSans-65" transform="translate(2056.550781 0)"/>
     <use xlink:href="#DejaVuSans-72" transform="translate(2118.074219 0)"/>
     <use xlink:href="#DejaVuSans-61" transform="translate(2159.1875 0)"/>
     <use xlink:href="#DejaVuSans-6c" transform="translate(2220.466797 0)"/>
    </g>
    <!-- Filter: high | Input: sine, sine (A=1.49, f=0.90 Hz) | R=0.50, L=0.50, τ=1.00 -->
    <g transform="translate(114.109106 35.856) scale(0.12 -0.12)">
     <defs>
      <path id="DejaVuSans-46" d="M 628 4666 
L 3309 4666 
L 3309 4134 
L 1259 4134 
L 1259 2759 
L 3109 2759 
L 3109 2228 
L 1259 2228 
L 1259 0 
L 628 0 
L 628 4666 
z
" transform="scale(0.015625)"/>
      <path id="DejaVuSans-68" d="M 3513 2113 
L 3513 0 
L 2938 0 
L 2938 2094 
Q 2938 2591 2744 2837 
Q 2550 3084 2163 3084 
Q 1697 3084 1428 2787 
Q 1159 2491 1159 1978 
L 1159 0 
L 581 0 
L 581 4863 
L 1159 4863 
L 1159 2956 
Q 1366 3272 1645 3428 
Q 1925 3584 2291 3584 
Q 2894 3584 3203 3211 
Q 3513 2838 3513 2113 
z
" transform="scale(0.015625)"/>
      <path id="DejaVuSans-67" d="M 2906 1791 
Q 2906 2416 2648 2759 
Q 2391 3103 1925 3103 
Q 1463 3103 1205 2759 
Q 947 2416 947 1791 
Q 947 1169 1205 825 
Q 1463 481 1925 481 
Q 2391 481 2648 825 
Q 2906 1169 2906 1791 
z
M 3481 434 
Q 3481 -459 3084 -895 
Q 2688 -1331 1869 -1331 
Q 1566 -1331 1297 -1286 
Q 1028 -1241 775 -1147 
L 775 -588 
Q 1028 -725 1275 -790 
Q 1522 -856 1778 -856 
Q 2344 -856 2625 -561 
Q 2906 -266 2906 331 
L 2906 616 
Q 2728 306 2450 153 
Q 2172 0 1784 0 
Q 1141 0 747 490 
Q 353 981 353 1791 
Q 353 2603 747 3093 
Q 1141 3584 1784 3584 
Q 2172 3584 2450 3431 
Q 2728 3278 2906 2969 
L 2906 3500 
L 3481 3500 
L 3481 434 
z
" transform="scale(0.015625)"/>
      <path id="DejaVuSans-49" d="M 628 4666 
L 1259 4666 
L 1259 0 
L 628 0 
L 628 4666 
z
" transform="scale(0.015625)"/>
      <path id="DejaVuSans-6e" d="M 3513 2113 
L 3513 0 
L 2938 0 
L 2938 2094 
Q 2938 2591 2744 2837 
Q 2550 3084 2163 3084 
Q 1697 3084 1428 2787 
Q 1159 2491 1159 1978 
L 1159 0 
L 581 0 
L 581 3500 
L 1159 3500 
L 1159 2956 
Q 1366 3272 1645 3428 
Q 1925 3584 2291 3584 
Q 2894 3584 3203 3211 
Q 3513 2838 3513 2113 
z
" transform="scale(0.015625)"/>
      <path id="DejaVuSans-70" d="M 1159 525 
L 1159 -1331 
L 581 -1331 
L 581 3500 
L 1159 3500 
L 1159 2969 
Q 1341 3281 1617 3432 
Q 1894 3584 2278 3584 
Q 2916 3584 3314 3078 
Q 3713 2572 3713 1747 
Q 3713 922 3314 415 
Q 2916 -91 2278 -91 
Q 1894 -91 1617 61 
Q 1341 213 1159 525 
z
M 3116 1747 
Q 3116 2381 2855 2742 
Q 2594 3103 2138 3103 
Q 1681 3103 1420 2742 
Q 1159 2381 1159 1747 
Q 1159 1113 1420 752 
Q 1681 391 2138 391 
Q 2594 391 2855 752 
Q 3116 1113 3116 1747 
z
" transform="scale(0.015625)"/>
      <path id="DejaVuSans-75" d="M 544 1381 
L 544 3500 
L 1119 3500 
L 1119 1403 
Q 1119 906 1312 657 
Q 1506 409 1894 409 
Q 2359 409 2629 706 
Q 2900 1003 2900 1516 
L 2900 3500 
L 3475 3500 
L 3475 0 
L 2900 0 
L 2900 538 
Q 2691 219 2414 64 
Q 2138 -91 1772 -91 
Q 1169 -91 856 284 
Q 544 659 544 1381 
z
M 1991 3584 
L 1991 3584 
z
" transform="scale(0.015625)"/>
      <path id="DejaVuSans-2c" d="M 750 794 
L 1409 794 
L 1409 256 
L 897 -744 
L 494 -744 
L 750 256 
L 750 794 
z
" transform="scale(0.015625)"/>
      <path id="DejaVuSans-41" d="M 2188 4044 
L 1331 1722 
L 3047 1722 
L 2188 4044 
z
M 1831 4666 
L 2547 4666 
L 4325 0 
L 3669 0 
L 3244 1197 
L 1141 1197 
L 716 0 
L 50 0 
L 1831 4666 
z
" transform="scale(0.015625)"/>
      <path id="DejaVuSans-3d" d="M 678 2906 
L 4684 2906 
L 4684 2381 
L 678 2381 
L 678 2906 
z
M 678 1631 
L 4684 1631 
L 4684 1100 
L 678 1100 
L 678 1631 
z
" transform="scale(0.015625)"/>
      <path id="DejaVuSans-39" d="M 703 97 
L 703 672 
Q 941 559 1184 500 
Q 1428 441 1663 441 
Q 2288 441 2617 861 
Q 2947 1281 2994 2138 
Q 2813 1869 2534 1725 
Q 2256 1581 1919 1581 
Q 1219 1581 811 2004 
Q 403 2428 403 3163 
Q 403 3881 828 4315 
Q 1253 4750 1959 4750 
Q 2769 4750 3195 4129 
Q 3622 3509 3622 2328 
Q 3622 1225 3098 567 
Q 2575 -91 1691 -91 
Q 1453 -91 1209 -44 
Q 966 3 703 97 
z
M 1959 2075 
Q 2384 2075 2632 2365 
Q 2881 2656 2881 3163 
Q 2881 3666 2632 3958 
Q 2384 4250 1959 4250 
Q 1534 4250 1286 3958 
Q 1038 3666 1038 3163 
Q 1038 2656 1286 2365 
Q 1534 2075 1959 2075 
z
" transform="scale(0.015625)"/>
      <path id="DejaVuSans-48" d="M 628 4666 
L 1259 4666 
L 1259 2753 
L 3553 2753 
L 3553 4666 
L 4184 4666 
L 4184 0 
L 3553 0 
L 3553 2222 
L 1259 2222 
L 1259 0 
L 628 0 
L 628 4666 
z
" transform="scale(0.015625)"/>
      <path id="DejaVuSans-7a" d="M 353 3500 
L 3084 3500 
L 3084 2975 
L 922 459 
L 3084 459 
L 3084 0 
L 275 0 
L 275 525 
L 2438 3041 
L 353 3041 
L 353 3500 
z
" transform="scale(0.015625)"/>
      <path id="DejaVuSans-3c4" d="M 2319 638 
Q 2431 488 2769 488 
L 3047 488 
L 3047 0 
L 2700 0 
Q 2138 0 1881 300 
Q 1625 606 1625 1269 
L 1625 2925 
L 313 2925 
L 313 3500 
L 3541 3500 
L 3541 2925 
L 2213 2925 
L 2213 1234 
Q 2213 781 2319 638 
z
" transform="scale(0.015625)"/>
     </defs>
     <use xlink:href="#DejaVuSans-46"/>
     <use xlink:href="#DejaVuSans-69" transform="translate(50.269531 0)"/>
     <use xlink:href="#DejaVuSans-6c" transform="translate(78.052734 0)"/>
     <use xlink:href="#DejaVuSans-74" transform="translate(105.835938 0)"/>
     <use xlink:href="#DejaVuSans-65" transform="translate(145.044922 0)"/>
     <use xlink:href="#DejaVuSans-72" transform="translate(206.568359 0)"/>
     <use xlink:href="#DejaVuSans-3a" transform="translate(245.931641 0)"/>
     <use xlink:href="#DejaVuSans-20" transform="translate(279.623047 0)"/>
     <use xlink:href="#DejaVuSans-68" transform="translate(311.410156 0)"/>
     <use xlink:href="#DejaVuSans-69" transform="translate(374.789062 0)"/>
     <use xlink:href="#DejaVuSans-67" transform="translate(402.572266 0)"/>
     <use xlink:href="#DejaVuSans-68" transform="translate(466.048828 0)"/>
     <use xlink:href="#DejaVuSans-20" transform="translate(529.427734 0)"/>
     <use xlink:href="#DejaVuSans-7c" transform="translate(561.214844 0)"/>
     <use xlink:href="#DejaVuSans-20" transform="translate(594.90625 0)"/>
     <use xlink:href="#DejaVuSans-49" transform="translate(626.693359 0)"/>
     <use xlink:href="#DejaVuSans-6e" transform="translate(656.185547 0)"/>
     <use xlink:href="#DejaVuSans-70" transform="translate(719.564453 0)"/>
     <use xlink:href="#DejaVuSans-75" transform="translate(783.041016 0)"/>
     <use xlink:href="#DejaVuSans-74" transform="translate(846.419922 0)"/>
     <use xlink:href="#DejaVuSans-3a" transform="translate(885.628906 0)"/>
     <use xlink:href="#DejaVuSans-20" transform="translate(919.320312 0)"/>
     <use xlink:href="#DejaVuSans-73" transform="translate(951.107422 0)"/>
     <use xlink:href="#DejaVuSans-69" transform="translate(1003.207031 0)"/>
     <use xlink:href="#DejaVuSans-6e" transform="translate(1030.990234 0)"/>
     <use xlink:href="#DejaVuSans-65" transform="translate(1094.369141 0)"/>
     <use xlink:href="#DejaVuSans-2c" transform="translate(1155.892578 0)"/>
     <use xlink:href="#DejaVuSans-20" transform="translate(1187.679688 0)"/>
     <use xlink:href="#DejaVuSans-73" transform="translate(1219.466797 0)"/>
     <use xlink:href="#DejaVuSans-69" transform="translate(1271.566406 0)"/>
     <use xlink:href="#DejaVuSans-6e" transform="translate(1299.349609 0)"/>
     <use xlink:href="#DejaVuSans-65" transform="translate(1362.728516 0)"/>
     <use xlink:href="#DejaVuSans-20" transform="translate(1424.251953 0)"/>
     <use xlink:href="#DejaVuSans-28" transform="translate(1456.039062 0)"/>
     <use xlink:href="#DejaVuSans-41" transform="translate(1495.052734 0)"/>
     <use xlink:href="#DejaVuSans-3d" transform="translate(1563.460938 0)"/>
     <use xlink:href="#DejaVuSans-31" transform="translate(1647.25 0)"/>
     <use xlink:href="#DejaVuSans-2e" transform="translate(1710.873047 0)"/>
     <use xlink:href="#DejaVuSans-34" transform="translate(1742.660156 0)"/>
     <use xlink:href="#DejaVuSans-39" transform="translate(1806.283203 0)"/>
     <use xlink:href="#DejaVuSans-2c" transform="translate(1869.90625 0)"/>
     <use xlink:href="#DejaVuSans-20" transform="translate(1901.693359 0)"/>
     <use xlink:href="#DejaVuSans-66" transform="translate(1933.480469 0)"/>
     <use xlink:href="#DejaVuSans-3d" transform="translate(1968.685547 0)"/>
     <use xlink:href="#DejaVuSans-30" transform="translate(2052.474609 0)"/>
     <use xlink:href="#DejaVuSans-2e" transform="translate(2116.097656 0)"/>
     <use xlink:href="#DejaVuSans-39" transform="translate(2147.884766 0)"/>
     <use xlink:href="#DejaVuSans-30" transform="translate(2211.507812 0)"/>
     <use xlink:href="#DejaVuSans-20" transform="translate(2275.130859 0)"/>
     <use xlink:href="#DejaVuSans-48" transform="translate(2306.917969 0)"/>
     <use xlink:href="#DejaVuSans-7a" transform="translate(2382.113281 0)"/>
     <use xlink:href="#DejaVuSans-29" transform="translate(2434.603516 0)"/>
     <use xlink:href="#DejaVuSans-20" transform="translate(2473.617188 0)"/>
     <use xlink:href="#DejaVuSans-7c" transform="translate(2505.404297 0)"/>
     <use xlink:href="#DejaVuSans-20" transform="translate(2539.095703 0)"/>
     <use xlink:href="#DejaVuSans-52" transform="translate(2570.882812 0)"/>
     <use xlink:href="#DejaVuSans-3d" transform="translate(2640.365234 0)"/>
     <use xlink:href="#DejaVuSans-30" transform="translate(2724.154297 0)"/>
     <use xlink:href="#DejaVuSans-2e" transform="translate(2787.777344 0)"/>
     <use xlink:href="#DejaVuSans-35" transform="translate(2819.564453 0)"/>
     <use xlink:href="#DejaVuSans-30" transform="translate(2883.1875 0)"/>
     <use xlink:href="#DejaVuSans-2c" transform="translate(2946.810547 0)"/>
     <use xlink:href="#DejaVuSans-20" transform="translate(2978.597656 0)"/>
     <use xlink:href="#DejaVuSans-4c" transform="translate(3010.384766 0)"/>
     <use xlink:href="#DejaVuSans-3d" transform="translate(3066.097656 0)"/>
     <use xlink:href="#DejaVuSans-30" transform="translate(3149.886719 0)"/>
     <use xlink:href="#DejaVuSans-2e" transform="translate(3213.509766 0)"/>
     <use xlink:href="#DejaVuSans-35" transform="translate(3245.296875 0)"/>
     <use xlink:href="#DejaVuSans-30" transform="translate(3308.919922 0)"/>
     <use xlink:href="#DejaVuSans-2c" transform="translate(3372.542969 0)"/>
     <use xlink:href="#DejaVuSans-20" transform="translate(3404.330078 0)"/>
     <use xlink:href="#DejaVuSans-3c4" transform="translate(3436.117188 0)"/>
     <use xlink:href="#DejaVuSans-3d" transform="translate(3496.322266 0)"/>
     <use xlink:href="#DejaVuSans-31" transform="translate(3580.111328 0)"/>
     <use xlink:href="#DejaVuSans-2e" transform="translate(3643.734375 0)"/>
     <use xlink:href="#DejaVuSans-30" transform="translate(3675.521484 0)"/>
     <use xlink:href="#DejaVuSans-30" transform="translate(3739.144531 0)"/>
    </g>
   </g>
   <g id="legend_1">
    <g id="patch_7">
     <path d="M 63.357054 147.742125 
L 128.339866 147.742125 
Q 130.339866 147.742125 130.339866 145.742125 
L 130.339866 117.385875 
Q 130.339866 115.385875 128.339866 115.385875 
L 63.357054 115.385875 
Q 61.357054 115.385875 61.357054 117.385875 
L 61.357054 145.742125 
Q 61.357054 147.742125 63.357054 147.742125 
z
" style="fill: #ffffff; opacity: 0.8; stroke: #cccccc; stroke-linejoin: miter"/>
    </g>
    <g id="line2d_29">
     <path d="M 65.357054 123.484312 
L 75.357054 123.484312 
L 85.357054 123.484312 
" style="fill: none; stroke: #1f77b4; stroke-width: 1.5; stroke-linecap: square"/>
    </g>
    <g id="text_17">
     <!-- input -->
     <g transform="translate(93.357054 126.984312) scale(0.1 -0.1)">
      <use xlink:href="#DejaVuSans-69"/>
      <use xlink:href="#DejaVuSans-6e" transform="translate(27.783203 0)"/>
      <use xlink:href="#DejaVuSans-70" transform="translate(91.162109 0)"/>
      <use xlink:href="#DejaVuSans-75" transform="translate(154.638672 0)"/>
      <use xlink:href="#DejaVuSans-74" transform="translate(218.017578 0)"/>
     </g>
    </g>
    <g id="line2d_30">
     <path d="M 65.357054 138.162438 
L 75.357054 138.162438 
L 85.357054 138.162438 
" style="fill: none; stroke: #ff7f0e; stroke-width: 1.5; stroke-linecap: square"/>
    </g>
    <g id="text_18">
     <!-- output -->
     <g transform="translate(93.357054 141.662438) scale(0.1 -0.1)">
      <defs>
       <path id="DejaVuSans-6f" d="M 1959 3097 
Q 1497 3097 1228 2736 
Q 959 2375 959 1747 
Q 959 1119 1226 758 
Q 1494 397 1959 397 
Q 2419 397 2687 759 
Q 2956 1122 2956 1747 
Q 2956 2369 2687 2733 
Q 2419 3097 1959 3097 
z
M 1959 3584 
Q 2709 3584 3137 3096 
Q 3566 2609 3566 1747 
Q 3566 888 3137 398 
Q 2709 -91 1959 -91 
Q 1206 -91 779 398 
Q 353 888 353 1747 
Q 353 2609 779 3096 
Q 1206 3584 1959 3584 
z
" transform="scale(0.015625)"/>
      </defs>
      <use xlink:href="#DejaVuSans-6f"/>
      <use xlink:href="#DejaVuSans-75" transform="translate(61.181641 0)"/>
      <use xlink:href="#DejaVuSans-74" transform="translate(124.560547 0)"/>
      <use xlink:href="#DejaVuSans-70" transform="translate(163.769531 0)"/>
      <use xlink:href="#DejaVuSans-75" transform="translate(227.246094 0)"/>
      <use xlink:href="#DejaVuSans-74" transform="translate(290.625 0)"/>
     </g>
    </g>
   </g>
  </g>
  <g id="axes_2">
   <g id="patch_8">
    <path d="M 56.357054 458.728 
L 628.183658 458.728 
L 628.183658 279.312 
L 56.357054 279.312 
z
" style="fill: #ffffff"/>
   </g>
   <g id="matplotlib.axis_3">
    <g id="xtick_7">
     <g id="line2d_31">
      <path d="M 56.357054 458.728 
L 56.357054 279.312 
" clip-path="url(#p458d841601)" style="fill: none; stroke: #b0b0b0; stroke-opacity: 0.25; stroke-width: 0.8; stroke-linecap: square"/>
     </g>
     <g id="line2d_32">
      <g>
       <use xlink:href="#mbd506fdae8" x="56.357054" y="458.728" style="stroke: #000000; stroke-width: 0.8"/>
      </g>
     </g>
     <g id="text_19">
      <!-- $\mathdefault{10^{-1}}$ -->
      <g transform="translate(44.607054 473.326438) scale(0.1 -0.1)">
       <use xlink:href="#DejaVuSans-31" transform="translate(0 0.684375)"/>
       <use xlink:href="#DejaVuSans-30" transform="translate(63.623047 0.684375)"/>
       <use xlink:href="#DejaVuSans-2212" transform="translate(128.203125 38.965625) scale(0.7)"/>
       <use xlink:href="#DejaVuSans-31" transform="translate(186.855469 38.965625) scale(0.7)"/>
      </g>
     </g>
    </g>
    <g id="xtick_8">
     <g id="line2d_33">
      <path d="M 342.270356 458.728 
L 342.270356 279.312 
" clip-path="url(#p458d841601)" style="fill: none; stroke: #b0b0b0; stroke-opacity: 0.25; stroke-width: 0.8; stroke-linecap: square"/>
     </g>
     <g id="line2d_34">
      <g>
       <use xlink:href="#mbd506fdae8" x="342.270356" y="458.728" style="stroke: #000000; stroke-width: 0.8"/>
      </g>
     </g>
     <g id="text_20">
      <!-- $\mathdefault{10^{0}}$ -->
      <g transform="translate(333.470356 473.326438) scale(0.1 -0.1)">
       <use xlink:href="#DejaVuSans-31" transform="translate(0 0.765625)"/>
       <use xlink:href="#DejaVuSans-30" transform="translate(63.623047 0.765625)"/>
       <use xlink:href="#DejaVuSans-30" transform="translate(128.203125 39.046875) scale(0.7)"/>
      </g>
     </g>
    </g>
    <g id="xtick_9">
     <g id="line2d_35">
      <path d="M 628.183658 458.728 
L 628.183658 279.312 
" clip-path="url(#p458d841601)" style="fill: none; stroke: #b0b0b0; stroke-opacity: 0.25; stroke-width: 0.8; stroke-linecap: square"/>
     </g>
     <g id="line2d_36">
      <g>
       <use xlink:href="#mbd506fdae8" x="628.183658" y="458.728" style="stroke: #000000; stroke-width: 0.8"/>
      </g>
     </g>
     <g id="text_21">
      <!-- $\mathdefault{10^{1}}$ -->
      <g transform="translate(619.383658 473.326438) scale(0.1 -0.1)">
       <use xlink:href="#DejaVuSans-31" transform="translate(0 0.684375)"/>
       <use xlink:href="#DejaVuSans-30" transform="translate(63.623047 0.684375)"/>
       <use xlink:href="#DejaVuSans-31" transform="translate(128.203125 38.965625) scale(0.7)"/>
      </g>
     </g>
    </g>
    <g id="xtick_10">
     <g id="line2d_37">
      <defs>
       <path id="m7ccfc61498" d="M 0 0 
L 0 2 
" style="stroke: #000000; stroke-width: 0.6"/>
      </defs>
      <g>
       <use xlink:href="#m7ccfc61498" x="142.425534" y="458.728" style="stroke: #000000; stroke-width: 0.6"/>
      </g>
     </g>
    </g>
    <g id="xtick_11">
     <g id="line2d_38">
      <g>
       <use xlink:href="#m7ccfc61498" x="192.772367" y="458.728" style="stroke: #000000; stroke-width: 0.6"/>
      </g>
     </g>
    </g>
    <g id="xtick_12">
     <g id="line2d_39">
      <g>
       <use xlink:href="#m7ccfc61498" x="228.494014" y="458.728" style="stroke: #000000; stroke-width: 0.6"/>
      </g>
     </g>
    </g>
    <g id="xtick_13">
     <g id="line2d_40">
      <g>
       <use xlink:href="#m7ccfc61498" x="256.201876" y="458.728" style="stroke: #000000; stroke-width: 0.6"/>
      </g>
     </g>
    </g>
    <g id="xtick_14">
     <g id="line2d_41">
      <g>
       <use xlink:href="#m7ccfc61498" x="278.840847" y="458.728" style="stroke: #000000; stroke-width: 0.6"/>
      </g>
     </g>
    </g>
    <g id="xtick_15">
     <g id="line2d_42">
      <g>
       <use xlink:href="#m7ccfc61498" x="297.981825" y="458.728" style="stroke: #000000; stroke-width: 0.6"/>
      </g>
     </g>
    </g>
    <g id="xtick_16">
     <g id="line2d_43">
      <g>
       <use xlink:href="#m7ccfc61498" x="314.562494" y="458.728" style="stroke: #000000; stroke-width: 0.6"/>
      </g>
     </g>
    </g>
    <g id="xtick_17">
     <g id="line2d_44">
      <g>
       <use xlink:href="#m7ccfc61498" x="329.187681" y="458.728" style="stroke: #000000; stroke-width: 0.6"/>
      </g>
     </g>
    </g>
    <g id="xtick_18">
     <g id="line2d_45">
      <g>
       <use xlink:href="#m7ccfc61498" x="428.338836" y="458.728" style="stroke: #000000; stroke-width: 0.6"/>
      </g>
     </g>
    </g>
    <g id="xtick_19">
     <g id="line2d_46">
      <g>
       <use xlink:href="#m7ccfc61498" x="478.685669" y="458.728" style="stroke: #000000; stroke-width: 0.6"/>
      </g>
     </g>
    </g>
    <g id="xtick_20">
     <g id="line2d_47">
      <g>
       <use xlink:href="#m7ccfc61498" x="514.407316" y="458.728" style="stroke: #000000; stroke-width: 0.6"/>
      </g>
     </g>
    </g>
    <g id="xtick_21">
     <g id="line2d_48">
      <g>
       <use xlink:href="#m7ccfc61498" x="542.115178" y="458.728" style="stroke: #000000; stroke-width: 0.6"/>
      </g>
     </g>
    </g>
    <g id="xtick_22">
     <g id="line2d_49">
      <g>
       <use xlink:href="#m7ccfc61498" x="564.754149" y="458.728" style="stroke: #000000; stroke-width: 0.6"/>
      </g>
     </g>
    </g>
    <g id="xtick_23">
     <g id="line2d_50">
      <g>
       <use xlink:href="#m7ccfc61498" x="583.895127" y="458.728" style="stroke: #000000; stroke-width: 0.6"/>
      </g>
     </g>
    </g>
    <g id="xtick_24">
     <g id="line2d_51">
      <g>
       <use xlink:href="#m7ccfc61498" x="600.475796" y="458.728" style="stroke: #000000; stroke-width: 0.6"/>
      </g>
     </g>
    </g>
    <g id="xtick_25">
     <g id="line2d_52">
      <g>
       <use xlink:href="#m7ccfc61498" x="615.100982" y="458.728" style="stroke: #000000; stroke-width: 0.6"/>
      </g>
     </g>
    </g>
    <g id="text_22">
     <!-- frequency [arb.] -->
     <g transform="translate(301.820356 487.004563) scale(0.1 -0.1)">
      <defs>
       <path id="DejaVuSans-71" d="M 947 1747 
Q 947 1113 1208 752 
Q 1469 391 1925 391 
Q 2381 391 2643 752 
Q 2906 1113 2906 1747 
Q 2906 2381 2643 2742 
Q 2381 3103 1925 3103 
Q 1469 3103 1208 2742 
Q 947 2381 947 1747 
z
M 2906 525 
Q 2725 213 2448 61 
Q 2172 -91 1784 -91 
Q 1150 -91 751 415 
Q 353 922 353 1747 
Q 353 2572 751 3078 
Q 1150 3584 1784 3584 
Q 2172 3584 2448 3432 
Q 2725 3281 2906 2969 
L 2906 3500 
L 3481 3500 
L 3481 -1331 
L 2906 -1331 
L 2906 525 
z
" transform="scale(0.015625)"/>
      </defs>
      <use xlink:href="#DejaVuSans-66"/>
      <use xlink:href="#DejaVuSans-72" transform="translate(35.205078 0)"/>
      <use xlink:href="#DejaVuSans-65" transform="translate(74.068359 0)"/>
      <use xlink:href="#DejaVuSans-71" transform="translate(135.591797 0)"/>
      <use xlink:href="#DejaVuSans-75" transform="translate(199.068359 0)"/>
      <use xlink:href="#DejaVuSans-65" transform="translate(262.447266 0)"/>
      <use xlink:href="#DejaVuSans-6e" transform="translate(323.970703 0)"/>
      <use xlink:href="#DejaVuSans-63" transform="translate(387.349609 0)"/>
      <use xlink:href="#DejaVuSans-79" transform="translate(442.330078 0)"/>
      <use xlink:href="#DejaVuSans-20" transform="translate(501.509766 0)"/>
      <use xlink:href="#DejaVuSans-5b" transform="translate(533.296875 0)"/>
      <use xlink:href="#DejaVuSans-61" transform="translate(572.310547 0)"/>
      <use xlink:href="#DejaVuSans-72" transform="translate(633.589844 0)"/>
      <use xlink:href="#DejaVuSans-62" transform="translate(674.703125 0)"/>
      <use xlink:href="#DejaVuSans-2e" transform="translate(738.179688 0)"/>
      <use xlink:href="#DejaVuSans-5d" transform="translate(769.966797 0)"/>
     </g>
    </g>
   </g>
   <g id="matplotlib.axis_4">
    <g id="ytick_8">
     <g id="line2d_53">
      <path d="M 56.357054 443.247463 
L 628.183658 443.247463 
" clip-path="url(#p458d841601)" style="fill: none; stroke: #b0b0b0; stroke-opacity: 0.25; stroke-width: 0.8; stroke-linecap: square"/>
     </g>
     <g id="line2d_54">
      <g>
       <use xlink:href="#m076234c499" x="56.357054" y="443.247463" style="stroke: #000000; stroke-width: 0.8"/>
      </g>
     </g>
     <g id="text_23">
      <!-- $\mathdefault{10^{-8}}$ -->
      <g transform="translate(25.857054 447.046681) scale(0.1 -0.1)">
       <use xlink:href="#DejaVuSans-31" transform="translate(0 0.765625)"/>
       <use xlink:href="#DejaVuSans-30" transform="translate(63.623047 0.765625)"/>
       <use xlink:href="#DejaVuSans-2212" transform="translate(128.203125 39.046875) scale(0.7)"/>
       <use xlink:href="#DejaVuSans-38" transform="translate(186.855469 39.046875) scale(0.7)"/>
      </g>
     </g>
    </g>
    <g id="ytick_9">
     <g id="line2d_55">
      <path d="M 56.357054 415.391586 
L 628.183658 415.391586 
" clip-path="url(#p458d841601)" style="fill: none; stroke: #b0b0b0; stroke-opacity: 0.25; stroke-width: 0.8; stroke-linecap: square"/>
     </g>
     <g id="line2d_56">
      <g>
       <use xlink:href="#m076234c499" x="56.357054" y="415.391586" style="stroke: #000000; stroke-width: 0.8"/>
      </g>
     </g>
     <g id="text_24">
      <!-- $\mathdefault{10^{-6}}$ -->
      <g transform="translate(25.857054 419.190805) scale(0.1 -0.1)">
       <use xlink:href="#DejaVuSans-31" transform="translate(0 0.765625)"/>
       <use xlink:href="#DejaVuSans-30" transform="translate(63.623047 0.765625)"/>
       <use xlink:href="#DejaVuSans-2212" transform="translate(128.203125 39.046875) scale(0.7)"/>
       <use xlink:href="#DejaVuSans-36" transform="translate(186.855469 39.046875) scale(0.7)"/>
      </g>
     </g>
    </g>
    <g id="ytick_10">
     <g id="line2d_57">
      <path d="M 56.357054 387.53571 
L 628.183658 387.53571 
" clip-path="url(#p458d841601)" style="fill: none; stroke: #b0b0b0; stroke-opacity: 0.25; stroke-width: 0.8; stroke-linecap: square"/>
     </g>
     <g id="line2d_58">
      <g>
       <use xlink:href="#m076234c499" x="56.357054" y="387.53571" style="stroke: #000000; stroke-width: 0.8"/>
      </g>
     </g>
     <g id="text_25">
      <!-- $\mathdefault{10^{-4}}$ -->
      <g transform="translate(25.857054 391.334928) scale(0.1 -0.1)">
       <use xlink:href="#DejaVuSans-31" transform="translate(0 0.684375)"/>
       <use xlink:href="#DejaVuSans-30" transform="translate(63.623047 0.684375)"/>
       <use xlink:href="#DejaVuSans-2212" transform="translate(128.203125 38.965625) scale(0.7)"/>
       <use xlink:href="#DejaVuSans-34" transform="translate(186.855469 38.965625) scale(0.7)"/>
      </g>
     </g>
    </g>
    <g id="ytick_11">
     <g id="line2d_59">
      <path d="M 56.357054 359.679833 
L 628.183658 359.679833 
" clip-path="url(#p458d841601)" style="fill: none; stroke: #b0b0b0; stroke-opacity: 0.25; stroke-width: 0.8; stroke-linecap: square"/>
     </g>
     <g id="line2d_60">
      <g>
       <use xlink:href="#m076234c499" x="56.357054" y="359.679833" style="stroke: #000000; stroke-width: 0.8"/>
      </g>
     </g>
     <g id="text_26">
      <!-- $\mathdefault{10^{-2}}$ -->
      <g transform="translate(25.857054 363.479052) scale(0.1 -0.1)">
       <use xlink:href="#DejaVuSans-31" transform="translate(0 0.765625)"/>
       <use xlink:href="#DejaVuSans-30" transform="translate(63.623047 0.765625)"/>
       <use xlink:href="#DejaVuSans-2212" transform="translate(128.203125 39.046875) scale(0.7)"/>
       <use xlink:href="#DejaVuSans-32" transform="translate(186.855469 39.046875) scale(0.7)"/>
      </g>
     </g>
    </g>
    <g id="ytick_12">
     <g id="line2d_61">
      <path d="M 56.357054 331.823957 
L 628.183658 331.823957 
" clip-path="url(#p458d841601)" style="fill: none; stroke: #b0b0b0; stroke-opacity: 0.25; stroke-width: 0.8; stroke-linecap: square"/>
     </g>
     <g id="line2d_62">
      <g>
       <use xlink:href="#m076234c499" x="56.357054" y="331.823957" style="stroke: #000000; stroke-width: 0.8"/>
      </g>
     </g>
     <g id="text_27">
      <!-- $\mathdefault{10^{0}}$ -->
      <g transform="translate(31.757054 335.623176) scale(0.1 -0.1)">
       <use xlink:href="#DejaVuSans-31" transform="translate(0 0.765625)"/>
       <use xlink:href="#DejaVuSans-30" transform="translate(63.623047 0.765625)"/>
       <use xlink:href="#DejaVuSans-30" transform="translate(128.203125 39.046875) scale(0.7)"/>
      </g>
     </g>
    </g>
    <g id="ytick_13">
     <g id="line2d_63">
      <path d="M 56.357054 303.96808 
L 628.183658 303.96808 
" clip-path="url(#p458d841601)" style="fill: none; stroke: #b0b0b0; stroke-opacity: 0.25; stroke-width: 0.8; stroke-linecap: square"/>
     </g>
     <g id="line2d_64">
      <g>
       <use xlink:href="#m076234c499" x="56.357054" y="303.96808" style="stroke: #000000; stroke-width: 0.8"/>
      </g>
     </g>
     <g id="text_28">
      <!-- $\mathdefault{10^{2}}$ -->
      <g transform="translate(31.757054 307.767299) scale(0.1 -0.1)">
       <use xlink:href="#DejaVuSans-31" transform="translate(0 0.765625)"/>
       <use xlink:href="#DejaVuSans-30" transform="translate(63.623047 0.765625)"/>
       <use xlink:href="#DejaVuSans-32" transform="translate(128.203125 39.046875) scale(0.7)"/>
      </g>
     </g>
    </g>
    <g id="text_29">
     <!-- |FFT(.)| -->
     <g transform="translate(19.499241 386.597344) rotate(-90) scale(0.1 -0.1)">
      <defs>
       <path id="DejaVuSans-54" d="M -19 4666 
L 3928 4666 
L 3928 4134 
L 2272 4134 
L 2272 0 
L 1638 0 
L 1638 4134 
L -19 4134 
L -19 4666 
z
" transform="scale(0.015625)"/>
      </defs>
      <use xlink:href="#DejaVuSans-7c"/>
      <use xlink:href="#DejaVuSans-46" transform="translate(33.691406 0)"/>
      <use xlink:href="#DejaVuSans-46" transform="translate(91.210938 0)"/>
      <use xlink:href="#DejaVuSans-54" transform="translate(146.980469 0)"/>
      <use xlink:href="#DejaVuSans-28" transform="translate(208.064453 0)"/>
      <use xlink:href="#DejaVuSans-2e" transform="translate(247.078125 0)"/>
      <use xlink:href="#DejaVuSans-29" transform="translate(278.865234 0)"/>
      <use xlink:href="#DejaVuSans-7c" transform="translate(317.878906 0)"/>
     </g>
    </g>
   </g>
   <g id="line2d_65">
    <path d="M 56.357054 353.693699 
L 142.425534 354.704662 
L 192.772367 350.775718 
L 228.494014 346.813709 
L 256.201876 342.263112 
L 278.840847 336.469206 
L 297.981825 327.901276 
L 314.562494 291.731419 
L 329.187681 287.467273 
L 342.270356 291.584473 
L 354.105075 326.984932 
L 364.909327 335.234889 
L 374.848276 340.62246 
L 384.050305 344.657311 
L 392.617189 347.885682 
L 400.630974 350.575022 
L 408.158768 352.87795 
L 415.256161 354.890273 
L 421.969718 356.676227 
L 428.338836 358.281026 
L 434.397138 359.737705 
L 440.173555 361.071124 
L 445.693156 362.300455 
L 450.977807 363.440782 
L 456.046698 364.504179 
L 460.916756 365.500455 
L 465.602994 366.437678 
L 470.118785 367.322563 
L 474.476094 368.160755 
L 478.685669 368.957041 
L 482.7572 369.715513 
L 486.699454 370.439696 
L 490.520388 371.132648 
L 494.227248 371.797035 
L 497.826647 372.435198 
L 501.324641 373.049199 
L 504.726787 373.640869 
L 508.038198 374.211835 
L 511.263589 374.763554 
L 514.407316 375.297331 
L 517.473412 375.814344 
L 520.465618 376.315657 
L 523.387414 376.802235 
L 526.242035 377.274954 
L 529.032502 377.734616 
L 531.761636 378.181953 
L 534.432073 378.617635 
L 537.046287 379.042281 
L 539.606596 379.456459 
L 542.115178 379.860694 
L 544.574081 380.255473 
L 546.985236 380.641245 
L 549.350461 381.01843 
L 551.671474 381.387417 
L 553.949897 381.748569 
L 556.187265 382.102226 
L 558.385032 382.448703 
L 560.544574 382.788299 
L 562.6672 383.121292 
L 564.754149 383.447943 
L 566.806602 383.7685 
L 568.82568 384.083192 
L 570.812452 384.39224 
L 572.767934 384.69585 
L 574.693098 384.994215 
L 576.588868 385.287521 
L 578.45613 385.575943 
L 580.295728 385.859646 
L 582.108469 386.138787 
L 583.895127 386.413516 
L 585.656441 386.683974 
L 587.393121 386.950297 
L 589.105845 387.212612 
L 590.795267 387.471044 
L 592.462011 387.725708 
L 594.106678 387.976716 
L 595.729846 388.224175 
L 597.332069 388.468187 
L 598.913881 388.708849 
L 600.475796 388.946256 
L 602.018307 389.180495 
L 603.541892 389.411653 
L 605.047008 389.639813 
L 606.534098 389.865053 
L 608.00359 390.087449 
L 609.455894 390.307073 
L 610.891407 390.523996 
L 612.310515 390.738286 
L 613.713587 390.950007 
L 615.100982 391.159221 
L 616.473047 391.365988 
L 617.830116 391.570367 
L 619.172513 391.772414 
L 620.500554 391.972182 
L 621.81454 392.169723 
L 623.114767 392.365088 
L 624.40152 392.558325 
L 625.675076 392.749481 
L 626.935702 392.938601 
L 628.183658 393.12573 
L 629.419196 393.310909 
" clip-path="url(#p458d841601)" style="fill: none; stroke: #1f77b4; stroke-opacity: 0.6; stroke-width: 1.5; stroke-linecap: square"/>
   </g>
   <g id="line2d_66">
    <path d="M 56.357054 311.402013 
L 142.425534 321.942445 
L 192.772367 326.992919 
L 228.494014 331.569432 
L 256.201876 336.249407 
L 278.840847 340.073422 
L 297.981825 328.681878 
L 314.562494 291.832939 
L 329.187681 287.567204 
L 342.270356 291.685443 
L 354.105075 326.922768 
L 364.909327 334.852552 
L 374.848276 339.82169 
L 384.050305 343.397136 
L 392.617189 346.16484 
L 400.630974 348.415014 
L 408.158768 350.311201 
L 415.256161 351.952986 
L 421.969718 353.404475 
L 428.338836 354.708791 
L 434.397138 355.896048 
L 440.173555 356.987951 
L 445.693156 358.000597 
L 450.977807 358.946218 
L 456.046698 359.834314 
L 460.916756 360.672411 
L 465.602994 361.466571 
L 470.118785 362.221754 
L 474.476094 362.942071 
L 478.685669 363.630976 
L 482.7572 364.291397 
L 486.699454 364.925845 
L 490.520388 365.536489 
L 494.227248 366.12522 
L 497.826647 366.693696 
L 501.324641 367.243382 
L 504.726787 367.775581 
L 508.038198 368.291453 
L 511.263589 368.792042 
L 514.407316 369.278288 
L 517.473412 369.751043 
L 520.465618 370.21108 
L 523.387414 370.659105 
L 526.242035 371.095764 
L 529.032502 371.521647 
L 531.761636 371.9373 
L 534.432073 372.343226 
L 537.046287 372.73989 
L 539.606596 373.127724 
L 542.115178 373.507126 
L 544.574081 373.878471 
L 546.985236 374.242105 
L 549.350461 374.598355 
L 551.671474 374.947523 
L 553.949897 375.289895 
L 556.187265 375.625739 
L 558.385032 375.955306 
L 560.544574 376.278833 
L 562.6672 376.596544 
L 564.754149 376.908649 
L 566.806602 377.215348 
L 568.82568 377.51683 
L 570.812452 377.813273 
L 572.767934 378.104847 
L 574.693098 378.391712 
L 576.588868 378.674022 
L 578.45613 378.951922 
L 580.295728 379.22555 
L 582.108469 379.495037 
L 583.895127 379.760511 
L 585.656441 380.02209 
L 587.393121 380.279889 
L 589.105845 380.534018 
L 590.795267 380.784582 
L 592.462011 381.03168 
L 594.106678 381.275409 
L 595.729846 381.51586 
L 597.332069 381.753123 
L 598.913881 381.987281 
L 600.475796 382.218416 
L 602.018307 382.446606 
L 603.541892 382.671926 
L 605.047008 382.894448 
L 606.534098 383.114242 
L 608.00359 383.331374 
L 609.455894 383.545909 
L 610.891407 383.75791 
L 612.310515 383.967435 
L 613.713587 384.174543 
L 615.100982 384.37929 
L 616.473047 384.581728 
L 617.830116 384.781911 
L 619.172513 384.979888 
L 620.500554 385.175708 
L 621.81454 385.369417 
L 623.114767 385.561062 
L 624.40152 385.750686 
L 625.675076 385.938332 
L 626.935702 386.12404 
L 628.183658 386.307852 
L 629.419196 386.489804 
" clip-path="url(#p458d841601)" style="fill: none; stroke: #ff7f0e; stroke-width: 1.5; stroke-linecap: square"/>
   </g>
   <g id="patch_9">
    <path d="M 56.357054 458.728 
L 56.357054 279.312 
" style="fill: none; stroke: #000000; stroke-width: 0.8; stroke-linejoin: miter; stroke-linecap: square"/>
   </g>
   <g id="patch_10">
    <path d="M 628.183658 458.728 
L 628.183658 279.312 
" style="fill: none; stroke: #000000; stroke-width: 0.8; stroke-linejoin: miter; stroke-linecap: square"/>
   </g>
   <g id="patch_11">
    <path d="M 56.357054 458.728 
L 628.183658 458.728 
" style="fill: none; stroke: #000000; stroke-width: 0.8; stroke-linejoin: miter; stroke-linecap: square"/>
   </g>
   <g id="patch_12">
    <path d="M 56.357054 279.312 
L 628.183658 279.312 
" style="fill: none; stroke: #000000; stroke-width: 0.8; stroke-linejoin: miter; stroke-linecap: square"/>
   </g>
   <g id="text_30">
    <!-- Output FFT peak ≈ 0.900 (arb.), magnitude ≈ 1.505e+03 | band/flat-ish -->
    <g transform="translate(125.870981 273.312) scale(0.12 -0.12)">
     <defs>
      <path id="DejaVuSans-4f" d="M 2522 4238 
Q 1834 4238 1429 3725 
Q 1025 3213 1025 2328 
Q 1025 1447 1429 934 
Q 1834 422 2522 422 
Q 3209 422 3611 934 
Q 4013 1447 4013 2328 
Q 4013 3213 3611 3725 
Q 3209 4238 2522 4238 
z
M 2522 4750 
Q 3503 4750 4090 4092 
Q 4678 3434 4678 2328 
Q 4678 1225 4090 567 
Q 3503 -91 2522 -91 
Q 1538 -91 948 565 
Q 359 1222 359 2328 
Q 359 3434 948 4092 
Q 1538 4750 2522 4750 
z
" transform="scale(0.015625)"/>
      <path id="DejaVuSans-6b" d="M 581 4863 
L 1159 4863 
L 1159 1991 
L 2875 3500 
L 3609 3500 
L 1753 1863 
L 3688 0 
L 2938 0 
L 1159 1709 
L 1159 0 
L 581 0 
L 581 4863 
z
" transform="scale(0.015625)"/>
      <path id="DejaVuSans-2248" d="M 4684 1947 
L 4684 1388 
Q 4356 1144 4076 1036 
Q 3797 928 3494 928 
Q 3150 928 2694 1113 
Q 2663 1125 2641 1134 
Q 2622 1141 2575 1159 
Q 2091 1350 1797 1350 
Q 1522 1350 1253 1231 
Q 984 1113 678 850 
L 678 1409 
Q 1006 1653 1286 1761 
Q 1566 1869 1869 1869 
Q 2213 1869 2672 1684 
Q 2706 1669 2722 1663 
Q 2741 1656 2788 1638 
Q 3272 1447 3566 1447 
Q 3834 1447 4098 1564 
Q 4363 1681 4684 1947 
z
M 4684 3163 
L 4684 2606 
Q 4356 2359 4076 2251 
Q 3797 2144 3494 2144 
Q 3150 2144 2694 2328 
Q 2663 2341 2641 2350 
Q 2622 2356 2575 2375 
Q 2091 2566 1797 2566 
Q 1522 2566 1253 2447 
Q 984 2328 678 2069 
L 678 2625 
Q 1006 2869 1286 2976 
Q 1566 3084 1869 3084 
Q 2213 3084 2672 2900 
Q 2703 2888 2719 2881 
Q 2741 2872 2788 2853 
Q 3272 2663 3566 2663 
Q 3834 2663 4098 2780 
Q 4363 2897 4684 3163 
z
" transform="scale(0.015625)"/>
      <path id="DejaVuSans-6d" d="M 3328 2828 
Q 3544 3216 3844 3400 
Q 4144 3584 4550 3584 
Q 5097 3584 5394 3201 
Q 5691 2819 5691 2113 
L 5691 0 
L 5113 0 
L 5113 2094 
Q 5113 2597 4934 2840 
Q 4756 3084 4391 3084 
Q 3944 3084 3684 2787 
Q 3425 2491 3425 1978 
L 3425 0 
L 2847 0 
L 2847 2094 
Q 2847 2600 2669 2842 
Q 2491 3084 2119 3084 
Q 1678 3084 1418 2786 
Q 1159 2488 1159 1978 
L 1159 0 
L 581 0 
L 581 3500 
L 1159 3500 
L 1159 2956 
Q 1356 3278 1631 3431 
Q 1906 3584 2284 3584 
Q 2666 3584 2933 3390 
Q 3200 3197 3328 2828 
z
" transform="scale(0.015625)"/>
      <path id="DejaVuSans-2b" d="M 2944 4013 
L 2944 2272 
L 4684 2272 
L 4684 1741 
L 2944 1741 
L 2944 0 
L 2419 0 
L 2419 1741 
L 678 1741 
L 678 2272 
L 2419 2272 
L 2419 4013 
L 2944 4013 
z
" transform="scale(0.015625)"/>
      <path id="DejaVuSans-33" d="M 2597 2516 
Q 3050 2419 3304 2112 
Q 3559 1806 3559 1356 
Q 3559 666 3084 287 
Q 2609 -91 1734 -91 
Q 1441 -91 1130 -33 
Q 819 25 488 141 
L 488 750 
Q 750 597 1062 519 
Q 1375 441 1716 441 
Q 2309 441 2620 675 
Q 2931 909 2931 1356 
Q 2931 1769 2642 2001 
Q 2353 2234 1838 2234 
L 1294 2234 
L 1294 2753 
L 1863 2753 
Q 2328 2753 2575 2939 
Q 2822 3125 2822 3475 
Q 2822 3834 2567 4026 
Q 2313 4219 1838 4219 
Q 1578 4219 1281 4162 
Q 984 4106 628 3988 
L 628 4550 
Q 988 4650 1302 4700 
Q 1616 4750 1894 4750 
Q 2613 4750 3031 4423 
Q 3450 4097 3450 3541 
Q 3450 3153 3228 2886 
Q 3006 2619 2597 2516 
z
" transform="scale(0.015625)"/>
      <path id="DejaVuSans-2f" d="M 1625 4666 
L 2156 4666 
L 531 -594 
L 0 -594 
L 1625 4666 
z
" transform="scale(0.015625)"/>
     </defs>
     <use xlink:href="#DejaVuSans-4f"/>
     <use xlink:href="#DejaVuSans-75" transform="translate(78.710938 0)"/>
     <use xlink:href="#DejaVuSans-74" transform="translate(142.089844 0)"/>
     <use xlink:href="#DejaVuSans-70" transform="translate(181.298828 0)"/>
     <use xlink:href="#DejaVuSans-75" transform="translate(244.775391 0)"/>
     <use xlink:href="#DejaVuSans-74" transform="translate(308.154297 0)"/>
     <use xlink:href="#DejaVuSans-20" transform="translate(347.363281 0)"/>
     <use xlink:href="#DejaVuSans-46" transform="translate(379.150391 0)"/>
     <use xlink:href="#DejaVuSans-46" transform="translate(436.669922 0)"/>
     <use xlink:href="#DejaVuSans-54" transform="translate(492.439453 0)"/>
     <use xlink:href="#DejaVuSans-20" transform="translate(553.523438 0)"/>
     <use xlink:href="#DejaVuSans-70" transform="translate(585.310547 0)"/>
     <use xlink:href="#DejaVuSans-65" transform="translate(648.787109 0)"/>
     <use xlink:href="#DejaVuSans-61" transform="translate(710.310547 0)"/>
     <use xlink:href="#DejaVuSans-6b" transform="translate(771.589844 0)"/>
     <use xlink:href="#DejaVuSans-20" transform="translate(829.5 0)"/>
     <use xlink:href="#DejaVuSans-2248" transform="translate(861.287109 0)"/>
     <use xlink:href="#DejaVuSans-20" transform="translate(945.076172 0)"/>
     <use xlink:href="#DejaVuSans-30" transform="translate(976.863281 0)"/>
     <use xlink:href="#DejaVuSans-2e" transform="translate(1040.486328 0)"/>
     <use xlink:href="#DejaVuSans-39" transform="translate(1072.273438 0)"/>
     <use xlink:href="#DejaVuSans-30" transform="translate(1135.896484 0)"/>
     <use xlink:href="#DejaVuSans-30" transform="translate(1199.519531 0)"/>
     <use xlink:href="#DejaVuSans-20" transform="translate(1263.142578 0)"/>
     <use xlink:href="#DejaVuSans-28" transform="translate(1294.929688 0)"/>
     <use xlink:href="#DejaVuSans-61" transform="translate(1333.943359 0)"/>
     <use xlink:href="#DejaVuSans-72" transform="translate(1395.222656 0)"/>
     <use xlink:href="#DejaVuSans-62" transform="translate(1436.335938 0)"/>
     <use xlink:href="#DejaVuSans-2e" transform="translate(1499.8125 0)"/>
     <use xlink:href="#DejaVuSans-29" transform="translate(1531.599609 0)"/>
     <use xlink:href="#DejaVuSans-2c" transform="translate(1570.613281 0)"/>
     <use xlink:href="#DejaVuSans-20" transform="translate(1602.400391 0)"/>
     <use xlink:href="#DejaVuSans-6d" transform="translate(1634.1875 0)"/>
     <use xlink:href="#DejaVuSans-61" transform="translate(1731.599609 0)"/>
     <use xlink:href="#DejaVuSans-67" transform="translate(1792.878906 0)"/>
     <use xlink:href="#DejaVuSans-6e" transform="translate(1856.355469 0)"/>
     <use xlink:href="#DejaVuSans-69" transform="translate(1919.734375 0)"/>
     <use xlink:href="#DejaVuSans-74" transform="translate(1947.517578 0)"/>
     <use xlink:href="#DejaVuSans-75" transform="translate(1986.726562 0)"/>
     <use xlink:href="#DejaVuSans-64" transform="translate(2050.105469 0)"/>
     <use xlink:href="#DejaVuSans-65" transform="translate(2113.582031 0)"/>
     <use xlink:href="#DejaVuSans-20" transform="translate(2175.105469 0)"/>
     <use xlink:href="#DejaVuSans-2248" transform="translate(2206.892578 0)"/>
     <use xlink:href="#DejaVuSans-20" transform="translate(2290.681641 0)"/>
     <use xlink:href="#DejaVuSans-31" transform="translate(2322.46875 0)"/>
     <use xlink:href="#DejaVuSans-2e" transform="translate(2386.091797 0)"/>
     <use xlink:href="#DejaVuSans-35" transform="translate(2417.878906 0)"/>
     <use xlink:href="#DejaVuSans-30" transform="translate(2481.501953 0)"/>
     <use xlink:href="#DejaVuSans-35" transform="translate(2545.125 0)"/>
     <use xlink:href="#DejaVuSans-65" transform="translate(2608.748047 0)"/>
     <use xlink:href="#DejaVuSans-2b" transform="translate(2670.271484 0)"/>
     <use xlink:href="#DejaVuSans-30" transform="translate(2754.060547 0)"/>
     <use xlink:href="#DejaVuSans-33" transform="translate(2817.683594 0)"/>
     <use xlink:href="#DejaVuSans-20" transform="translate(2881.306641 0)"/>
     <use xlink:href="#DejaVuSans-7c" transform="translate(2913.09375 0)"/>
     <use xlink:href="#DejaVuSans-20" transform="translate(2946.785156 0)"/>
     <use xlink:href="#DejaVuSans-62" transform="translate(2978.572266 0)"/>
     <use xlink:href="#DejaVuSans-61" transform="translate(3042.048828 0)"/>
     <use xlink:href="#DejaVuSans-6e" transform="translate(3103.328125 0)"/>
     <use xlink:href="#DejaVuSans-64" transform="translate(3166.707031 0)"/>
     <use xlink:href="#DejaVuSans-2f" transform="translate(3230.183594 0)"/>
     <use xlink:href="#DejaVuSans-66" transform="translate(3263.875 0)"/>
     <use xlink:href="#DejaVuSans-6c" transform="translate(3299.080078 0)"/>
     <use xlink:href="#DejaVuSans-61" transform="translate(3326.863281 0)"/>
     <use xlink:href="#DejaVuSans-74" transform="translate(3388.142578 0)"/>
     <use xlink:href="#DejaVuSans-2d" transform="translate(3427.351562 0)"/>
     <use xlink:href="#DejaVuSans-69" transform="translate(3463.435547 0)"/>
     <use xlink:href="#DejaVuSans-73" transform="translate(3491.21875 0)"/>
     <use xlink:href="#DejaVuSans-68" transform="translate(3543.318359 0)"/>
    </g>
   </g>
   <g id="legend_2">
    <g id="patch_13">
     <path d="M 535.586783 316.66825 
L 621.183658 316.66825 
Q 623.183658 316.66825 623.183658 314.66825 
L 623.183658 286.312 
Q 623.183658 284.312 621.183658 284.312 
L 535.586783 284.312 
Q 533.586783 284.312 533.586783 286.312 
L 533.586783 314.66825 
Q 533.586783 316.66825 535.586783 316.66825 
z
" style="fill: #ffffff; opacity: 0.8; stroke: #cccccc; stroke-linejoin: miter"/>
    </g>
    <g id="line2d_67">
     <path d="M 537.586783 292.410438 
L 547.586783 292.410438 
L 557.586783 292.410438 
" style="fill: none; stroke: #1f77b4; stroke-opacity: 0.6; stroke-width: 1.5; stroke-linecap: square"/>
    </g>
    <g id="text_31">
     <!-- input FFT -->
     <g transform="translate(565.586783 295.910438) scale(0.1 -0.1)">
      <use xlink:href="#DejaVuSans-69"/>
      <use xlink:href="#DejaVuSans-6e" transform="translate(27.783203 0)"/>
      <use xlink:href="#DejaVuSans-70" transform="translate(91.162109 0)"/>
      <use xlink:href="#DejaVuSans-75" transform="translate(154.638672 0)"/>
      <use xlink:href="#DejaVuSans-74" transform="translate(218.017578 0)"/>
      <use xlink:href="#DejaVuSans-20" transform="translate(257.226562 0)"/>
      <use xlink:href="#DejaVuSans-46" transform="translate(289.013672 0)"/>
      <use xlink:href="#DejaVuSans-46" transform="translate(346.533203 0)"/>
      <use xlink:href="#DejaVuSans-54" transform="translate(402.302734 0)"/>
     </g>
    </g>
    <g id="line2d_68">
     <path d="M 537.586783 307.088562 
L 547.586783 307.088562 
L 557.586783 307.088562 
" style="fill: none; stroke: #ff7f0e; stroke-width: 1.5; stroke-linecap: square"/>
    </g>
    <g id="text_32">
     <!-- output FFT -->
     <g transform="translate(565.586783 310.588562) scale(0.1 -0.1)">
      <use xlink:href="#DejaVuSans-6f"/>
      <use xlink:href="#DejaVuSans-75" transform="translate(61.181641 0)"/>
      <use xlink:href="#DejaVuSans-74" transform="translate(124.560547 0)"/>
      <use xlink:href="#DejaVuSans-70" transform="translate(163.769531 0)"/>
      <use xlink:href="#DejaVuSans-75" transform="translate(227.246094 0)"/>
      <use xlink:href="#DejaVuSans-74" transform="translate(290.625 0)"/>
      <use xlink:href="#DejaVuSans-20" transform="translate(329.833984 0)"/>
      <use xlink:href="#DejaVuSans-46" transform="translate(361.621094 0)"/>
      <use xlink:href="#DejaVuSans-46" transform="translate(419.140625 0)"/>
      <use xlink:href="#DejaVuSans-54" transform="translate(474.910156 0)"/>
     </g>
    </g>
   </g>
  </g>
 </g>
 <defs>
  <clipPath id="pca40eb2e16">
   <rect x="56.357054" y="41.856" width="571.826604" height="179.416"/>
  </clipPath>
  <clipPath id="p458d841601">
   <rect x="56.357054" y="279.312" width="571.826604" height="179.416"/>
  </clipPath>
 </defs>
</svg>
