<?xml version="1.0" encoding="utf-8" standalone="no"?>
<!DOCTYPE svg PUBLIC "-//W3C//DTD SVG 1.1//EN"
  "http://www.w3.org/Graphics/SVG/1.1/DTD/svg11.dtd">
<svg xmlns:xlink="http://www.w3.org/1999/xlink" width="648pt" height="504pt" viewBox="0 0 648 504" xmlns="http://www.w3.org/2000/svg" version="1.1">
 <metadata>
  <rdf:RDF xmlns:dc="http://purl.org/dc/elements/1.1/" xmlns:cc="http://creativecommons.org/ns#" xmlns:rdf="http://www.w3.org/1999/02/22-rdf-syntax-ns#">
   <cc:Work>
    <dc:type rdf:resource="http://purl.org/dc/dcmitype/StillImage"/>
    <dc:date>2026-02-11T03:14:51.011494</dc:date>
    <dc:format>image/svg+xml</dc:format>
    <dc:creator>
     <cc:Agent>
      <dc:title>Matplotlib v3.10.8, https://matplotlib.org/</dc:title>
     </cc:Agent>
    </dc:creator>
   </cc:Work>
  </rdf:RDF>
 </metadata>
 <defs>
  <style type="text/css">*{stroke-linejoin: round; stroke-linecap: butt}</style>
 </defs>
 <g id="figure_1">
  <g id="patch_1">
   <path d="M 0 504 
L 648 504 
L 648 0 
L 0 0 
z
" style="fill: #ffffff"/>
  </g>
  <g id="axes_1">
   <g id="patch_2">
    <path d="M 56.312054 221.272 
L 628.183658 221.272 
L 628.183658 41.856 
L 56.312054 41.856 
z
" style="fill: #ffffff"/>
   </g>
   <g id="matplotlib.axis_1">
    <g id="xtick_1">
     <g id="line2d_1">
      <path d="M 82.306218 221.272 
L 82.306218 41.856 
" clip-path="url(#p2389cb6fb9)" style="fill: none; stroke: #b0b0b0; stroke-opacity: 0.25; stroke-width: 0.8; stroke-linecap: square"/>
     </g>
     <g id="line2d_2">
      <defs>
       <path id="mc87cbedab5" d="M 0 0 
L 0 3.5 
" style="stroke: #000000; stroke-width: 0.8"/>
      </defs>
      <g>
       <use xlink:href="#mc87cbedab5" x="82.306218" y="221.272" style="stroke: #000000; stroke-width: 0.8"/>
      </g>
     </g>
     <g id="text_1">
      <!-- 0 -->
      <g transform="translate(79.124968 235.870437) scale(0.1 -0.1)">
       <defs>
        <path id="DejaVuSans-30" d="M 2034 4250 
Q 1547 4250 1301 3770 
Q 1056 3291 1056 2328 
Q 1056 1369 1301 889 
Q 1547 409 2034 409 
Q 2525 409 2770 889 
Q 3016 1369 3016 2328 
Q 3016 3291 2770 3770 
Q 2525 4250 2034 4250 
z
M 2034 4750 
Q 2819 4750 3233 4129 
Q 3647 3509 3647 2328 
Q 3647 1150 3233 529 
Q 2819 -91 2034 -91 
Q 1250 -91 836 529 
Q 422 1150 422 2328 
Q 422 3509 836 4129 
Q 1250 4750 2034 4750 
z
" transform="scale(0.015625)"/>
       </defs>
       <use xlink:href="#DejaVuSans-30"/>
      </g>
     </g>
    </g>
    <g id="xtick_2">
     <g id="line2d_3">
      <path d="M 186.308264 221.272 
L 186.308264 41.856 
" clip-path="url(#p2389cb6fb9)" style="fill: none; stroke: #b0b0b0; stroke-opacity: 0.25; stroke-width: 0.8; stroke-linecap: square"/>
     </g>
     <g id="line2d_4">
      <g>
       <use xlink:href="#mc87cbedab5" x="186.308264" y="221.272" style="stroke: #000000; stroke-width: 0.8"/>
      </g>
     </g>
     <g id="text_2">
      <!-- 2 -->
      <g transform="translate(183.127014 235.870437) scale(0.1 -0.1)">
       <defs>
        <path id="DejaVuSans-32" d="M 1228 531 
L 3431 531 
L 3431 0 
L 469 0 
L 469 531 
Q 828 903 1448 1529 
Q 2069 2156 2228 2338 
Q 2531 2678 2651 2914 
Q 2772 3150 2772 3378 
Q 2772 3750 2511 3984 
Q 2250 4219 1831 4219 
Q 1534 4219 1204 4116 
Q 875 4013 500 3803 
L 500 4441 
Q 881 4594 1212 4672 
Q 1544 4750 1819 4750 
Q 2544 4750 2975 4387 
Q 3406 4025 3406 3419 
Q 3406 3131 3298 2873 
Q 3191 2616 2906 2266 
Q 2828 2175 2409 1742 
Q 1991 1309 1228 531 
z
" transform="scale(0.015625)"/>
       </defs>
       <use xlink:href="#DejaVuSans-32"/>
      </g>
     </g>
    </g>
    <g id="xtick_3">
     <g id="line2d_5">
      <path d="M 290.31031 221.272 
L 290.31031 41.856 
" clip-path="url(#p2389cb6fb9)" style="fill: none; stroke: #b0b0b0; stroke-opacity: 0.25; stroke-width: 0.8; stroke-linecap: square"/>
     </g>
     <g id="line2d_6">
      <g>
       <use xlink:href="#mc87cbedab5" x="290.31031" y="221.272" style="stroke: #000000; stroke-width: 0.8"/>
      </g>
     </g>
     <g id="text_3">
      <!-- 4 -->
      <g transform="translate(287.12906 235.870437) scale(0.1 -0.1)">
       <defs>
        <path id="DejaVuSans-34" d="M 2419 4116 
L 825 1625 
L 2419 1625 
L 2419 4116 
z
M 2253 4666 
L 3047 4666 
L 3047 1625 
L 3713 1625 
L 3713 1100 
L 3047 1100 
L 3047 0 
L 2419 0 
L 2419 1100 
L 313 1100 
L 313 1709 
L 2253 4666 
z
" transform="scale(0.015625)"/>
       </defs>
       <use xlink:href="#DejaVuSans-34"/>
      </g>
     </g>
    </g>
    <g id="xtick_4">
     <g id="line2d_7">
      <path d="M 394.312357 221.272 
L 394.312357 41.856 
" clip-path="url(#p2389cb6fb9)" style="fill: none; stroke: #b0b0b0; stroke-opacity: 0.25; stroke-width: 0.8; stroke-linecap: square"/>
     </g>
     <g id="line2d_8">
      <g>
       <use xlink:href="#mc87cbedab5" x="394.312357" y="221.272" style="stroke: #000000; stroke-width: 0.8"/>
      </g>
     </g>
     <g id="text_4">
      <!-- 6 -->
      <g transform="translate(391.131107 235.870437) scale(0.1 -0.1)">
       <defs>
        <path id="DejaVuSans-36" d="M 2113 2584 
Q 1688 2584 1439 2293 
Q 1191 2003 1191 1497 
Q 1191 994 1439 701 
Q 1688 409 2113 409 
Q 2538 409 2786 701 
Q 3034 994 3034 1497 
Q 3034 2003 2786 2293 
Q 2538 2584 2113 2584 
z
M 3366 4563 
L 3366 3988 
Q 3128 4100 2886 4159 
Q 2644 4219 2406 4219 
Q 1781 4219 1451 3797 
Q 1122 3375 1075 2522 
Q 1259 2794 1537 2939 
Q 1816 3084 2150 3084 
Q 2853 3084 3261 2657 
Q 3669 2231 3669 1497 
Q 3669 778 3244 343 
Q 2819 -91 2113 -91 
Q 1303 -91 875 529 
Q 447 1150 447 2328 
Q 447 3434 972 4092 
Q 1497 4750 2381 4750 
Q 2619 4750 2861 4703 
Q 3103 4656 3366 4563 
z
" transform="scale(0.015625)"/>
       </defs>
       <use xlink:href="#DejaVuSans-36"/>
      </g>
     </g>
    </g>
    <g id="xtick_5">
     <g id="line2d_9">
      <path d="M 498.314403 221.272 
L 498.314403 41.856 
" clip-path="url(#p2389cb6fb9)" style="fill: none; stroke: #b0b0b0; stroke-opacity: 0.25; stroke-width: 0.8; stroke-linecap: square"/>
     </g>
     <g id="line2d_10">
      <g>
       <use xlink:href="#mc87cbedab5" x="498.314403" y="221.272" style="stroke: #000000; stroke-width: 0.8"/>
      </g>
     </g>
     <g id="text_5">
      <!-- 8 -->
      <g transform="translate(495.133153 235.870437) scale(0.1 -0.1)">
       <defs>
        <path id="DejaVuSans-38" d="M 2034 2216 
Q 1584 2216 1326 1975 
Q 1069 1734 1069 1313 
Q 1069 891 1326 650 
Q 1584 409 2034 409 
Q 2484 409 2743 651 
Q 3003 894 3003 1313 
Q 3003 1734 2745 1975 
Q 2488 2216 2034 2216 
z
M 1403 2484 
Q 997 2584 770 2862 
Q 544 3141 544 3541 
Q 544 4100 942 4425 
Q 1341 4750 2034 4750 
Q 2731 4750 3128 4425 
Q 3525 4100 3525 3541 
Q 3525 3141 3298 2862 
Q 3072 2584 2669 2484 
Q 3125 2378 3379 2068 
Q 3634 1759 3634 1313 
Q 3634 634 3220 271 
Q 2806 -91 2034 -91 
Q 1263 -91 848 271 
Q 434 634 434 1313 
Q 434 1759 690 2068 
Q 947 2378 1403 2484 
z
M 1172 3481 
Q 1172 3119 1398 2916 
Q 1625 2713 2034 2713 
Q 2441 2713 2670 2916 
Q 2900 3119 2900 3481 
Q 2900 3844 2670 4047 
Q 2441 4250 2034 4250 
Q 1625 4250 1398 4047 
Q 1172 3844 1172 3481 
z
" transform="scale(0.015625)"/>
       </defs>
       <use xlink:href="#DejaVuSans-38"/>
      </g>
     </g>
    </g>
    <g id="xtick_6">
     <g id="line2d_11">
      <path d="M 602.316449 221.272 
L 602.316449 41.856 
" clip-path="url(#p2389cb6fb9)" style="fill: none; stroke: #b0b0b0; stroke-opacity: 0.25; stroke-width: 0.8; stroke-linecap: square"/>
     </g>
     <g id="line2d_12">
      <g>
       <use xlink:href="#mc87cbedab5" x="602.316449" y="221.272" style="stroke: #000000; stroke-width: 0.8"/>
      </g>
     </g>
     <g id="text_6">
      <!-- 10 -->
      <g transform="translate(595.953949 235.870437) scale(0.1 -0.1)">
       <defs>
        <path id="DejaVuSans-31" d="M 794 531 
L 1825 531 
L 1825 4091 
L 703 3866 
L 703 4441 
L 1819 4666 
L 2450 4666 
L 2450 531 
L 3481 531 
L 3481 0 
L 794 0 
L 794 531 
z
" transform="scale(0.015625)"/>
       </defs>
       <use xlink:href="#DejaVuSans-31"/>
       <use xlink:href="#DejaVuSans-30" transform="translate(63.623047 0)"/>
      </g>
     </g>
    </g>
    <g id="text_7">
     <!-- t [arb.] -->
     <g transform="translate(324.914262 249.548563) scale(0.1 -0.1)">
      <defs>
       <path id="DejaVuSans-74" d="M 1172 4494 
L 1172 3500 
L 2356 3500 
L 2356 3053 
L 1172 3053 
L 1172 1153 
Q 1172 725 1289 603 
Q 1406 481 1766 481 
L 2356 481 
L 2356 0 
L 1766 0 
Q 1100 0 847 248 
Q 594 497 594 1153 
L 594 3053 
L 172 3053 
L 172 3500 
L 594 3500 
L 594 4494 
L 1172 4494 
z
" transform="scale(0.015625)"/>
       <path id="DejaVuSans-20" transform="scale(0.015625)"/>
       <path id="DejaVuSans-5b" d="M 550 4863 
L 1875 4863 
L 1875 4416 
L 1125 4416 
L 1125 -397 
L 1875 -397 
L 1875 -844 
L 550 -844 
L 550 4863 
z
" transform="scale(0.015625)"/>
       <path id="DejaVuSans-61" d="M 2194 1759 
Q 1497 1759 1228 1600 
Q 959 1441 959 1056 
Q 959 750 1161 570 
Q 1363 391 1709 391 
Q 2188 391 2477 730 
Q 2766 1069 2766 1631 
L 2766 1759 
L 2194 1759 
z
M 3341 1997 
L 3341 0 
L 2766 0 
L 2766 531 
Q 2569 213 2275 61 
Q 1981 -91 1556 -91 
Q 1019 -91 701 211 
Q 384 513 384 1019 
Q 384 1609 779 1909 
Q 1175 2209 1959 2209 
L 2766 2209 
L 2766 2266 
Q 2766 2663 2505 2880 
Q 2244 3097 1772 3097 
Q 1472 3097 1187 3025 
Q 903 2953 641 2809 
L 641 3341 
Q 956 3463 1253 3523 
Q 1550 3584 1831 3584 
Q 2591 3584 2966 3190 
Q 3341 2797 3341 1997 
z
" transform="scale(0.015625)"/>
       <path id="DejaVuSans-72" d="M 2631 2963 
Q 2534 3019 2420 3045 
Q 2306 3072 2169 3072 
Q 1681 3072 1420 2755 
Q 1159 2438 1159 1844 
L 1159 0 
L 581 0 
L 581 3500 
L 1159 3500 
L 1159 2956 
Q 1341 3275 1631 3429 
Q 1922 3584 2338 3584 
Q 2397 3584 2469 3576 
Q 2541 3569 2628 3553 
L 2631 2963 
z
" transform="scale(0.015625)"/>
       <path id="DejaVuSans-62" d="M 3116 1747 
Q 3116 2381 2855 2742 
Q 2594 3103 2138 3103 
Q 1681 3103 1420 2742 
Q 1159 2381 1159 1747 
Q 1159 1113 1420 752 
Q 1681 391 2138 391 
Q 2594 391 2855 752 
Q 3116 1113 3116 1747 
z
M 1159 2969 
Q 1341 3281 1617 3432 
Q 1894 3584 2278 3584 
Q 2916 3584 3314 3078 
Q 3713 2572 3713 1747 
Q 3713 922 3314 415 
Q 2916 -91 2278 -91 
Q 1894 -91 1617 61 
Q 1341 213 1159 525 
L 1159 0 
L 581 0 
L 581 4863 
L 1159 4863 
L 1159 2969 
z
" transform="scale(0.015625)"/>
       <path id="DejaVuSans-2e" d="M 684 794 
L 1344 794 
L 1344 0 
L 684 0 
L 684 794 
z
" transform="scale(0.015625)"/>
       <path id="DejaVuSans-5d" d="M 1947 4863 
L 1947 -844 
L 622 -844 
L 622 -397 
L 1369 -397 
L 1369 4416 
L 622 4416 
L 622 4863 
L 1947 4863 
z
" transform="scale(0.015625)"/>
      </defs>
      <use xlink:href="#DejaVuSans-74"/>
      <use xlink:href="#DejaVuSans-20" transform="translate(39.208984 0)"/>
      <use xlink:href="#DejaVuSans-5b" transform="translate(70.996094 0)"/>
      <use xlink:href="#DejaVuSans-61" transform="translate(110.009766 0)"/>
      <use xlink:href="#DejaVuSans-72" transform="translate(171.289062 0)"/>
      <use xlink:href="#DejaVuSans-62" transform="translate(212.402344 0)"/>
      <use xlink:href="#DejaVuSans-2e" transform="translate(275.878906 0)"/>
      <use xlink:href="#DejaVuSans-5d" transform="translate(307.666016 0)"/>
     </g>
    </g>
   </g>
   <g id="matplotlib.axis_2">
    <g id="ytick_1">
     <g id="line2d_13">
      <path d="M 56.312054 196.375021 
L 628.183658 196.375021 
" clip-path="url(#p2389cb6fb9)" style="fill: none; stroke: #b0b0b0; stroke-opacity: 0.25; stroke-width: 0.8; stroke-linecap: square"/>
     </g>
     <g id="line2d_14">
      <defs>
       <path id="mff5c7ea201" d="M 0 0 
L -3.5 0 
" style="stroke: #000000; stroke-width: 0.8"/>
      </defs>
      <g>
       <use xlink:href="#mff5c7ea201" x="56.312054" y="196.375021" style="stroke: #000000; stroke-width: 0.8"/>
      </g>
     </g>
     <g id="text_8">
      <!-- −1.0 -->
      <g transform="translate(25.029241 200.174239) scale(0.1 -0.1)">
       <defs>
        <path id="DejaVuSans-2212" d="M 678 2272 
L 4684 2272 
L 4684 1741 
L 678 1741 
L 678 2272 
z
" transform="scale(0.015625)"/>
       </defs>
       <use xlink:href="#DejaVuSans-2212"/>
       <use xlink:href="#DejaVuSans-31" transform="translate(83.789062 0)"/>
       <use xlink:href="#DejaVuSans-2e" transform="translate(147.412109 0)"/>
       <use xlink:href="#DejaVuSans-30" transform="translate(179.199219 0)"/>
      </g>
     </g>
    </g>
    <g id="ytick_2">
     <g id="line2d_15">
      <path d="M 56.312054 163.969511 
L 628.183658 163.969511 
" clip-path="url(#p2389cb6fb9)" style="fill: none; stroke: #b0b0b0; stroke-opacity: 0.25; stroke-width: 0.8; stroke-linecap: square"/>
     </g>
     <g id="line2d_16">
      <g>
       <use xlink:href="#mff5c7ea201" x="56.312054" y="163.969511" style="stroke: #000000; stroke-width: 0.8"/>
      </g>
     </g>
     <g id="text_9">
      <!-- −0.5 -->
      <g transform="translate(25.029241 167.76873) scale(0.1 -0.1)">
       <defs>
        <path id="DejaVuSans-35" d="M 691 4666 
L 3169 4666 
L 3169 4134 
L 1269 4134 
L 1269 2991 
Q 1406 3038 1543 3061 
Q 1681 3084 1819 3084 
Q 2600 3084 3056 2656 
Q 3513 2228 3513 1497 
Q 3513 744 3044 326 
Q 2575 -91 1722 -91 
Q 1428 -91 1123 -41 
Q 819 9 494 109 
L 494 744 
Q 775 591 1075 516 
Q 1375 441 1709 441 
Q 2250 441 2565 725 
Q 2881 1009 2881 1497 
Q 2881 1984 2565 2268 
Q 2250 2553 1709 2553 
Q 1456 2553 1204 2497 
Q 953 2441 691 2322 
L 691 4666 
z
" transform="scale(0.015625)"/>
       </defs>
       <use xlink:href="#DejaVuSans-2212"/>
       <use xlink:href="#DejaVuSans-30" transform="translate(83.789062 0)"/>
       <use xlink:href="#DejaVuSans-2e" transform="translate(147.412109 0)"/>
       <use xlink:href="#DejaVuSans-35" transform="translate(179.199219 0)"/>
      </g>
     </g>
    </g>
    <g id="ytick_3">
     <g id="line2d_17">
      <path d="M 56.312054 131.564002 
L 628.183658 131.564002 
" clip-path="url(#p2389cb6fb9)" style="fill: none; stroke: #b0b0b0; stroke-opacity: 0.25; stroke-width: 0.8; stroke-linecap: square"/>
     </g>
     <g id="line2d_18">
      <g>
       <use xlink:href="#mff5c7ea201" x="56.312054" y="131.564002" style="stroke: #000000; stroke-width: 0.8"/>
      </g>
     </g>
     <g id="text_10">
      <!-- 0.0 -->
      <g transform="translate(33.408929 135.363221) scale(0.1 -0.1)">
       <use xlink:href="#DejaVuSans-30"/>
       <use xlink:href="#DejaVuSans-2e" transform="translate(63.623047 0)"/>
       <use xlink:href="#DejaVuSans-30" transform="translate(95.410156 0)"/>
      </g>
     </g>
    </g>
    <g id="ytick_4">
     <g id="line2d_19">
      <path d="M 56.312054 99.158492 
L 628.183658 99.158492 
" clip-path="url(#p2389cb6fb9)" style="fill: none; stroke: #b0b0b0; stroke-opacity: 0.25; stroke-width: 0.8; stroke-linecap: square"/>
     </g>
     <g id="line2d_20">
      <g>
       <use xlink:href="#mff5c7ea201" x="56.312054" y="99.158492" style="stroke: #000000; stroke-width: 0.8"/>
      </g>
     </g>
     <g id="text_11">
      <!-- 0.5 -->
      <g transform="translate(33.408929 102.957711) scale(0.1 -0.1)">
       <use xlink:href="#DejaVuSans-30"/>
       <use xlink:href="#DejaVuSans-2e" transform="translate(63.623047 0)"/>
       <use xlink:href="#DejaVuSans-35" transform="translate(95.410156 0)"/>
      </g>
     </g>
    </g>
    <g id="ytick_5">
     <g id="line2d_21">
      <path d="M 56.312054 66.752983 
L 628.183658 66.752983 
" clip-path="url(#p2389cb6fb9)" style="fill: none; stroke: #b0b0b0; stroke-opacity: 0.25; stroke-width: 0.8; stroke-linecap: square"/>
     </g>
     <g id="line2d_22">
      <g>
       <use xlink:href="#mff5c7ea201" x="56.312054" y="66.752983" style="stroke: #000000; stroke-width: 0.8"/>
      </g>
     </g>
     <g id="text_12">
      <!-- 1.0 -->
      <g transform="translate(33.408929 70.552202) scale(0.1 -0.1)">
       <use xlink:href="#DejaVuSans-31"/>
       <use xlink:href="#DejaVuSans-2e" transform="translate(63.623047 0)"/>
       <use xlink:href="#DejaVuSans-30" transform="translate(95.410156 0)"/>
      </g>
     </g>
    </g>
    <g id="text_13">
     <!-- [arb.] -->
     <g transform="translate(18.949554 145.348375) rotate(-90) scale(0.1 -0.1)">
      <use xlink:href="#DejaVuSans-5b"/>
      <use xlink:href="#DejaVuSans-61" transform="translate(39.013672 0)"/>
      <use xlink:href="#DejaVuSans-72" transform="translate(100.292969 0)"/>
      <use xlink:href="#DejaVuSans-62" transform="translate(141.40625 0)"/>
      <use xlink:href="#DejaVuSans-2e" transform="translate(204.882812 0)"/>
      <use xlink:href="#DejaVuSans-5d" transform="translate(236.669922 0)"/>
     </g>
    </g>
   </g>
   <g id="line2d_23">
    <path d="M 82.306218 131.564002 
L 85.353153 94.839127 
L 86.87662 78.983478 
L 88.146176 67.919411 
L 89.161821 60.781515 
L 90.050511 55.935867 
L 90.812244 52.895371 
L 91.447023 51.178924 
L 91.954845 50.352934 
L 92.335712 50.05615 
L 92.716579 50.037184 
L 93.097446 50.296101 
L 93.478313 50.832019 
L 93.986135 51.974173 
L 94.620913 54.078829 
L 95.382647 57.570076 
L 96.271336 62.913049 
L 97.286981 70.570436 
L 98.429582 80.938392 
L 99.826094 95.678676 
L 101.857384 119.843888 
L 106.046919 170.525308 
L 107.570387 186.049045 
L 108.839943 196.756572 
L 109.855588 203.566423 
L 110.744277 208.100528 
L 111.506011 210.860359 
L 112.140789 212.33622 
L 112.648612 212.966993 
L 113.029478 213.116537 
L 113.410345 212.98811 
L 113.791212 212.582149 
L 114.299035 211.611678 
L 114.806857 210.156263 
L 115.441635 207.668749 
L 116.203369 203.735626 
L 117.092058 197.90891 
L 118.107703 189.751496 
L 119.37726 177.601308 
L 120.900727 160.771444 
L 123.312884 131.276132 
L 126.232863 96.003959 
L 127.883286 78.763757 
L 129.152843 67.739811 
L 130.168488 60.638978 
L 131.057177 55.82862 
L 131.818911 52.819982 
L 132.453689 51.130886 
L 132.961511 50.327117 
L 133.342378 50.047108 
L 133.723245 50.044949 
L 134.104112 50.320646 
L 134.484979 50.87326 
L 134.992801 52.037448 
L 135.627579 54.169091 
L 136.389313 57.691573 
L 137.278002 63.068867 
L 138.293647 70.761906 
L 139.436248 81.164396 
L 140.83276 95.937403 
L 142.86405 120.128843 
L 147.053585 170.777959 
L 148.577053 186.262902 
L 149.846609 196.929122 
L 150.862254 203.70115 
L 151.750943 208.199454 
L 152.512677 210.927112 
L 153.147455 212.375449 
L 153.655278 212.983923 
L 154.036145 213.116667 
L 154.417012 212.971441 
L 154.797878 212.548738 
L 155.305701 211.55613 
L 155.940479 209.634875 
L 156.575257 206.974818 
L 157.336991 202.84345 
L 158.22568 196.80099 
L 159.368281 187.27377 
L 160.637837 174.70266 
L 162.28826 156.003668 
L 165.716062 113.674597 
L 167.747352 90.155349 
L 169.270819 75.018872 
L 170.41342 65.642551 
L 171.429065 58.99429 
L 172.317754 54.612978 
L 173.079488 51.990338 
L 173.714266 50.63177 
L 174.222089 50.095975 
L 174.602956 50.017955 
L 174.983822 50.217884 
L 175.364689 50.69508 
L 175.872512 51.7597 
L 176.50729 53.769318 
L 177.269024 57.150464 
L 178.157713 62.372311 
L 179.173358 69.903663 
L 180.315959 80.149252 
L 181.712471 94.773093 
L 183.616805 117.278388 
L 188.187207 172.411614 
L 189.710675 187.63916 
L 190.853275 197.100857 
L 191.86892 203.834979 
L 192.75761 208.297425 
L 193.519343 210.992876 
L 194.154122 212.413671 
L 194.661944 212.999838 
L 195.042811 213.115782 
L 195.423678 212.953757 
L 195.804545 212.514317 
L 196.312367 211.499585 
L 196.947145 209.551172 
L 197.581923 206.864748 
L 198.343657 202.703137 
L 199.232346 196.627837 
L 200.374947 187.063188 
L 201.644503 174.458092 
L 203.294926 155.728876 
L 209.642708 80.770874 
L 210.912264 69.389759 
L 212.054864 61.143738 
L 212.943554 56.209638 
L 213.705287 53.089223 
L 214.340066 51.304112 
L 214.847888 50.422306 
L 215.228755 50.083365 
L 215.609622 50.02215 
L 215.990489 50.23887 
L 216.371356 50.732785 
L 216.879178 51.819486 
L 217.513956 53.856182 
L 218.27569 57.268714 
L 219.164379 62.525114 
L 220.180024 70.092453 
L 221.322625 80.373026 
L 222.719137 95.030234 
L 224.623471 117.561896 
L 229.193873 172.660517 
L 230.717341 187.847832 
L 231.859942 197.271775 
L 232.875587 203.967907 
L 233.764276 208.394439 
L 234.52601 211.057651 
L 235.160788 212.450886 
L 235.66861 213.014739 
L 236.049477 213.11388 
L 236.430344 212.93506 
L 236.811211 212.478887 
L 237.319033 211.442043 
L 237.953811 209.466497 
L 238.715545 206.124863 
L 239.604235 200.946539 
L 240.61988 193.460553 
L 241.76248 183.25912 
L 243.158992 168.677479 
L 245.063326 146.205725 
L 249.760684 89.660382 
L 251.284152 74.605408 
L 252.426753 65.30524 
L 253.442397 58.733417 
L 254.331087 54.424233 
L 255.092821 51.866255 
L 255.600643 50.762539 
L 256.108466 50.148334 
L 256.489332 50.011273 
L 256.870199 50.152183 
L 257.251066 50.570584 
L 257.758889 51.557504 
L 258.393667 53.471776 
L 259.028445 56.125053 
L 259.790179 60.248641 
L 260.678868 66.28265 
L 261.821469 75.800232 
L 263.091025 88.362584 
L 264.741448 107.053771 
L 268.16925 149.381227 
L 270.20054 172.908909 
L 271.724007 188.055803 
L 272.866608 197.441874 
L 273.882253 204.099933 
L 274.770942 208.490497 
L 275.532676 211.121435 
L 276.167454 212.487093 
L 276.675276 213.028624 
L 277.056143 213.110962 
L 277.43701 212.915348 
L 277.817877 212.442449 
L 278.3257 211.383507 
L 278.960478 209.380851 
L 279.722211 206.007777 
L 280.610901 200.79482 
L 281.626546 193.27273 
L 282.769146 183.036152 
L 284.165658 168.420915 
L 286.069993 145.922441 
L 290.640395 90.780432 
L 292.163862 75.542579 
L 293.306463 66.0712 
L 294.322108 59.327329 
L 295.210797 54.855663 
L 295.972531 52.151932 
L 296.607309 50.724058 
L 297.115132 50.132158 
L 297.495999 50.011897 
L 297.876866 50.169605 
L 298.257732 50.604745 
L 298.765555 51.613793 
L 299.400333 53.55523 
L 300.035111 56.234881 
L 300.796845 60.388725 
L 301.685534 66.455594 
L 302.828135 76.010636 
L 304.097691 88.607014 
L 305.748114 107.328485 
L 309.429827 152.742988 
L 311.334162 174.514167 
L 312.730673 188.26307 
L 313.873274 197.611153 
L 314.888919 204.231055 
L 315.777608 208.585596 
L 316.539342 211.184228 
L 317.17412 212.522291 
L 317.681943 213.041495 
L 318.06281 213.107028 
L 318.443676 212.894623 
L 318.824543 212.405004 
L 319.332366 211.323976 
L 319.967144 209.294235 
L 320.728878 205.889765 
L 321.617567 200.642237 
L 322.633212 193.084138 
L 323.775813 182.812542 
L 325.172324 168.163891 
L 327.076659 145.638978 
L 331.647061 90.531398 
L 333.170529 75.333727 
L 334.313129 65.900072 
L 335.328774 59.194169 
L 336.217464 54.758403 
L 336.979197 52.086903 
L 337.613976 50.686585 
L 338.121798 50.116997 
L 338.502665 50.013538 
L 338.883532 50.188042 
L 339.264399 50.639916 
L 339.772221 51.671079 
L 340.406999 53.639655 
L 341.168733 56.973204 
L 342.057422 62.142617 
L 343.073067 69.61931 
L 344.215668 79.811691 
L 345.61218 94.384669 
L 347.516514 116.849513 
L 352.213872 173.404142 
L 353.73734 188.46963 
L 354.87994 197.779609 
L 355.895585 204.361271 
L 356.784275 208.679735 
L 357.546008 211.246028 
L 358.053831 212.355414 
L 358.561653 212.975349 
L 358.94252 213.116727 
L 359.323387 212.980134 
L 359.704254 212.566035 
L 360.212076 211.584803 
L 360.846855 209.677516 
L 361.481633 207.031021 
L 362.243366 202.915217 
L 363.132056 196.889664 
L 364.274656 187.381727 
L 365.544213 174.828144 
L 367.194636 156.144777 
L 370.495482 115.371506 
L 372.653727 90.282875 
L 374.177195 75.125576 
L 375.319796 65.729762 
L 376.335441 59.061912 
L 377.22413 54.662099 
L 377.985864 52.022865 
L 378.620642 50.650119 
L 379.128464 50.10285 
L 379.509331 50.016195 
L 379.890198 50.207493 
L 380.271065 50.676095 
L 380.778887 51.72936 
L 381.413665 53.725052 
L 382.175399 57.09005 
L 383.064089 62.294114 
L 384.079734 69.806935 
L 385.222334 80.034494 
L 386.618846 94.641116 
L 388.52318 117.13275 
L 393.093583 172.283495 
L 394.61705 187.531643 
L 395.759651 197.012697 
L 396.775296 203.766311 
L 397.663985 208.247193 
L 398.425719 210.959201 
L 399.060497 212.394153 
L 399.56832 212.991786 
L 399.949186 213.116364 
L 400.330053 212.962972 
L 400.71092 212.532133 
L 401.218743 211.52877 
L 401.853521 209.594312 
L 402.488299 206.921435 
L 403.250033 202.775361 
L 404.138722 196.716929 
L 405.281323 187.171501 
L 406.550879 174.583852 
L 408.201302 155.870141 
L 411.756059 111.993578 
L 413.787349 88.676738 
L 415.183861 74.918128 
L 416.326462 65.560272 
L 417.342107 58.930557 
L 418.230796 54.566754 
L 418.99253 51.959817 
L 419.627308 50.614661 
L 420.13513 50.089719 
L 420.515997 50.019867 
L 420.896864 50.227958 
L 421.277731 50.713281 
L 421.785554 51.788635 
L 422.420332 53.811418 
L 423.182065 57.207825 
L 424.070755 62.446475 
L 425.0864 69.99533 
L 426.229 80.25794 
L 427.625512 94.898022 
L 429.529847 117.416167 
L 434.100249 172.53266 
L 435.623716 187.740675 
L 436.766317 197.184035 
L 437.781962 203.899702 
L 438.670651 208.344699 
L 439.432385 211.024484 
L 440.067163 212.431886 
L 440.574986 213.007208 
L 440.955853 213.114984 
L 441.336719 212.944796 
L 441.717586 212.497222 
L 442.225409 211.47174 
L 442.860187 209.510136 
L 443.494965 206.810909 
L 444.256699 202.634617 
L 445.145388 196.543381 
L 446.287989 186.960582 
L 447.557545 174.339024 
L 449.207968 155.595202 
L 455.555749 80.661479 
L 456.825306 69.299303 
L 457.967906 61.073271 
L 458.856595 56.156242 
L 459.618329 53.05126 
L 460.253107 51.279414 
L 460.76093 50.408395 
L 461.141797 50.077603 
L 461.522664 50.024556 
L 461.90353 50.249436 
L 462.284397 50.751475 
L 462.79222 51.848905 
L 463.426998 53.898753 
L 464.188732 57.326526 
L 465.077421 62.599697 
L 466.093066 70.184492 
L 467.235667 80.482024 
L 468.632178 95.155385 
L 470.536513 117.699761 
L 475.106915 172.781314 
L 476.630383 187.949006 
L 477.772983 197.354556 
L 478.788628 204.032192 
L 479.677318 208.441249 
L 480.439051 211.088777 
L 481.073829 212.468611 
L 481.581652 213.021615 
L 481.962519 213.112589 
L 482.343386 212.925605 
L 482.724253 212.461302 
L 483.232075 211.413715 
L 483.866853 209.424989 
L 484.628587 206.068068 
L 485.517276 200.872902 
L 486.532921 193.369356 
L 487.675522 183.150825 
L 489.072034 168.552831 
L 490.976368 146.068054 
L 495.673726 89.540405 
L 497.070238 75.650188 
L 498.212839 66.159467 
L 499.228484 59.396115 
L 500.117173 54.906021 
L 500.878907 52.185738 
L 501.513685 50.743709 
L 502.021507 50.140345 
L 502.402374 50.011449 
L 502.783241 50.160525 
L 503.164108 50.587062 
L 503.67193 51.58474 
L 504.306708 53.512218 
L 504.941487 56.178319 
L 505.70322 60.316619 
L 506.59191 66.366609 
L 507.73451 75.902414 
L 509.004067 88.481324 
L 510.65449 107.18726 
L 514.082291 149.517743 
L 516.113581 173.029455 
L 517.637049 188.156635 
L 518.77965 197.524256 
L 519.795294 204.163779 
L 520.683984 208.53684 
L 521.445718 211.15208 
L 522.080496 212.504327 
L 522.588318 213.035007 
L 522.969185 213.109177 
L 523.350052 212.905401 
L 523.730919 212.424375 
L 524.238741 211.354695 
L 524.873519 209.338872 
L 525.635253 205.950532 
L 526.523943 200.720763 
L 527.539588 193.181159 
L 528.682188 182.927544 
L 530.0787 168.296043 
L 531.983034 145.784683 
L 536.553437 90.659323 
L 538.076904 75.440977 
L 539.219505 65.987919 
L 540.23515 59.262493 
L 541.123839 54.80827 
L 541.885573 52.120201 
L 542.520351 50.705718 
L 543.028174 50.124662 
L 543.40904 50.012568 
L 543.789907 50.17844 
L 544.170774 50.621714 
L 544.678597 51.641513 
L 545.313375 53.596144 
L 545.948153 56.288603 
L 546.709887 60.457135 
L 547.598576 66.539948 
L 548.741177 76.113155 
L 550.010733 88.726015 
L 551.661156 107.462122 
L 558.008937 182.408709 
L 559.278493 193.780901 
L 560.421094 202.017504 
L 561.309783 206.94356 
L 562.071517 210.056702 
L 562.706295 211.835562 
L 563.214118 212.712284 
L 563.594984 213.047384 
L 563.975851 213.104749 
L 564.356718 212.884184 
L 564.737585 212.386439 
L 565.245408 211.294681 
L 565.880186 209.251785 
L 566.641919 205.832069 
L 567.530609 200.567762 
L 568.546254 192.992194 
L 569.688854 182.703623 
L 571.085366 168.038797 
L 572.989701 145.501134 
L 577.560103 90.410537 
L 579.08357 75.232466 
L 580.226171 65.817189 
L 581.241816 59.129772 
L 582.130505 54.711474 
L 582.892239 52.055653 
L 583.527017 50.668734 
L 584.03484 50.109994 
L 584.415707 50.014702 
L 584.796573 50.19737 
L 585.17744 50.657375 
L 585.685263 51.699283 
L 586.320041 53.681042 
L 587.081775 57.029882 
L 587.970464 62.216146 
L 588.986109 69.710411 
L 590.12871 79.919906 
L 591.525221 94.50926 
L 593.429556 116.98716 
L 598.126914 173.524184 
L 599.523426 187.423942 
L 600.666026 196.924322 
L 601.681671 203.697406 
L 602.189494 206.438076 
L 602.189494 206.438076 
" clip-path="url(#p2389cb6fb9)" style="fill: none; stroke: #1f77b4; stroke-width: 1.5; stroke-linecap: square"/>
   </g>
   <g id="line2d_24">
    <path d="M 82.306218 131.564002 
L 83.70273 131.437245 
L 85.099241 131.085978 
L 86.622709 130.469437 
L 88.400088 129.491967 
L 90.685289 127.949953 
L 96.271336 124.053246 
L 98.048715 123.141676 
L 99.572182 122.594755 
L 100.968694 122.314168 
L 102.365206 122.260889 
L 103.761718 122.439953 
L 105.15823 122.84575 
L 106.681697 123.527966 
L 108.33212 124.510335 
L 110.490366 126.079582 
L 117.472925 131.418042 
L 119.123348 132.29809 
L 120.646816 132.867078 
L 122.043328 133.158264 
L 123.43984 133.217361 
L 124.836351 133.043795 
L 126.232863 132.647587 
L 127.756331 131.985381 
L 129.533709 130.960606 
L 131.818911 129.369422 
L 137.024091 125.643001 
L 138.80147 124.673123 
L 140.324937 124.069823 
L 141.721449 123.734095 
L 143.117961 123.624077 
L 144.514473 123.746552 
L 145.910985 124.09766 
L 147.434452 124.724349 
L 149.084875 125.653637 
L 151.116165 127.071794 
L 154.797878 129.994496 
L 157.463947 131.971289 
L 159.368281 133.107633 
L 160.891748 133.777707 
L 162.28826 134.172404 
L 163.684772 134.339817 
L 165.081284 134.273742 
L 166.477796 133.978622 
L 168.001263 133.413198 
L 169.651686 132.551242 
L 171.682976 131.218316 
L 175.491645 128.364569 
L 178.030757 126.608511 
L 179.808136 125.625342 
L 181.331604 125.011557 
L 182.728115 124.666782 
L 184.124627 124.548082 
L 185.521139 124.662064 
L 186.917651 125.004692 
L 188.441119 125.621943 
L 190.091542 126.54056 
L 192.122832 127.944649 
L 195.804545 130.838478 
L 198.470613 132.791533 
L 200.374947 133.909703 
L 201.898415 134.564723 
L 203.294926 134.945392 
L 204.691438 135.098728 
L 206.08795 135.0187 
L 207.484462 134.709924 
L 209.007929 134.130135 
L 210.658353 133.253463 
L 212.689643 131.903923 
L 216.625267 128.929279 
L 219.164379 127.175673 
L 220.941758 126.203207 
L 222.465225 125.603135 
L 223.861737 125.273482 
L 225.258249 125.171233 
L 226.654761 125.301854 
L 228.051273 125.66017 
L 229.57474 126.292167 
L 231.225163 127.222531 
L 233.256453 128.633128 
L 240.746835 134.119393 
L 242.397258 134.909684 
L 243.920726 135.388928 
L 245.317238 135.594578 
L 246.713749 135.567491 
L 248.110261 135.309553 
L 249.506773 134.833182 
L 251.157196 134.019762 
L 253.061531 132.811217 
L 255.854554 130.729602 
L 259.536267 128.013566 
L 261.440602 126.881114 
L 263.091025 126.154888 
L 264.614492 125.738683 
L 266.011004 125.592492 
L 267.407516 125.679078 
L 268.804028 125.995019 
L 270.327495 126.584658 
L 271.977918 127.475908 
L 274.009208 128.850991 
L 277.43701 131.509923 
L 280.230034 133.563218 
L 282.134368 134.696585 
L 283.784791 135.415882 
L 285.181303 135.797581 
L 286.577815 135.952774 
L 287.974327 135.874818 
L 289.370839 135.567708 
L 290.894306 134.988583 
L 292.544729 134.110489 
L 294.576019 132.755101 
L 298.130777 130.043019 
L 300.796845 128.133433 
L 302.701179 127.036435 
L 304.351602 126.350927 
L 305.748114 125.998858 
L 307.144626 125.873681 
L 308.541138 125.981476 
L 309.93765 126.317678 
L 311.461117 126.927052 
L 313.11154 127.835446 
L 315.14283 129.223648 
L 319.20541 132.369083 
L 321.617567 134.072979 
L 323.394946 135.078103 
L 324.918413 135.705908 
L 326.314925 136.060734 
L 327.711437 136.187879 
L 329.107949 136.081835 
L 330.504461 135.747738 
L 332.027928 135.141706 
L 333.678351 134.238886 
L 335.709641 132.861287 
L 343.200023 127.487713 
L 344.850446 126.720483 
L 346.373914 126.26206 
L 347.770425 126.075153 
L 349.166937 126.120706 
L 350.563449 126.396882 
L 352.086917 126.946379 
L 353.73734 127.799995 
L 355.641674 129.048871 
L 358.561653 131.275294 
L 361.989455 133.838256 
L 363.893789 134.994643 
L 365.544213 135.741491 
L 367.06768 136.176581 
L 368.464192 136.339911 
L 369.860704 136.270256 
L 371.257216 135.970998 
L 372.780683 135.399226 
L 374.431106 134.526886 
L 376.462396 133.174373 
L 379.890198 130.551618 
L 382.683222 128.526017 
L 384.587556 127.410684 
L 386.237979 126.706529 
L 387.634491 126.33734 
L 389.031003 126.194427 
L 390.427515 126.28448 
L 391.824027 126.603552 
L 393.347494 127.195625 
L 394.997917 128.087689 
L 397.029207 129.46027 
L 400.71092 132.300624 
L 403.376988 134.217898 
L 405.281323 135.311882 
L 406.80479 135.948256 
L 408.201302 136.312287 
L 409.597814 136.449327 
L 410.994326 136.353254 
L 412.390837 136.028588 
L 413.914305 135.43154 
L 415.564728 134.53614 
L 417.596018 133.163347 
L 421.531642 130.142577 
L 424.070755 128.358405 
L 425.848133 127.364275 
L 427.371601 126.745561 
L 428.768113 126.398846 
L 430.164625 126.279647 
L 431.561137 126.393517 
L 432.957648 126.735366 
L 434.481116 127.349823 
L 436.131539 128.261792 
L 438.162829 129.650759 
L 445.653211 135.067957 
L 447.303634 135.845081 
L 448.827101 136.312643 
L 450.223613 136.507886 
L 451.620125 136.470586 
L 453.016637 136.202537 
L 454.540104 135.661709 
L 456.190527 134.8172 
L 458.094862 133.578394 
L 461.014841 131.36638 
L 464.442643 128.818681 
L 466.346977 127.670061 
L 467.9974 126.929601 
L 469.520868 126.500182 
L 470.91738 126.341907 
L 472.313892 126.416528 
L 473.710403 126.72071 
L 475.233871 127.297857 
L 476.884294 128.176082 
L 478.915584 129.53601 
L 482.343386 132.171874 
L 485.136409 134.208756 
L 487.040744 135.332037 
L 488.691167 136.043186 
L 490.087679 136.418323 
L 491.484191 136.567169 
L 492.880702 136.482987 
L 494.277214 136.169683 
L 495.800682 135.583733 
L 497.451105 134.698048 
L 499.482395 133.332881 
L 503.037152 130.602171 
L 505.70322 128.677281 
L 507.607555 127.568764 
L 509.257978 126.873002 
L 510.65449 126.512155 
L 512.051001 126.378196 
L 513.447513 126.477293 
L 514.844025 126.80497 
L 516.367493 127.405341 
L 518.017916 128.304443 
L 520.049206 129.682015 
L 523.98483 132.712956 
L 526.523943 134.504349 
L 528.301321 135.503784 
L 529.824789 136.127157 
L 531.221301 136.478187 
L 532.617812 136.601704 
L 534.014324 136.492108 
L 535.410836 136.154445 
L 536.934304 135.544405 
L 538.584727 134.63699 
L 540.616017 133.253222 
L 548.106398 127.850774 
L 549.756822 127.076062 
L 551.280289 126.610549 
L 552.676801 126.417081 
L 554.073313 126.456105 
L 555.469825 126.725871 
L 556.993292 127.268618 
L 558.643715 128.115317 
L 560.548049 129.356868 
L 563.468029 131.57367 
L 566.895831 134.127966 
L 568.800165 135.280654 
L 570.450588 136.024811 
L 571.974056 136.457729 
L 573.370567 136.619235 
L 574.767079 136.547825 
L 576.163591 136.246786 
L 577.687059 135.672944 
L 579.337482 134.798093 
L 581.368772 133.441949 
L 584.796573 130.811382 
L 587.589597 128.777774 
L 589.493932 127.656248 
L 591.144355 126.946371 
L 592.540866 126.572178 
L 593.937378 126.424202 
L 595.33389 126.509221 
L 596.730402 126.823377 
L 598.253869 127.410325 
L 599.904293 128.297228 
L 601.935583 129.664168 
L 602.189494 129.850591 
L 602.189494 129.850591 
" clip-path="url(#p2389cb6fb9)" style="fill: none; stroke: #ff7f0e; stroke-width: 1.5; stroke-linecap: square"/>
   </g>
   <g id="patch_3">
    <path d="M 56.312054 221.272 
L 56.312054 41.856 
" style="fill: none; stroke: #000000; stroke-width: 0.8; stroke-linejoin: miter; stroke-linecap: square"/>
   </g>
   <g id="patch_4">
    <path d="M 628.183658 221.272 
L 628.183658 41.856 
" style="fill: none; stroke: #000000; stroke-width: 0.8; stroke-linejoin: miter; stroke-linecap: square"/>
   </g>
   <g id="patch_5">
    <path d="M 56.312054 221.272 
L 628.183658 221.272 
" style="fill: none; stroke: #000000; stroke-width: 0.8; stroke-linejoin: miter; stroke-linecap: square"/>
   </g>
   <g id="patch_6">
    <path d="M 56.312054 41.856 
L 628.183658 41.856 
" style="fill: none; stroke: #000000; stroke-width: 0.8; stroke-linejoin: miter; stroke-linecap: square"/>
   </g>
   <g id="text_14">
    <!-- Daily Useless RC (2026-02-11) | verdict: feral -->
    <g transform="translate(206.807231 22.021875) scale(0.12 -0.12)">
     <defs>
      <path id="DejaVuSans-44" d="M 1259 4147 
L 1259 519 
L 2022 519 
Q 2988 519 3436 956 
Q 3884 1394 3884 2338 
Q 3884 3275 3436 3711 
Q 2988 4147 2022 4147 
L 1259 4147 
z
M 628 4666 
L 1925 4666 
Q 3281 4666 3915 4102 
Q 4550 3538 4550 2338 
Q 4550 1131 3912 565 
Q 3275 0 1925 0 
L 628 0 
L 628 4666 
z
" transform="scale(0.015625)"/>
      <path id="DejaVuSans-69" d="M 603 3500 
L 1178 3500 
L 1178 0 
L 603 0 
L 603 3500 
z
M 603 4863 
L 1178 4863 
L 1178 4134 
L 603 4134 
L 603 4863 
z
" transform="scale(0.015625)"/>
      <path id="DejaVuSans-6c" d="M 603 4863 
L 1178 4863 
L 1178 0 
L 603 0 
L 603 4863 
z
" transform="scale(0.015625)"/>
      <path id="DejaVuSans-79" d="M 2059 -325 
Q 1816 -950 1584 -1140 
Q 1353 -1331 966 -1331 
L 506 -1331 
L 506 -850 
L 844 -850 
Q 1081 -850 1212 -737 
Q 1344 -625 1503 -206 
L 1606 56 
L 191 3500 
L 800 3500 
L 1894 763 
L 2988 3500 
L 3597 3500 
L 2059 -325 
z
" transform="scale(0.015625)"/>
      <path id="DejaVuSans-55" d="M 556 4666 
L 1191 4666 
L 1191 1831 
Q 1191 1081 1462 751 
Q 1734 422 2344 422 
Q 2950 422 3222 751 
Q 3494 1081 3494 1831 
L 3494 4666 
L 4128 4666 
L 4128 1753 
Q 4128 841 3676 375 
Q 3225 -91 2344 -91 
Q 1459 -91 1007 375 
Q 556 841 556 1753 
L 556 4666 
z
" transform="scale(0.015625)"/>
      <path id="DejaVuSans-73" d="M 2834 3397 
L 2834 2853 
Q 2591 2978 2328 3040 
Q 2066 3103 1784 3103 
Q 1356 3103 1142 2972 
Q 928 2841 928 2578 
Q 928 2378 1081 2264 
Q 1234 2150 1697 2047 
L 1894 2003 
Q 2506 1872 2764 1633 
Q 3022 1394 3022 966 
Q 3022 478 2636 193 
Q 2250 -91 1575 -91 
Q 1294 -91 989 -36 
Q 684 19 347 128 
L 347 722 
Q 666 556 975 473 
Q 1284 391 1588 391 
Q 1994 391 2212 530 
Q 2431 669 2431 922 
Q 2431 1156 2273 1281 
Q 2116 1406 1581 1522 
L 1381 1569 
Q 847 1681 609 1914 
Q 372 2147 372 2553 
Q 372 3047 722 3315 
Q 1072 3584 1716 3584 
Q 2034 3584 2315 3537 
Q 2597 3491 2834 3397 
z
" transform="scale(0.015625)"/>
      <path id="DejaVuSans-65" d="M 3597 1894 
L 3597 1613 
L 953 1613 
Q 991 1019 1311 708 
Q 1631 397 2203 397 
Q 2534 397 2845 478 
Q 3156 559 3463 722 
L 3463 178 
Q 3153 47 2828 -22 
Q 2503 -91 2169 -91 
Q 1331 -91 842 396 
Q 353 884 353 1716 
Q 353 2575 817 3079 
Q 1281 3584 2069 3584 
Q 2775 3584 3186 3129 
Q 3597 2675 3597 1894 
z
M 3022 2063 
Q 3016 2534 2758 2815 
Q 2500 3097 2075 3097 
Q 1594 3097 1305 2825 
Q 1016 2553 972 2059 
L 3022 2063 
z
" transform="scale(0.015625)"/>
      <path id="DejaVuSans-52" d="M 2841 2188 
Q 3044 2119 3236 1894 
Q 3428 1669 3622 1275 
L 4263 0 
L 3584 0 
L 2988 1197 
Q 2756 1666 2539 1819 
Q 2322 1972 1947 1972 
L 1259 1972 
L 1259 0 
L 628 0 
L 628 4666 
L 2053 4666 
Q 2853 4666 3247 4331 
Q 3641 3997 3641 3322 
Q 3641 2881 3436 2590 
Q 3231 2300 2841 2188 
z
M 1259 4147 
L 1259 2491 
L 2053 2491 
Q 2509 2491 2742 2702 
Q 2975 2913 2975 3322 
Q 2975 3731 2742 3939 
Q 2509 4147 2053 4147 
L 1259 4147 
z
" transform="scale(0.015625)"/>
      <path id="DejaVuSans-43" d="M 4122 4306 
L 4122 3641 
Q 3803 3938 3442 4084 
Q 3081 4231 2675 4231 
Q 1875 4231 1450 3742 
Q 1025 3253 1025 2328 
Q 1025 1406 1450 917 
Q 1875 428 2675 428 
Q 3081 428 3442 575 
Q 3803 722 4122 1019 
L 4122 359 
Q 3791 134 3420 21 
Q 3050 -91 2638 -91 
Q 1578 -91 968 557 
Q 359 1206 359 2328 
Q 359 3453 968 4101 
Q 1578 4750 2638 4750 
Q 3056 4750 3426 4639 
Q 3797 4528 4122 4306 
z
" transform="scale(0.015625)"/>
      <path id="DejaVuSans-28" d="M 1984 4856 
Q 1566 4138 1362 3434 
Q 1159 2731 1159 2009 
Q 1159 1288 1364 580 
Q 1569 -128 1984 -844 
L 1484 -844 
Q 1016 -109 783 600 
Q 550 1309 550 2009 
Q 550 2706 781 3412 
Q 1013 4119 1484 4856 
L 1984 4856 
z
" transform="scale(0.015625)"/>
      <path id="DejaVuSans-2d" d="M 313 2009 
L 1997 2009 
L 1997 1497 
L 313 1497 
L 313 2009 
z
" transform="scale(0.015625)"/>
      <path id="DejaVuSans-29" d="M 513 4856 
L 1013 4856 
Q 1481 4119 1714 3412 
Q 1947 2706 1947 2009 
Q 1947 1309 1714 600 
Q 1481 -109 1013 -844 
L 513 -844 
Q 928 -128 1133 580 
Q 1338 1288 1338 2009 
Q 1338 2731 1133 3434 
Q 928 4138 513 4856 
z
" transform="scale(0.015625)"/>
      <path id="DejaVuSans-7c" d="M 1344 4891 
L 1344 -1509 
L 813 -1509 
L 813 4891 
L 1344 4891 
z
" transform="scale(0.015625)"/>
      <path id="DejaVuSans-76" d="M 191 3500 
L 800 3500 
L 1894 563 
L 2988 3500 
L 3597 3500 
L 2284 0 
L 1503 0 
L 191 3500 
z
" transform="scale(0.015625)"/>
      <path id="DejaVuSans-64" d="M 2906 2969 
L 2906 4863 
L 3481 4863 
L 3481 0 
L 2906 0 
L 2906 525 
Q 2725 213 2448 61 
Q 2172 -91 1784 -91 
Q 1150 -91 751 415 
Q 353 922 353 1747 
Q 353 2572 751 3078 
Q 1150 3584 1784 3584 
Q 2172 3584 2448 3432 
Q 2725 3281 2906 2969 
z
M 947 1747 
Q 947 1113 1208 752 
Q 1469 391 1925 391 
Q 2381 391 2643 752 
Q 2906 1113 2906 1747 
Q 2906 2381 2643 2742 
Q 2381 3103 1925 3103 
Q 1469 3103 1208 2742 
Q 947 2381 947 1747 
z
" transform="scale(0.015625)"/>
      <path id="DejaVuSans-63" d="M 3122 3366 
L 3122 2828 
Q 2878 2963 2633 3030 
Q 2388 3097 2138 3097 
Q 1578 3097 1268 2742 
Q 959 2388 959 1747 
Q 959 1106 1268 751 
Q 1578 397 2138 397 
Q 2388 397 2633 464 
Q 2878 531 3122 666 
L 3122 134 
Q 2881 22 2623 -34 
Q 2366 -91 2075 -91 
Q 1284 -91 818 406 
Q 353 903 353 1747 
Q 353 2603 823 3093 
Q 1294 3584 2113 3584 
Q 2378 3584 2631 3529 
Q 2884 3475 3122 3366 
z
" transform="scale(0.015625)"/>
      <path id="DejaVuSans-3a" d="M 750 794 
L 1409 794 
L 1409 0 
L 750 0 
L 750 794 
z
M 750 3309 
L 1409 3309 
L 1409 2516 
L 750 2516 
L 750 3309 
z
" transform="scale(0.015625)"/>
      <path id="DejaVuSans-66" d="M 2375 4863 
L 2375 4384 
L 1825 4384 
Q 1516 4384 1395 4259 
Q 1275 4134 1275 3809 
L 1275 3500 
L 2222 3500 
L 2222 3053 
L 1275 3053 
L 1275 0 
L 697 0 
L 697 3053 
L 147 3053 
L 147 3500 
L 697 3500 
L 697 3744 
Q 697 4328 969 4595 
Q 1241 4863 1831 4863 
L 2375 4863 
z
" transform="scale(0.015625)"/>
     </defs>
     <use xlink:href="#DejaVuSans-44"/>
     <use xlink:href="#DejaVuSans-61" transform="translate(77.001953 0)"/>
     <use xlink:href="#DejaVuSans-69" transform="translate(138.28125 0)"/>
     <use xlink:href="#DejaVuSans-6c" transform="translate(166.064453 0)"/>
     <use xlink:href="#DejaVuSans-79" transform="translate(193.847656 0)"/>
     <use xlink:href="#DejaVuSans-20" transform="translate(253.027344 0)"/>
     <use xlink:href="#DejaVuSans-55" transform="translate(284.814453 0)"/>
     <use xlink:href="#DejaVuSans-73" transform="translate(358.007812 0)"/>
     <use xlink:href="#DejaVuSans-65" transform="translate(410.107422 0)"/>
     <use xlink:href="#DejaVuSans-6c" transform="translate(471.630859 0)"/>
     <use xlink:href="#DejaVuSans-65" transform="translate(499.414062 0)"/>
     <use xlink:href="#DejaVuSans-73" transform="translate(560.9375 0)"/>
     <use xlink:href="#DejaVuSans-73" transform="translate(613.037109 0)"/>
     <use xlink:href="#DejaVuSans-20" transform="translate(665.136719 0)"/>
     <use xlink:href="#DejaVuSans-52" transform="translate(696.923828 0)"/>
     <use xlink:href="#DejaVuSans-43" transform="translate(761.40625 0)"/>
     <use xlink:href="#DejaVuSans-20" transform="translate(831.230469 0)"/>
     <use xlink:href="#DejaVuSans-28" transform="translate(863.017578 0)"/>
     <use xlink:href="#DejaVuSans-32" transform="translate(902.03125 0)"/>
     <use xlink:href="#DejaVuSans-30" transform="translate(965.654297 0)"/>
     <use xlink:href="#DejaVuSans-32" transform="translate(1029.277344 0)"/>
     <use xlink:href="#DejaVuSans-36" transform="translate(1092.900391 0)"/>
     <use xlink:href="#DejaVuSans-2d" transform="translate(1156.523438 0)"/>
     <use xlink:href="#DejaVuSans-30" transform="translate(1192.607422 0)"/>
     <use xlink:href="#DejaVuSans-32" transform="translate(1256.230469 0)"/>
     <use xlink:href="#DejaVuSans-2d" transform="translate(1319.853516 0)"/>
     <use xlink:href="#DejaVuSans-31" transform="translate(1355.9375 0)"/>
     <use xlink:href="#DejaVuSans-31" transform="translate(1419.560547 0)"/>
     <use xlink:href="#DejaVuSans-29" transform="translate(1483.183594 0)"/>
     <use xlink:href="#DejaVuSans-20" transform="translate(1522.197266 0)"/>
     <use xlink:href="#DejaVuSans-7c" transform="translate(1553.984375 0)"/>
     <use xlink:href="#DejaVuSans-20" transform="translate(1587.675781 0)"/>
     <use xlink:href="#DejaVuSans-76" transform="translate(1619.462891 0)"/>
     <use xlink:href="#DejaVuSans-65" transform="translate(1678.642578 0)"/>
     <use xlink:href="#DejaVuSans-72" transform="translate(1740.166016 0)"/>
     <use xlink:href="#DejaVuSans-64" transform="translate(1779.529297 0)"/>
     <use xlink:href="#DejaVuSans-69" transform="translate(1843.005859 0)"/>
     <use xlink:href="#DejaVuSans-63" transform="translate(1870.789062 0)"/>
     <use xlink:href="#DejaVuSans-74" transform="translate(1925.769531 0)"/>
     <use xlink:href="#DejaVuSans-3a" transform="translate(1964.978516 0)"/>
     <use xlink:href="#DejaVuSans-20" transform="translate(1998.669922 0)"/>
     <use xlink:href="#DejaVuSans-66" transform="translate(2030.457031 0)"/>
     <use xlink:href="#DejaVuSans-65" transform="translate(2065.662109 0)"/>
     <use xlink:href="#DejaVuSans-72" transform="translate(2127.185547 0)"/>
     <use xlink:href="#DejaVuSans-61" transform="translate(2168.298828 0)"/>
     <use xlink:href="#DejaVuSans-6c" transform="translate(2229.578125 0)"/>
    </g>
    <!-- Filter: low | Input: sine, sine (A=1.26, f=1.27 Hz) | R=1.00, C=2.00, τ=2.00 -->
    <g transform="translate(116.075981 35.856) scale(0.12 -0.12)">
     <defs>
      <path id="DejaVuSans-46" d="M 628 4666 
L 3309 4666 
L 3309 4134 
L 1259 4134 
L 1259 2759 
L 3109 2759 
L 3109 2228 
L 1259 2228 
L 1259 0 
L 628 0 
L 628 4666 
z
" transform="scale(0.015625)"/>
      <path id="DejaVuSans-6f" d="M 1959 3097 
Q 1497 3097 1228 2736 
Q 959 2375 959 1747 
Q 959 1119 1226 758 
Q 1494 397 1959 397 
Q 2419 397 2687 759 
Q 2956 1122 2956 1747 
Q 2956 2369 2687 2733 
Q 2419 3097 1959 3097 
z
M 1959 3584 
Q 2709 3584 3137 3096 
Q 3566 2609 3566 1747 
Q 3566 888 3137 398 
Q 2709 -91 1959 -91 
Q 1206 -91 779 398 
Q 353 888 353 1747 
Q 353 2609 779 3096 
Q 1206 3584 1959 3584 
z
" transform="scale(0.015625)"/>
      <path id="DejaVuSans-77" d="M 269 3500 
L 844 3500 
L 1563 769 
L 2278 3500 
L 2956 3500 
L 3675 769 
L 4391 3500 
L 4966 3500 
L 4050 0 
L 3372 0 
L 2619 2869 
L 1863 0 
L 1184 0 
L 269 3500 
z
" transform="scale(0.015625)"/>
      <path id="DejaVuSans-49" d="M 628 4666 
L 1259 4666 
L 1259 0 
L 628 0 
L 628 4666 
z
" transform="scale(0.015625)"/>
      <path id="DejaVuSans-6e" d="M 3513 2113 
L 3513 0 
L 2938 0 
L 2938 2094 
Q 2938 2591 2744 2837 
Q 2550 3084 2163 3084 
Q 1697 3084 1428 2787 
Q 1159 2491 1159 1978 
L 1159 0 
L 581 0 
L 581 3500 
L 1159 3500 
L 1159 2956 
Q 1366 3272 1645 3428 
Q 1925 3584 2291 3584 
Q 2894 3584 3203 3211 
Q 3513 2838 3513 2113 
z
" transform="scale(0.015625)"/>
      <path id="DejaVuSans-70" d="M 1159 525 
L 1159 -1331 
L 581 -1331 
L 581 3500 
L 1159 3500 
L 1159 2969 
Q 1341 3281 1617 3432 
Q 1894 3584 2278 3584 
Q 2916 3584 3314 3078 
Q 3713 2572 3713 1747 
Q 3713 922 3314 415 
Q 2916 -91 2278 -91 
Q 1894 -91 1617 61 
Q 1341 213 1159 525 
z
M 3116 1747 
Q 3116 2381 2855 2742 
Q 2594 3103 2138 3103 
Q 1681 3103 1420 2742 
Q 1159 2381 1159 1747 
Q 1159 1113 1420 752 
Q 1681 391 2138 391 
Q 2594 391 2855 752 
Q 3116 1113 3116 1747 
z
" transform="scale(0.015625)"/>
      <path id="DejaVuSans-75" d="M 544 1381 
L 544 3500 
L 1119 3500 
L 1119 1403 
Q 1119 906 1312 657 
Q 1506 409 1894 409 
Q 2359 409 2629 706 
Q 2900 1003 2900 1516 
L 2900 3500 
L 3475 3500 
L 3475 0 
L 2900 0 
L 2900 538 
Q 2691 219 2414 64 
Q 2138 -91 1772 -91 
Q 1169 -91 856 284 
Q 544 659 544 1381 
z
M 1991 3584 
L 1991 3584 
z
" transform="scale(0.015625)"/>
      <path id="DejaVuSans-2c" d="M 750 794 
L 1409 794 
L 1409 256 
L 897 -744 
L 494 -744 
L 750 256 
L 750 794 
z
" transform="scale(0.015625)"/>
      <path id="DejaVuSans-41" d="M 2188 4044 
L 1331 1722 
L 3047 1722 
L 2188 4044 
z
M 1831 4666 
L 2547 4666 
L 4325 0 
L 3669 0 
L 3244 1197 
L 1141 1197 
L 716 0 
L 50 0 
L 1831 4666 
z
" transform="scale(0.015625)"/>
      <path id="DejaVuSans-3d" d="M 678 2906 
L 4684 2906 
L 4684 2381 
L 678 2381 
L 678 2906 
z
M 678 1631 
L 4684 1631 
L 4684 1100 
L 678 1100 
L 678 1631 
z
" transform="scale(0.015625)"/>
      <path id="DejaVuSans-37" d="M 525 4666 
L 3525 4666 
L 3525 4397 
L 1831 0 
L 1172 0 
L 2766 4134 
L 525 4134 
L 525 4666 
z
" transform="scale(0.015625)"/>
      <path id="DejaVuSans-48" d="M 628 4666 
L 1259 4666 
L 1259 2753 
L 3553 2753 
L 3553 4666 
L 4184 4666 
L 4184 0 
L 3553 0 
L 3553 2222 
L 1259 2222 
L 1259 0 
L 628 0 
L 628 4666 
z
" transform="scale(0.015625)"/>
      <path id="DejaVuSans-7a" d="M 353 3500 
L 3084 3500 
L 3084 2975 
L 922 459 
L 3084 459 
L 3084 0 
L 275 0 
L 275 525 
L 2438 3041 
L 353 3041 
L 353 3500 
z
" transform="scale(0.015625)"/>
      <path id="DejaVuSans-3c4" d="M 2319 638 
Q 2431 488 2769 488 
L 3047 488 
L 3047 0 
L 2700 0 
Q 2138 0 1881 300 
Q 1625 606 1625 1269 
L 1625 2925 
L 313 2925 
L 313 3500 
L 3541 3500 
L 3541 2925 
L 2213 2925 
L 2213 1234 
Q 2213 781 2319 638 
z
" transform="scale(0.015625)"/>
     </defs>
     <use xlink:href="#DejaVuSans-46"/>
     <use xlink:href="#DejaVuSans-69" transform="translate(50.269531 0)"/>
     <use xlink:href="#DejaVuSans-6c" transform="translate(78.052734 0)"/>
     <use xlink:href="#DejaVuSans-74" transform="translate(105.835938 0)"/>
     <use xlink:href="#DejaVuSans-65" transform="translate(145.044922 0)"/>
     <use xlink:href="#DejaVuSans-72" transform="translate(206.568359 0)"/>
     <use xlink:href="#DejaVuSans-3a" transform="translate(245.931641 0)"/>
     <use xlink:href="#DejaVuSans-20" transform="translate(279.623047 0)"/>
     <use xlink:href="#DejaVuSans-6c" transform="translate(311.410156 0)"/>
     <use xlink:href="#DejaVuSans-6f" transform="translate(339.193359 0)"/>
     <use xlink:href="#DejaVuSans-77" transform="translate(400.375 0)"/>
     <use xlink:href="#DejaVuSans-20" transform="translate(482.162109 0)"/>
     <use xlink:href="#DejaVuSans-7c" transform="translate(513.949219 0)"/>
     <use xlink:href="#DejaVuSans-20" transform="translate(547.640625 0)"/>
     <use xlink:href="#DejaVuSans-49" transform="translate(579.427734 0)"/>
     <use xlink:href="#DejaVuSans-6e" transform="translate(608.919922 0)"/>
     <use xlink:href="#DejaVuSans-70" transform="translate(672.298828 0)"/>
     <use xlink:href="#DejaVuSans-75" transform="translate(735.775391 0)"/>
     <use xlink:href="#DejaVuSans-74" transform="translate(799.154297 0)"/>
     <use xlink:href="#DejaVuSans-3a" transform="translate(838.363281 0)"/>
     <use xlink:href="#DejaVuSans-20" transform="translate(872.054688 0)"/>
     <use xlink:href="#DejaVuSans-73" transform="translate(903.841797 0)"/>
     <use xlink:href="#DejaVuSans-69" transform="translate(955.941406 0)"/>
     <use xlink:href="#DejaVuSans-6e" transform="translate(983.724609 0)"/>
     <use xlink:href="#DejaVuSans-65" transform="translate(1047.103516 0)"/>
     <use xlink:href="#DejaVuSans-2c" transform="translate(1108.626953 0)"/>
     <use xlink:href="#DejaVuSans-20" transform="translate(1140.414062 0)"/>
     <use xlink:href="#DejaVuSans-73" transform="translate(1172.201172 0)"/>
     <use xlink:href="#DejaVuSans-69" transform="translate(1224.300781 0)"/>
     <use xlink:href="#DejaVuSans-6e" transform="translate(1252.083984 0)"/>
     <use xlink:href="#DejaVuSans-65" transform="translate(1315.462891 0)"/>
     <use xlink:href="#DejaVuSans-20" transform="translate(1376.986328 0)"/>
     <use xlink:href="#DejaVuSans-28" transform="translate(1408.773438 0)"/>
     <use xlink:href="#DejaVuSans-41" transform="translate(1447.787109 0)"/>
     <use xlink:href="#DejaVuSans-3d" transform="translate(1516.195312 0)"/>
     <use xlink:href="#DejaVuSans-31" transform="translate(1599.984375 0)"/>
     <use xlink:href="#DejaVuSans-2e" transform="translate(1663.607422 0)"/>
     <use xlink:href="#DejaVuSans-32" transform="translate(1695.394531 0)"/>
     <use xlink:href="#DejaVuSans-36" transform="translate(1759.017578 0)"/>
     <use xlink:href="#DejaVuSans-2c" transform="translate(1822.640625 0)"/>
     <use xlink:href="#DejaVuSans-20" transform="translate(1854.427734 0)"/>
     <use xlink:href="#DejaVuSans-66" transform="translate(1886.214844 0)"/>
     <use xlink:href="#DejaVuSans-3d" transform="translate(1921.419922 0)"/>
     <use xlink:href="#DejaVuSans-31" transform="translate(2005.208984 0)"/>
     <use xlink:href="#DejaVuSans-2e" transform="translate(2068.832031 0)"/>
     <use xlink:href="#DejaVuSans-32" transform="translate(2100.619141 0)"/>
     <use xlink:href="#DejaVuSans-37" transform="translate(2164.242188 0)"/>
     <use xlink:href="#DejaVuSans-20" transform="translate(2227.865234 0)"/>
     <use xlink:href="#DejaVuSans-48" transform="translate(2259.652344 0)"/>
     <use xlink:href="#DejaVuSans-7a" transform="translate(2334.847656 0)"/>
     <use xlink:href="#DejaVuSans-29" transform="translate(2387.337891 0)"/>
     <use xlink:href="#DejaVuSans-20" transform="translate(2426.351562 0)"/>
     <use xlink:href="#DejaVuSans-7c" transform="translate(2458.138672 0)"/>
     <use xlink:href="#DejaVuSans-20" transform="translate(2491.830078 0)"/>
     <use xlink:href="#DejaVuSans-52" transform="translate(2523.617188 0)"/>
     <use xlink:href="#DejaVuSans-3d" transform="translate(2593.099609 0)"/>
     <use xlink:href="#DejaVuSans-31" transform="translate(2676.888672 0)"/>
     <use xlink:href="#DejaVuSans-2e" transform="translate(2740.511719 0)"/>
     <use xlink:href="#DejaVuSans-30" transform="translate(2772.298828 0)"/>
     <use xlink:href="#DejaVuSans-30" transform="translate(2835.921875 0)"/>
     <use xlink:href="#DejaVuSans-2c" transform="translate(2899.544922 0)"/>
     <use xlink:href="#DejaVuSans-20" transform="translate(2931.332031 0)"/>
     <use xlink:href="#DejaVuSans-43" transform="translate(2963.119141 0)"/>
     <use xlink:href="#DejaVuSans-3d" transform="translate(3032.943359 0)"/>
     <use xlink:href="#DejaVuSans-32" transform="translate(3116.732422 0)"/>
     <use xlink:href="#DejaVuSans-2e" transform="translate(3180.355469 0)"/>
     <use xlink:href="#DejaVuSans-30" transform="translate(3212.142578 0)"/>
     <use xlink:href="#DejaVuSans-30" transform="translate(3275.765625 0)"/>
     <use xlink:href="#DejaVuSans-2c" transform="translate(3339.388672 0)"/>
     <use xlink:href="#DejaVuSans-20" transform="translate(3371.175781 0)"/>
     <use xlink:href="#DejaVuSans-3c4" transform="translate(3402.962891 0)"/>
     <use xlink:href="#DejaVuSans-3d" transform="translate(3463.167969 0)"/>
     <use xlink:href="#DejaVuSans-32" transform="translate(3546.957031 0)"/>
     <use xlink:href="#DejaVuSans-2e" transform="translate(3610.580078 0)"/>
     <use xlink:href="#DejaVuSans-30" transform="translate(3642.367188 0)"/>
     <use xlink:href="#DejaVuSans-30" transform="translate(3705.990234 0)"/>
    </g>
   </g>
   <g id="legend_1">
    <g id="patch_7">
     <path d="M 556.200845 79.21225 
L 621.183658 79.21225 
Q 623.183658 79.21225 623.183658 77.21225 
L 623.183658 48.856 
Q 623.183658 46.856 621.183658 46.856 
L 556.200845 46.856 
Q 554.200845 46.856 554.200845 48.856 
L 554.200845 77.21225 
Q 554.200845 79.21225 556.200845 79.21225 
z
" style="fill: #ffffff; opacity: 0.8; stroke: #cccccc; stroke-linejoin: miter"/>
    </g>
    <g id="line2d_25">
     <path d="M 558.200845 54.954437 
L 568.200845 54.954437 
L 578.200845 54.954437 
" style="fill: none; stroke: #1f77b4; stroke-width: 1.5; stroke-linecap: square"/>
    </g>
    <g id="text_15">
     <!-- input -->
     <g transform="translate(586.200845 58.454437) scale(0.1 -0.1)">
      <use xlink:href="#DejaVuSans-69"/>
      <use xlink:href="#DejaVuSans-6e" transform="translate(27.783203 0)"/>
      <use xlink:href="#DejaVuSans-70" transform="translate(91.162109 0)"/>
      <use xlink:href="#DejaVuSans-75" transform="translate(154.638672 0)"/>
      <use xlink:href="#DejaVuSans-74" transform="translate(218.017578 0)"/>
     </g>
    </g>
    <g id="line2d_26">
     <path d="M 558.200845 69.632562 
L 568.200845 69.632562 
L 578.200845 69.632562 
" style="fill: none; stroke: #ff7f0e; stroke-width: 1.5; stroke-linecap: square"/>
    </g>
    <g id="text_16">
     <!-- output -->
     <g transform="translate(586.200845 73.132562) scale(0.1 -0.1)">
      <use xlink:href="#DejaVuSans-6f"/>
      <use xlink:href="#DejaVuSans-75" transform="translate(61.181641 0)"/>
      <use xlink:href="#DejaVuSans-74" transform="translate(124.560547 0)"/>
      <use xlink:href="#DejaVuSans-70" transform="translate(163.769531 0)"/>
      <use xlink:href="#DejaVuSans-75" transform="translate(227.246094 0)"/>
      <use xlink:href="#DejaVuSans-74" transform="translate(290.625 0)"/>
     </g>
    </g>
   </g>
  </g>
  <g id="axes_2">
   <g id="patch_8">
    <path d="M 56.312054 458.728 
L 628.183658 458.728 
L 628.183658 279.312 
L 56.312054 279.312 
z
" style="fill: #ffffff"/>
   </g>
   <g id="matplotlib.axis_3">
    <g id="xtick_7">
     <g id="line2d_27">
      <path d="M 56.312054 458.728 
L 56.312054 279.312 
" clip-path="url(#p120b027b8d)" style="fill: none; stroke: #b0b0b0; stroke-opacity: 0.25; stroke-width: 0.8; stroke-linecap: square"/>
     </g>
     <g id="line2d_28">
      <g>
       <use xlink:href="#mc87cbedab5" x="56.312054" y="458.728" style="stroke: #000000; stroke-width: 0.8"/>
      </g>
     </g>
     <g id="text_17">
      <!-- $\mathdefault{10^{-1}}$ -->
      <g transform="translate(44.562054 473.326438) scale(0.1 -0.1)">
       <use xlink:href="#DejaVuSans-31" transform="translate(0 0.684375)"/>
       <use xlink:href="#DejaVuSans-30" transform="translate(63.623047 0.684375)"/>
       <use xlink:href="#DejaVuSans-2212" transform="translate(128.203125 38.965625) scale(0.7)"/>
       <use xlink:href="#DejaVuSans-31" transform="translate(186.855469 38.965625) scale(0.7)"/>
      </g>
     </g>
    </g>
    <g id="xtick_8">
     <g id="line2d_29">
      <path d="M 342.247856 458.728 
L 342.247856 279.312 
" clip-path="url(#p120b027b8d)" style="fill: none; stroke: #b0b0b0; stroke-opacity: 0.25; stroke-width: 0.8; stroke-linecap: square"/>
     </g>
     <g id="line2d_30">
      <g>
       <use xlink:href="#mc87cbedab5" x="342.247856" y="458.728" style="stroke: #000000; stroke-width: 0.8"/>
      </g>
     </g>
     <g id="text_18">
      <!-- $\mathdefault{10^{0}}$ -->
      <g transform="translate(333.447856 473.326438) scale(0.1 -0.1)">
       <use xlink:href="#DejaVuSans-31" transform="translate(0 0.765625)"/>
       <use xlink:href="#DejaVuSans-30" transform="translate(63.623047 0.765625)"/>
       <use xlink:href="#DejaVuSans-30" transform="translate(128.203125 39.046875) scale(0.7)"/>
      </g>
     </g>
    </g>
    <g id="xtick_9">
     <g id="line2d_31">
      <path d="M 628.183658 458.728 
L 628.183658 279.312 
" clip-path="url(#p120b027b8d)" style="fill: none; stroke: #b0b0b0; stroke-opacity: 0.25; stroke-width: 0.8; stroke-linecap: square"/>
     </g>
     <g id="line2d_32">
      <g>
       <use xlink:href="#mc87cbedab5" x="628.183658" y="458.728" style="stroke: #000000; stroke-width: 0.8"/>
      </g>
     </g>
     <g id="text_19">
      <!-- $\mathdefault{10^{1}}$ -->
      <g transform="translate(619.383658 473.326438) scale(0.1 -0.1)">
       <use xlink:href="#DejaVuSans-31" transform="translate(0 0.684375)"/>
       <use xlink:href="#DejaVuSans-30" transform="translate(63.623047 0.684375)"/>
       <use xlink:href="#DejaVuSans-31" transform="translate(128.203125 38.965625) scale(0.7)"/>
      </g>
     </g>
    </g>
    <g id="xtick_10">
     <g id="line2d_33">
      <defs>
       <path id="m24c9df802e" d="M 0 0 
L 0 2 
" style="stroke: #000000; stroke-width: 0.6"/>
      </defs>
      <g>
       <use xlink:href="#m24c9df802e" x="142.387307" y="458.728" style="stroke: #000000; stroke-width: 0.6"/>
      </g>
     </g>
    </g>
    <g id="xtick_11">
     <g id="line2d_34">
      <g>
       <use xlink:href="#m24c9df802e" x="192.738102" y="458.728" style="stroke: #000000; stroke-width: 0.6"/>
      </g>
     </g>
    </g>
    <g id="xtick_12">
     <g id="line2d_35">
      <g>
       <use xlink:href="#m24c9df802e" x="228.46256" y="458.728" style="stroke: #000000; stroke-width: 0.6"/>
      </g>
     </g>
    </g>
    <g id="xtick_13">
     <g id="line2d_36">
      <g>
       <use xlink:href="#m24c9df802e" x="256.172603" y="458.728" style="stroke: #000000; stroke-width: 0.6"/>
      </g>
     </g>
    </g>
    <g id="xtick_14">
     <g id="line2d_37">
      <g>
       <use xlink:href="#m24c9df802e" x="278.813356" y="458.728" style="stroke: #000000; stroke-width: 0.6"/>
      </g>
     </g>
    </g>
    <g id="xtick_15">
     <g id="line2d_38">
      <g>
       <use xlink:href="#m24c9df802e" x="297.95584" y="458.728" style="stroke: #000000; stroke-width: 0.6"/>
      </g>
     </g>
    </g>
    <g id="xtick_16">
     <g id="line2d_39">
      <g>
       <use xlink:href="#m24c9df802e" x="314.537813" y="458.728" style="stroke: #000000; stroke-width: 0.6"/>
      </g>
     </g>
    </g>
    <g id="xtick_17">
     <g id="line2d_40">
      <g>
       <use xlink:href="#m24c9df802e" x="329.164151" y="458.728" style="stroke: #000000; stroke-width: 0.6"/>
      </g>
     </g>
    </g>
    <g id="xtick_18">
     <g id="line2d_41">
      <g>
       <use xlink:href="#m24c9df802e" x="428.323109" y="458.728" style="stroke: #000000; stroke-width: 0.6"/>
      </g>
     </g>
    </g>
    <g id="xtick_19">
     <g id="line2d_42">
      <g>
       <use xlink:href="#m24c9df802e" x="478.673904" y="458.728" style="stroke: #000000; stroke-width: 0.6"/>
      </g>
     </g>
    </g>
    <g id="xtick_20">
     <g id="line2d_43">
      <g>
       <use xlink:href="#m24c9df802e" x="514.398362" y="458.728" style="stroke: #000000; stroke-width: 0.6"/>
      </g>
     </g>
    </g>
    <g id="xtick_21">
     <g id="line2d_44">
      <g>
       <use xlink:href="#m24c9df802e" x="542.108404" y="458.728" style="stroke: #000000; stroke-width: 0.6"/>
      </g>
     </g>
    </g>
    <g id="xtick_22">
     <g id="line2d_45">
      <g>
       <use xlink:href="#m24c9df802e" x="564.749158" y="458.728" style="stroke: #000000; stroke-width: 0.6"/>
      </g>
     </g>
    </g>
    <g id="xtick_23">
     <g id="line2d_46">
      <g>
       <use xlink:href="#m24c9df802e" x="583.891641" y="458.728" style="stroke: #000000; stroke-width: 0.6"/>
      </g>
     </g>
    </g>
    <g id="xtick_24">
     <g id="line2d_47">
      <g>
       <use xlink:href="#m24c9df802e" x="600.473615" y="458.728" style="stroke: #000000; stroke-width: 0.6"/>
      </g>
     </g>
    </g>
    <g id="xtick_25">
     <g id="line2d_48">
      <g>
       <use xlink:href="#m24c9df802e" x="615.099953" y="458.728" style="stroke: #000000; stroke-width: 0.6"/>
      </g>
     </g>
    </g>
    <g id="text_20">
     <!-- frequency [arb.] -->
     <g transform="translate(301.797856 487.004563) scale(0.1 -0.1)">
      <defs>
       <path id="DejaVuSans-71" d="M 947 1747 
Q 947 1113 1208 752 
Q 1469 391 1925 391 
Q 2381 391 2643 752 
Q 2906 1113 2906 1747 
Q 2906 2381 2643 2742 
Q 2381 3103 1925 3103 
Q 1469 3103 1208 2742 
Q 947 2381 947 1747 
z
M 2906 525 
Q 2725 213 2448 61 
Q 2172 -91 1784 -91 
Q 1150 -91 751 415 
Q 353 922 353 1747 
Q 353 2572 751 3078 
Q 1150 3584 1784 3584 
Q 2172 3584 2448 3432 
Q 2725 3281 2906 2969 
L 2906 3500 
L 3481 3500 
L 3481 -1331 
L 2906 -1331 
L 2906 525 
z
" transform="scale(0.015625)"/>
      </defs>
      <use xlink:href="#DejaVuSans-66"/>
      <use xlink:href="#DejaVuSans-72" transform="translate(35.205078 0)"/>
      <use xlink:href="#DejaVuSans-65" transform="translate(74.068359 0)"/>
      <use xlink:href="#DejaVuSans-71" transform="translate(135.591797 0)"/>
      <use xlink:href="#DejaVuSans-75" transform="translate(199.068359 0)"/>
      <use xlink:href="#DejaVuSans-65" transform="translate(262.447266 0)"/>
      <use xlink:href="#DejaVuSans-6e" transform="translate(323.970703 0)"/>
      <use xlink:href="#DejaVuSans-63" transform="translate(387.349609 0)"/>
      <use xlink:href="#DejaVuSans-79" transform="translate(442.330078 0)"/>
      <use xlink:href="#DejaVuSans-20" transform="translate(501.509766 0)"/>
      <use xlink:href="#DejaVuSans-5b" transform="translate(533.296875 0)"/>
      <use xlink:href="#DejaVuSans-61" transform="translate(572.310547 0)"/>
      <use xlink:href="#DejaVuSans-72" transform="translate(633.589844 0)"/>
      <use xlink:href="#DejaVuSans-62" transform="translate(674.703125 0)"/>
      <use xlink:href="#DejaVuSans-2e" transform="translate(738.179688 0)"/>
      <use xlink:href="#DejaVuSans-5d" transform="translate(769.966797 0)"/>
     </g>
    </g>
   </g>
   <g id="matplotlib.axis_4">
    <g id="ytick_6">
     <g id="line2d_49">
      <path d="M 56.312054 438.372216 
L 628.183658 438.372216 
" clip-path="url(#p120b027b8d)" style="fill: none; stroke: #b0b0b0; stroke-opacity: 0.25; stroke-width: 0.8; stroke-linecap: square"/>
     </g>
     <g id="line2d_50">
      <g>
       <use xlink:href="#mff5c7ea201" x="56.312054" y="438.372216" style="stroke: #000000; stroke-width: 0.8"/>
      </g>
     </g>
     <g id="text_21">
      <!-- $\mathdefault{10^{-9}}$ -->
      <g transform="translate(25.812054 442.171435) scale(0.1 -0.1)">
       <defs>
        <path id="DejaVuSans-39" d="M 703 97 
L 703 672 
Q 941 559 1184 500 
Q 1428 441 1663 441 
Q 2288 441 2617 861 
Q 2947 1281 2994 2138 
Q 2813 1869 2534 1725 
Q 2256 1581 1919 1581 
Q 1219 1581 811 2004 
Q 403 2428 403 3163 
Q 403 3881 828 4315 
Q 1253 4750 1959 4750 
Q 2769 4750 3195 4129 
Q 3622 3509 3622 2328 
Q 3622 1225 3098 567 
Q 2575 -91 1691 -91 
Q 1453 -91 1209 -44 
Q 966 3 703 97 
z
M 1959 2075 
Q 2384 2075 2632 2365 
Q 2881 2656 2881 3163 
Q 2881 3666 2632 3958 
Q 2384 4250 1959 4250 
Q 1534 4250 1286 3958 
Q 1038 3666 1038 3163 
Q 1038 2656 1286 2365 
Q 1534 2075 1959 2075 
z
" transform="scale(0.015625)"/>
       </defs>
       <use xlink:href="#DejaVuSans-31" transform="translate(0 0.765625)"/>
       <use xlink:href="#DejaVuSans-30" transform="translate(63.623047 0.765625)"/>
       <use xlink:href="#DejaVuSans-2212" transform="translate(128.203125 39.046875) scale(0.7)"/>
       <use xlink:href="#DejaVuSans-39" transform="translate(186.855469 39.046875) scale(0.7)"/>
      </g>
     </g>
    </g>
    <g id="ytick_7">
     <g id="line2d_51">
      <path d="M 56.312054 413.393341 
L 628.183658 413.393341 
" clip-path="url(#p120b027b8d)" style="fill: none; stroke: #b0b0b0; stroke-opacity: 0.25; stroke-width: 0.8; stroke-linecap: square"/>
     </g>
     <g id="line2d_52">
      <g>
       <use xlink:href="#mff5c7ea201" x="56.312054" y="413.393341" style="stroke: #000000; stroke-width: 0.8"/>
      </g>
     </g>
     <g id="text_22">
      <!-- $\mathdefault{10^{-7}}$ -->
      <g transform="translate(25.812054 417.19256) scale(0.1 -0.1)">
       <use xlink:href="#DejaVuSans-31" transform="translate(0 0.684375)"/>
       <use xlink:href="#DejaVuSans-30" transform="translate(63.623047 0.684375)"/>
       <use xlink:href="#DejaVuSans-2212" transform="translate(128.203125 38.965625) scale(0.7)"/>
       <use xlink:href="#DejaVuSans-37" transform="translate(186.855469 38.965625) scale(0.7)"/>
      </g>
     </g>
    </g>
    <g id="ytick_8">
     <g id="line2d_53">
      <path d="M 56.312054 388.414466 
L 628.183658 388.414466 
" clip-path="url(#p120b027b8d)" style="fill: none; stroke: #b0b0b0; stroke-opacity: 0.25; stroke-width: 0.8; stroke-linecap: square"/>
     </g>
     <g id="line2d_54">
      <g>
       <use xlink:href="#mff5c7ea201" x="56.312054" y="388.414466" style="stroke: #000000; stroke-width: 0.8"/>
      </g>
     </g>
     <g id="text_23">
      <!-- $\mathdefault{10^{-5}}$ -->
      <g transform="translate(25.812054 392.213685) scale(0.1 -0.1)">
       <use xlink:href="#DejaVuSans-31" transform="translate(0 0.684375)"/>
       <use xlink:href="#DejaVuSans-30" transform="translate(63.623047 0.684375)"/>
       <use xlink:href="#DejaVuSans-2212" transform="translate(128.203125 38.965625) scale(0.7)"/>
       <use xlink:href="#DejaVuSans-35" transform="translate(186.855469 38.965625) scale(0.7)"/>
      </g>
     </g>
    </g>
    <g id="ytick_9">
     <g id="line2d_55">
      <path d="M 56.312054 363.435591 
L 628.183658 363.435591 
" clip-path="url(#p120b027b8d)" style="fill: none; stroke: #b0b0b0; stroke-opacity: 0.25; stroke-width: 0.8; stroke-linecap: square"/>
     </g>
     <g id="line2d_56">
      <g>
       <use xlink:href="#mff5c7ea201" x="56.312054" y="363.435591" style="stroke: #000000; stroke-width: 0.8"/>
      </g>
     </g>
     <g id="text_24">
      <!-- $\mathdefault{10^{-3}}$ -->
      <g transform="translate(25.812054 367.23481) scale(0.1 -0.1)">
       <defs>
        <path id="DejaVuSans-33" d="M 2597 2516 
Q 3050 2419 3304 2112 
Q 3559 1806 3559 1356 
Q 3559 666 3084 287 
Q 2609 -91 1734 -91 
Q 1441 -91 1130 -33 
Q 819 25 488 141 
L 488 750 
Q 750 597 1062 519 
Q 1375 441 1716 441 
Q 2309 441 2620 675 
Q 2931 909 2931 1356 
Q 2931 1769 2642 2001 
Q 2353 2234 1838 2234 
L 1294 2234 
L 1294 2753 
L 1863 2753 
Q 2328 2753 2575 2939 
Q 2822 3125 2822 3475 
Q 2822 3834 2567 4026 
Q 2313 4219 1838 4219 
Q 1578 4219 1281 4162 
Q 984 4106 628 3988 
L 628 4550 
Q 988 4650 1302 4700 
Q 1616 4750 1894 4750 
Q 2613 4750 3031 4423 
Q 3450 4097 3450 3541 
Q 3450 3153 3228 2886 
Q 3006 2619 2597 2516 
z
" transform="scale(0.015625)"/>
       </defs>
       <use xlink:href="#DejaVuSans-31" transform="translate(0 0.765625)"/>
       <use xlink:href="#DejaVuSans-30" transform="translate(63.623047 0.765625)"/>
       <use xlink:href="#DejaVuSans-2212" transform="translate(128.203125 39.046875) scale(0.7)"/>
       <use xlink:href="#DejaVuSans-33" transform="translate(186.855469 39.046875) scale(0.7)"/>
      </g>
     </g>
    </g>
    <g id="ytick_10">
     <g id="line2d_57">
      <path d="M 56.312054 338.456716 
L 628.183658 338.456716 
" clip-path="url(#p120b027b8d)" style="fill: none; stroke: #b0b0b0; stroke-opacity: 0.25; stroke-width: 0.8; stroke-linecap: square"/>
     </g>
     <g id="line2d_58">
      <g>
       <use xlink:href="#mff5c7ea201" x="56.312054" y="338.456716" style="stroke: #000000; stroke-width: 0.8"/>
      </g>
     </g>
     <g id="text_25">
      <!-- $\mathdefault{10^{-1}}$ -->
      <g transform="translate(25.812054 342.255935) scale(0.1 -0.1)">
       <use xlink:href="#DejaVuSans-31" transform="translate(0 0.684375)"/>
       <use xlink:href="#DejaVuSans-30" transform="translate(63.623047 0.684375)"/>
       <use xlink:href="#DejaVuSans-2212" transform="translate(128.203125 38.965625) scale(0.7)"/>
       <use xlink:href="#DejaVuSans-31" transform="translate(186.855469 38.965625) scale(0.7)"/>
      </g>
     </g>
    </g>
    <g id="ytick_11">
     <g id="line2d_59">
      <path d="M 56.312054 313.477841 
L 628.183658 313.477841 
" clip-path="url(#p120b027b8d)" style="fill: none; stroke: #b0b0b0; stroke-opacity: 0.25; stroke-width: 0.8; stroke-linecap: square"/>
     </g>
     <g id="line2d_60">
      <g>
       <use xlink:href="#mff5c7ea201" x="56.312054" y="313.477841" style="stroke: #000000; stroke-width: 0.8"/>
      </g>
     </g>
     <g id="text_26">
      <!-- $\mathdefault{10^{1}}$ -->
      <g transform="translate(31.712054 317.27706) scale(0.1 -0.1)">
       <use xlink:href="#DejaVuSans-31" transform="translate(0 0.684375)"/>
       <use xlink:href="#DejaVuSans-30" transform="translate(63.623047 0.684375)"/>
       <use xlink:href="#DejaVuSans-31" transform="translate(128.203125 38.965625) scale(0.7)"/>
      </g>
     </g>
    </g>
    <g id="ytick_12">
     <g id="line2d_61">
      <path d="M 56.312054 288.498966 
L 628.183658 288.498966 
" clip-path="url(#p120b027b8d)" style="fill: none; stroke: #b0b0b0; stroke-opacity: 0.25; stroke-width: 0.8; stroke-linecap: square"/>
     </g>
     <g id="line2d_62">
      <g>
       <use xlink:href="#mff5c7ea201" x="56.312054" y="288.498966" style="stroke: #000000; stroke-width: 0.8"/>
      </g>
     </g>
     <g id="text_27">
      <!-- $\mathdefault{10^{3}}$ -->
      <g transform="translate(31.712054 292.298185) scale(0.1 -0.1)">
       <use xlink:href="#DejaVuSans-31" transform="translate(0 0.765625)"/>
       <use xlink:href="#DejaVuSans-30" transform="translate(63.623047 0.765625)"/>
       <use xlink:href="#DejaVuSans-33" transform="translate(128.203125 39.046875) scale(0.7)"/>
      </g>
     </g>
    </g>
    <g id="text_28">
     <!-- |FFT(.)| -->
     <g transform="translate(19.454241 386.597344) rotate(-90) scale(0.1 -0.1)">
      <defs>
       <path id="DejaVuSans-54" d="M -19 4666 
L 3928 4666 
L 3928 4134 
L 2272 4134 
L 2272 0 
L 1638 0 
L 1638 4134 
L -19 4134 
L -19 4666 
z
" transform="scale(0.015625)"/>
      </defs>
      <use xlink:href="#DejaVuSans-7c"/>
      <use xlink:href="#DejaVuSans-46" transform="translate(33.691406 0)"/>
      <use xlink:href="#DejaVuSans-46" transform="translate(91.210938 0)"/>
      <use xlink:href="#DejaVuSans-54" transform="translate(146.980469 0)"/>
      <use xlink:href="#DejaVuSans-28" transform="translate(208.064453 0)"/>
      <use xlink:href="#DejaVuSans-2e" transform="translate(247.078125 0)"/>
      <use xlink:href="#DejaVuSans-29" transform="translate(278.865234 0)"/>
      <use xlink:href="#DejaVuSans-7c" transform="translate(317.878906 0)"/>
     </g>
    </g>
   </g>
   <g id="line2d_63">
    <path d="M 56.312054 309.168507 
L 142.387307 331.74601 
L 192.738102 330.605996 
L 228.46256 329.083766 
L 256.172603 327.22737 
L 278.813356 325.019684 
L 297.95584 322.389265 
L 314.537813 319.19126 
L 329.164151 315.143073 
L 342.247856 309.612506 
L 354.083506 300.511116 
L 364.888609 288.835248 
L 374.82834 287.467273 
L 384.031093 294.035595 
L 392.598651 306.859517 
L 400.613067 313.319241 
L 408.141453 317.837841 
L 415.239404 321.343506 
L 421.95349 324.216929 
L 428.323109 326.655534 
L 434.381888 328.775876 
L 440.15876 330.652821 
L 445.678795 332.337416 
L 450.963862 333.86607 
L 456.033151 335.265684 
L 460.903593 336.556698 
L 465.5902 337.755018 
L 470.106346 338.873259 
L 474.463998 339.921603 
L 478.673904 340.908383 
L 482.745756 341.840509 
L 486.68832 342.723771 
L 490.509555 343.563074 
L 494.216706 344.362609 
L 497.816388 345.125983 
L 501.314657 345.856328 
L 504.717071 346.556376 
L 508.028743 347.228531 
L 511.254388 347.874913 
L 514.398362 348.497408 
L 517.464699 349.097698 
L 520.457141 349.677288 
L 523.379167 350.237536 
L 526.234013 350.779667 
L 529.0247 351.304791 
L 531.754048 351.813918 
L 534.424696 352.307971 
L 537.039115 352.787791 
L 539.599625 353.254154 
L 542.108404 353.70777 
L 544.567501 354.149297 
L 546.978846 354.579341 
L 549.344257 354.998464 
L 551.665453 355.407187 
L 553.944055 355.805997 
L 556.181599 356.195345 
L 558.379539 356.575652 
L 560.539251 356.947314 
L 562.662044 357.310699 
L 564.749158 357.666154 
L 566.801772 358.014004 
L 568.821009 358.354554 
L 570.807937 358.688094 
L 572.763573 359.014894 
L 574.688888 359.335211 
L 576.584808 359.649286 
L 578.452217 359.957349 
L 580.291959 360.259617 
L 582.104843 360.556295 
L 583.891641 360.847578 
L 585.653094 361.133652 
L 587.389911 361.414693 
L 589.10277 361.690869 
L 590.792325 361.962338 
L 592.4592 362.229252 
L 594.103997 362.491758 
L 595.727292 362.749992 
L 597.329641 363.004088 
L 598.911578 363.254171 
L 600.473615 363.500362 
L 602.016248 363.742776 
L 603.539952 363.981524 
L 605.045187 364.216712 
L 606.532395 364.448441 
L 608.002002 364.67681 
L 609.45442 364.90191 
L 610.890047 365.123832 
L 612.309266 365.342662 
L 613.712449 365.558483 
L 615.099953 365.771374 
L 616.472125 365.981413 
L 617.829301 366.188672 
L 619.171804 366.393222 
L 620.499949 366.595133 
L 621.814039 366.79447 
L 623.114368 366.991297 
L 624.401223 367.185674 
L 625.674879 367.377662 
L 626.935603 367.567316 
L 628.183658 367.754692 
L 629.419293 367.939844 
" clip-path="url(#p120b027b8d)" style="fill: none; stroke: #1f77b4; stroke-opacity: 0.6; stroke-width: 1.5; stroke-linecap: square"/>
   </g>
   <g id="line2d_64">
    <path d="M 56.312054 311.248446 
L 142.387307 320.008571 
L 192.738102 326.201823 
L 228.46256 330.556591 
L 256.172603 333.494675 
L 278.813356 335.022883 
L 297.95584 334.949259 
L 314.537813 333.196343 
L 329.164151 329.819807 
L 342.247856 324.549981 
L 354.083506 315.528745 
L 364.888609 303.866877 
L 374.82834 302.497093 
L 384.031093 309.067884 
L 392.598651 321.905242 
L 400.613067 328.390406 
L 408.141453 332.945272 
L 415.239404 336.49616 
L 421.95349 339.421837 
L 428.323109 341.917992 
L 434.381888 344.099715 
L 440.15876 346.040672 
L 445.678795 347.790954 
L 450.963862 349.386221 
L 456.033151 350.852786 
L 460.903593 352.210646 
L 465.5902 353.475366 
L 470.106346 354.659314 
L 474.463998 355.772487 
L 478.673904 356.823091 
L 482.745756 357.817947 
L 486.68832 358.762792 
L 490.509555 359.662503 
L 494.216706 360.521257 
L 497.816388 361.342667 
L 501.314657 362.129879 
L 504.717071 362.885647 
L 508.028743 363.612402 
L 511.254388 364.312297 
L 514.398362 364.98725 
L 517.464699 365.638977 
L 520.457141 366.269022 
L 523.379167 366.878775 
L 526.234013 367.469497 
L 529.0247 368.042331 
L 531.754048 368.598321 
L 534.424696 369.13842 
L 537.039115 369.6635 
L 539.599625 370.174365 
L 542.108404 370.671752 
L 544.567501 371.156344 
L 546.978846 371.628772 
L 549.344257 372.089621 
L 551.665453 372.539433 
L 553.944055 372.978714 
L 556.181599 373.407935 
L 558.379539 373.827535 
L 560.539251 374.237926 
L 562.662044 374.639493 
L 564.749158 375.032596 
L 566.801772 375.417575 
L 568.821009 375.794748 
L 570.807937 376.164416 
L 572.763573 376.526862 
L 574.688888 376.882353 
L 576.584808 377.231141 
L 578.452217 377.573466 
L 580.291959 377.909553 
L 582.104843 378.239617 
L 583.891641 378.563861 
L 585.653094 378.882478 
L 587.389911 379.195652 
L 589.10277 379.503558 
L 590.792325 379.806362 
L 592.4592 380.104223 
L 594.103997 380.397291 
L 595.727292 380.685712 
L 597.329641 380.969623 
L 598.911578 381.249156 
L 600.473615 381.524437 
L 602.016248 381.795586 
L 603.539952 382.06272 
L 605.045187 382.32595 
L 606.532395 382.585381 
L 608.002002 382.841116 
L 609.45442 383.093252 
L 610.890047 383.341884 
L 612.309266 383.587103 
L 613.712449 383.828995 
L 615.099953 384.067644 
L 616.472125 384.303131 
L 617.829301 384.535533 
L 619.171804 384.764927 
L 620.499949 384.991383 
L 621.814039 385.214971 
L 623.114368 385.435759 
L 624.401223 385.653812 
L 625.674879 385.869193 
L 626.935603 386.081961 
L 628.183658 386.292177 
L 629.419293 386.499896 
" clip-path="url(#p120b027b8d)" style="fill: none; stroke: #ff7f0e; stroke-width: 1.5; stroke-linecap: square"/>
   </g>
   <g id="patch_9">
    <path d="M 56.312054 458.728 
L 56.312054 279.312 
" style="fill: none; stroke: #000000; stroke-width: 0.8; stroke-linejoin: miter; stroke-linecap: square"/>
   </g>
   <g id="patch_10">
    <path d="M 628.183658 458.728 
L 628.183658 279.312 
" style="fill: none; stroke: #000000; stroke-width: 0.8; stroke-linejoin: miter; stroke-linecap: square"/>
   </g>
   <g id="patch_11">
    <path d="M 56.312054 458.728 
L 628.183658 458.728 
" style="fill: none; stroke: #000000; stroke-width: 0.8; stroke-linejoin: miter; stroke-linecap: square"/>
   </g>
   <g id="patch_12">
    <path d="M 56.312054 279.312 
L 628.183658 279.312 
" style="fill: none; stroke: #000000; stroke-width: 0.8; stroke-linejoin: miter; stroke-linecap: square"/>
   </g>
   <g id="text_29">
    <!-- Output FFT peak ≈ 1.300 (arb.), magnitude ≈ 7.572e+01 | low-ish -->
    <g transform="translate(142.530356 273.312) scale(0.12 -0.12)">
     <defs>
      <path id="DejaVuSans-4f" d="M 2522 4238 
Q 1834 4238 1429 3725 
Q 1025 3213 1025 2328 
Q 1025 1447 1429 934 
Q 1834 422 2522 422 
Q 3209 422 3611 934 
Q 4013 1447 4013 2328 
Q 4013 3213 3611 3725 
Q 3209 4238 2522 4238 
z
M 2522 4750 
Q 3503 4750 4090 4092 
Q 4678 3434 4678 2328 
Q 4678 1225 4090 567 
Q 3503 -91 2522 -91 
Q 1538 -91 948 565 
Q 359 1222 359 2328 
Q 359 3434 948 4092 
Q 1538 4750 2522 4750 
z
" transform="scale(0.015625)"/>
      <path id="DejaVuSans-6b" d="M 581 4863 
L 1159 4863 
L 1159 1991 
L 2875 3500 
L 3609 3500 
L 1753 1863 
L 3688 0 
L 2938 0 
L 1159 1709 
L 1159 0 
L 581 0 
L 581 4863 
z
" transform="scale(0.015625)"/>
      <path id="DejaVuSans-2248" d="M 4684 1947 
L 4684 1388 
Q 4356 1144 4076 1036 
Q 3797 928 3494 928 
Q 3150 928 2694 1113 
Q 2663 1125 2641 1134 
Q 2622 1141 2575 1159 
Q 2091 1350 1797 1350 
Q 1522 1350 1253 1231 
Q 984 1113 678 850 
L 678 1409 
Q 1006 1653 1286 1761 
Q 1566 1869 1869 1869 
Q 2213 1869 2672 1684 
Q 2706 1669 2722 1663 
Q 2741 1656 2788 1638 
Q 3272 1447 3566 1447 
Q 3834 1447 4098 1564 
Q 4363 1681 4684 1947 
z
M 4684 3163 
L 4684 2606 
Q 4356 2359 4076 2251 
Q 3797 2144 3494 2144 
Q 3150 2144 2694 2328 
Q 2663 2341 2641 2350 
Q 2622 2356 2575 2375 
Q 2091 2566 1797 2566 
Q 1522 2566 1253 2447 
Q 984 2328 678 2069 
L 678 2625 
Q 1006 2869 1286 2976 
Q 1566 3084 1869 3084 
Q 2213 3084 2672 2900 
Q 2703 2888 2719 2881 
Q 2741 2872 2788 2853 
Q 3272 2663 3566 2663 
Q 3834 2663 4098 2780 
Q 4363 2897 4684 3163 
z
" transform="scale(0.015625)"/>
      <path id="DejaVuSans-6d" d="M 3328 2828 
Q 3544 3216 3844 3400 
Q 4144 3584 4550 3584 
Q 5097 3584 5394 3201 
Q 5691 2819 5691 2113 
L 5691 0 
L 5113 0 
L 5113 2094 
Q 5113 2597 4934 2840 
Q 4756 3084 4391 3084 
Q 3944 3084 3684 2787 
Q 3425 2491 3425 1978 
L 3425 0 
L 2847 0 
L 2847 2094 
Q 2847 2600 2669 2842 
Q 2491 3084 2119 3084 
Q 1678 3084 1418 2786 
Q 1159 2488 1159 1978 
L 1159 0 
L 581 0 
L 581 3500 
L 1159 3500 
L 1159 2956 
Q 1356 3278 1631 3431 
Q 1906 3584 2284 3584 
Q 2666 3584 2933 3390 
Q 3200 3197 3328 2828 
z
" transform="scale(0.015625)"/>
      <path id="DejaVuSans-67" d="M 2906 1791 
Q 2906 2416 2648 2759 
Q 2391 3103 1925 3103 
Q 1463 3103 1205 2759 
Q 947 2416 947 1791 
Q 947 1169 1205 825 
Q 1463 481 1925 481 
Q 2391 481 2648 825 
Q 2906 1169 2906 1791 
z
M 3481 434 
Q 3481 -459 3084 -895 
Q 2688 -1331 1869 -1331 
Q 1566 -1331 1297 -1286 
Q 1028 -1241 775 -1147 
L 775 -588 
Q 1028 -725 1275 -790 
Q 1522 -856 1778 -856 
Q 2344 -856 2625 -561 
Q 2906 -266 2906 331 
L 2906 616 
Q 2728 306 2450 153 
Q 2172 0 1784 0 
Q 1141 0 747 490 
Q 353 981 353 1791 
Q 353 2603 747 3093 
Q 1141 3584 1784 3584 
Q 2172 3584 2450 3431 
Q 2728 3278 2906 2969 
L 2906 3500 
L 3481 3500 
L 3481 434 
z
" transform="scale(0.015625)"/>
      <path id="DejaVuSans-2b" d="M 2944 4013 
L 2944 2272 
L 4684 2272 
L 4684 1741 
L 2944 1741 
L 2944 0 
L 2419 0 
L 2419 1741 
L 678 1741 
L 678 2272 
L 2419 2272 
L 2419 4013 
L 2944 4013 
z
" transform="scale(0.015625)"/>
      <path id="DejaVuSans-68" d="M 3513 2113 
L 3513 0 
L 2938 0 
L 2938 2094 
Q 2938 2591 2744 2837 
Q 2550 3084 2163 3084 
Q 1697 3084 1428 2787 
Q 1159 2491 1159 1978 
L 1159 0 
L 581 0 
L 581 4863 
L 1159 4863 
L 1159 2956 
Q 1366 3272 1645 3428 
Q 1925 3584 2291 3584 
Q 2894 3584 3203 3211 
Q 3513 2838 3513 2113 
z
" transform="scale(0.015625)"/>
     </defs>
     <use xlink:href="#DejaVuSans-4f"/>
     <use xlink:href="#DejaVuSans-75" transform="translate(78.710938 0)"/>
     <use xlink:href="#DejaVuSans-74" transform="translate(142.089844 0)"/>
     <use xlink:href="#DejaVuSans-70" transform="translate(181.298828 0)"/>
     <use xlink:href="#DejaVuSans-75" transform="translate(244.775391 0)"/>
     <use xlink:href="#DejaVuSans-74" transform="translate(308.154297 0)"/>
     <use xlink:href="#DejaVuSans-20" transform="translate(347.363281 0)"/>
     <use xlink:href="#DejaVuSans-46" transform="translate(379.150391 0)"/>
     <use xlink:href="#DejaVuSans-46" transform="translate(436.669922 0)"/>
     <use xlink:href="#DejaVuSans-54" transform="translate(492.439453 0)"/>
     <use xlink:href="#DejaVuSans-20" transform="translate(553.523438 0)"/>
     <use xlink:href="#DejaVuSans-70" transform="translate(585.310547 0)"/>
     <use xlink:href="#DejaVuSans-65" transform="translate(648.787109 0)"/>
     <use xlink:href="#DejaVuSans-61" transform="translate(710.310547 0)"/>
     <use xlink:href="#DejaVuSans-6b" transform="translate(771.589844 0)"/>
     <use xlink:href="#DejaVuSans-20" transform="translate(829.5 0)"/>
     <use xlink:href="#DejaVuSans-2248" transform="translate(861.287109 0)"/>
     <use xlink:href="#DejaVuSans-20" transform="translate(945.076172 0)"/>
     <use xlink:href="#DejaVuSans-31" transform="translate(976.863281 0)"/>
     <use xlink:href="#DejaVuSans-2e" transform="translate(1040.486328 0)"/>
     <use xlink:href="#DejaVuSans-33" transform="translate(1072.273438 0)"/>
     <use xlink:href="#DejaVuSans-30" transform="translate(1135.896484 0)"/>
     <use xlink:href="#DejaVuSans-30" transform="translate(1199.519531 0)"/>
     <use xlink:href="#DejaVuSans-20" transform="translate(1263.142578 0)"/>
     <use xlink:href="#DejaVuSans-28" transform="translate(1294.929688 0)"/>
     <use xlink:href="#DejaVuSans-61" transform="translate(1333.943359 0)"/>
     <use xlink:href="#DejaVuSans-72" transform="translate(1395.222656 0)"/>
     <use xlink:href="#DejaVuSans-62" transform="translate(1436.335938 0)"/>
     <use xlink:href="#DejaVuSans-2e" transform="translate(1499.8125 0)"/>
     <use xlink:href="#DejaVuSans-29" transform="translate(1531.599609 0)"/>
     <use xlink:href="#DejaVuSans-2c" transform="translate(1570.613281 0)"/>
     <use xlink:href="#DejaVuSans-20" transform="translate(1602.400391 0)"/>
     <use xlink:href="#DejaVuSans-6d" transform="translate(1634.1875 0)"/>
     <use xlink:href="#DejaVuSans-61" transform="translate(1731.599609 0)"/>
     <use xlink:href="#DejaVuSans-67" transform="translate(1792.878906 0)"/>
     <use xlink:href="#DejaVuSans-6e" transform="translate(1856.355469 0)"/>
     <use xlink:href="#DejaVuSans-69" transform="translate(1919.734375 0)"/>
     <use xlink:href="#DejaVuSans-74" transform="translate(1947.517578 0)"/>
     <use xlink:href="#DejaVuSans-75" transform="translate(1986.726562 0)"/>
     <use xlink:href="#DejaVuSans-64" transform="translate(2050.105469 0)"/>
     <use xlink:href="#DejaVuSans-65" transform="translate(2113.582031 0)"/>
     <use xlink:href="#DejaVuSans-20" transform="translate(2175.105469 0)"/>
     <use xlink:href="#DejaVuSans-2248" transform="translate(2206.892578 0)"/>
     <use xlink:href="#DejaVuSans-20" transform="translate(2290.681641 0)"/>
     <use xlink:href="#DejaVuSans-37" transform="translate(2322.46875 0)"/>
     <use xlink:href="#DejaVuSans-2e" transform="translate(2386.091797 0)"/>
     <use xlink:href="#DejaVuSans-35" transform="translate(2417.878906 0)"/>
     <use xlink:href="#DejaVuSans-37" transform="translate(2481.501953 0)"/>
     <use xlink:href="#DejaVuSans-32" transform="translate(2545.125 0)"/>
     <use xlink:href="#DejaVuSans-65" transform="translate(2608.748047 0)"/>
     <use xlink:href="#DejaVuSans-2b" transform="translate(2670.271484 0)"/>
     <use xlink:href="#DejaVuSans-30" transform="translate(2754.060547 0)"/>
     <use xlink:href="#DejaVuSans-31" transform="translate(2817.683594 0)"/>
     <use xlink:href="#DejaVuSans-20" transform="translate(2881.306641 0)"/>
     <use xlink:href="#DejaVuSans-7c" transform="translate(2913.09375 0)"/>
     <use xlink:href="#DejaVuSans-20" transform="translate(2946.785156 0)"/>
     <use xlink:href="#DejaVuSans-6c" transform="translate(2978.572266 0)"/>
     <use xlink:href="#DejaVuSans-6f" transform="translate(3006.355469 0)"/>
     <use xlink:href="#DejaVuSans-77" transform="translate(3067.537109 0)"/>
     <use xlink:href="#DejaVuSans-2d" transform="translate(3149.324219 0)"/>
     <use xlink:href="#DejaVuSans-69" transform="translate(3185.408203 0)"/>
     <use xlink:href="#DejaVuSans-73" transform="translate(3213.191406 0)"/>
     <use xlink:href="#DejaVuSans-68" transform="translate(3265.291016 0)"/>
    </g>
   </g>
   <g id="legend_2">
    <g id="patch_13">
     <path d="M 535.586783 316.66825 
L 621.183658 316.66825 
Q 623.183658 316.66825 623.183658 314.66825 
L 623.183658 286.312 
Q 623.183658 284.312 621.183658 284.312 
L 535.586783 284.312 
Q 533.586783 284.312 533.586783 286.312 
L 533.586783 314.66825 
Q 533.586783 316.66825 535.586783 316.66825 
z
" style="fill: #ffffff; opacity: 0.8; stroke: #cccccc; stroke-linejoin: miter"/>
    </g>
    <g id="line2d_65">
     <path d="M 537.586783 292.410438 
L 547.586783 292.410438 
L 557.586783 292.410438 
" style="fill: none; stroke: #1f77b4; stroke-opacity: 0.6; stroke-width: 1.5; stroke-linecap: square"/>
    </g>
    <g id="text_30">
     <!-- input FFT -->
     <g transform="translate(565.586783 295.910438) scale(0.1 -0.1)">
      <use xlink:href="#DejaVuSans-69"/>
      <use xlink:href="#DejaVuSans-6e" transform="translate(27.783203 0)"/>
      <use xlink:href="#DejaVuSans-70" transform="translate(91.162109 0)"/>
      <use xlink:href="#DejaVuSans-75" transform="translate(154.638672 0)"/>
      <use xlink:href="#DejaVuSans-74" transform="translate(218.017578 0)"/>
      <use xlink:href="#DejaVuSans-20" transform="translate(257.226562 0)"/>
      <use xlink:href="#DejaVuSans-46" transform="translate(289.013672 0)"/>
      <use xlink:href="#DejaVuSans-46" transform="translate(346.533203 0)"/>
      <use xlink:href="#DejaVuSans-54" transform="translate(402.302734 0)"/>
     </g>
    </g>
    <g id="line2d_66">
     <path d="M 537.586783 307.088562 
L 547.586783 307.088562 
L 557.586783 307.088562 
" style="fill: none; stroke: #ff7f0e; stroke-width: 1.5; stroke-linecap: square"/>
    </g>
    <g id="text_31">
     <!-- output FFT -->
     <g transform="translate(565.586783 310.588562) scale(0.1 -0.1)">
      <use xlink:href="#DejaVuSans-6f"/>
      <use xlink:href="#DejaVuSans-75" transform="translate(61.181641 0)"/>
      <use xlink:href="#DejaVuSans-74" transform="translate(124.560547 0)"/>
      <use xlink:href="#DejaVuSans-70" transform="translate(163.769531 0)"/>
      <use xlink:href="#DejaVuSans-75" transform="translate(227.246094 0)"/>
      <use xlink:href="#DejaVuSans-74" transform="translate(290.625 0)"/>
      <use xlink:href="#DejaVuSans-20" transform="translate(329.833984 0)"/>
      <use xlink:href="#DejaVuSans-46" transform="translate(361.621094 0)"/>
      <use xlink:href="#DejaVuSans-46" transform="translate(419.140625 0)"/>
      <use xlink:href="#DejaVuSans-54" transform="translate(474.910156 0)"/>
     </g>
    </g>
   </g>
  </g>
 </g>
 <defs>
  <clipPath id="p2389cb6fb9">
   <rect x="56.312054" y="41.856" width="571.871604" height="179.416"/>
  </clipPath>
  <clipPath id="p120b027b8d">
   <rect x="56.312054" y="279.312" width="571.871604" height="179.416"/>
  </clipPath>
 </defs>
</svg>
